<?xml version="1.0" standalone="no"?><!-- Generator: Gravit.io --><svg xmlns="http://www.w3.org/2000/svg" xmlns:xlink="http://www.w3.org/1999/xlink" style="isolation:isolate" viewBox="751.745 592.413 156.51 158.587" width="156.51" height="158.587"><switch><g id="Group"><g id="Group"><g id="Group"><g id="Group"><defs><filter id="qmjzRrylPcz4Q3YFLpqbiMdJUCWnjShn" x="-200%" y="-200%" width="400%" height="400%" filterUnits="objectBoundingBox" color-interpolation-filters="sRGB"><feGaussianBlur xmlns="http://www.w3.org/2000/svg" in="SourceGraphic" stdDeviation="2.146804531419514"/><feOffset xmlns="http://www.w3.org/2000/svg" dx="0" dy="13" result="pf_100_offsetBlur"/><feFlood xmlns="http://www.w3.org/2000/svg" flood-color="#1A1A1A" flood-opacity="0.7"/><feComposite xmlns="http://www.w3.org/2000/svg" in2="pf_100_offsetBlur" operator="in" result="pf_100_dropShadow"/><feBlend xmlns="http://www.w3.org/2000/svg" in="SourceGraphic" in2="pf_100_dropShadow" mode="normal"/></filter></defs><g filter="url(#qmjzRrylPcz4Q3YFLpqbiMdJUCWnjShn)"><ellipse vector-effect="non-scaling-stroke" cx="829.9999999999998" cy="661.7062857142857" rx="71.25485714285708" ry="69.29371428571426" id="Ellipse" fill="rgb(71,71,71)"/><clipPath id="_clipPath_AyZJ3drNHPz4kAla1hqRqXci5wlmlz7n"><ellipse vector-effect="non-scaling-stroke" cx="829.9999999999998" cy="661.7062857142857" rx="71.25485714285708" ry="69.29371428571426" id="Ellipse" fill="rgb(71,71,71)"/></clipPath><g clip-path="url(#_clipPath_AyZJ3drNHPz4kAla1hqRqXci5wlmlz7n)"><path d=" M 750.901 648.632 L 779.01 630.149 L 794.699 641.021 L 803.851 620.364 L 826.078 635.585 L 850.265 623.626 L 871.838 635.585 L 875.106 613.985 L 889.488 623.626 L 925.442 620.364 L 903.87 545.345 L 724.098 564.372 L 750.901 648.632 Z " id="Path" fill="rgb(126,126,126)"/><path d=" M 760.053 735.576 L 780.318 691.777 L 803.851 710.081 L 807.774 691.777 L 823.463 710.081 L 840.459 691.777 L 851.573 710.081 L 875.106 699.622 L 899.947 691.777 L 922.827 744.728 L 760.053 735.576 Z " id="Path" fill="rgb(126,126,126)"/></g></g><ellipse vector-effect="non-scaling-stroke" cx="829.9999999999998" cy="661.706285714284" rx="47.3912021563342" ry="46.08685714285707" id="Ellipse" fill="rgb(60,60,60)"/><ellipse vector-effect="non-scaling-stroke" cx="829.9999999999998" cy="664.4620812581901" rx="41.15008086253363" ry="40.017509829619826" id="Ellipse" fill="rgb(70,70,70)"/><clipPath id="_clipPath_pouIEDZzuUHtxXJGGHkW1MlHSS9gFy2H"><ellipse vector-effect="non-scaling-stroke" cx="829.9999999999998" cy="664.4620812581901" rx="41.15008086253363" ry="40.017509829619826" id="Ellipse" fill="rgb(70,70,70)"/></clipPath><g clip-path="url(#_clipPath_pouIEDZzuUHtxXJGGHkW1MlHSS9gFy2H)"><path d=" M 784.32 656.912 L 800.553 646.238 L 809.614 652.516 L 814.899 640.587 L 827.735 649.377 L 841.703 642.47 L 854.162 649.377 L 856.049 636.903 L 864.355 642.47 L 885.118 640.587 L 872.66 597.263 L 768.841 608.251 L 784.32 656.912 Z " id="Path" fill="rgb(94,92,92)"/><path d=" M 789.605 707.122 L 801.308 681.828 L 814.899 692.399 L 817.164 681.828 L 826.225 692.399 L 836.04 681.828 L 842.458 692.399 L 856.049 686.358 L 870.395 681.828 L 883.608 712.408 L 789.605 707.122 Z " id="Path" fill="rgb(81,81,81)"/></g></g></g></g><g id="Group"><defs><filter id="gB8ZNRvElfoHErOoXSftVhbjXMOFt83q" x="-200%" y="-200%" width="400%" height="400%" filterUnits="objectBoundingBox" color-interpolation-filters="sRGB"><feGaussianBlur xmlns="http://www.w3.org/2000/svg" in="SourceGraphic" stdDeviation="2.146804531419514"/><feOffset xmlns="http://www.w3.org/2000/svg" dx="-5" dy="5" result="pf_100_offsetBlur"/><feFlood xmlns="http://www.w3.org/2000/svg" flood-color="#000000" flood-opacity="1"/><feComposite xmlns="http://www.w3.org/2000/svg" in2="pf_100_offsetBlur" operator="in" result="pf_100_dropShadow"/><feBlend xmlns="http://www.w3.org/2000/svg" in="SourceGraphic" in2="pf_100_dropShadow" mode="normal"/></filter></defs><g filter="url(#gB8ZNRvElfoHErOoXSftVhbjXMOFt83q)"><path d=" M 794.243 667.86 L 794.243 667.86 C 793.24 661.843 795.438 654.312 799.149 651.053 L 799.149 651.053 C 802.859 647.794 808.431 645.148 811.584 645.148 L 811.584 645.148 C 814.736 645.148 818.551 646.369 820.096 647.873 L 820.096 647.873 C 821.642 649.378 825.965 650.599 829.744 650.599 L 829.744 650.599 C 833.523 650.599 838.71 650.066 841.319 649.41 L 841.319 649.41 C 843.927 648.754 847.677 647.814 849.686 647.313 L 849.686 647.313 C 851.696 646.811 855.301 647.344 857.732 648.502 L 857.732 648.502 C 860.163 649.659 863.379 655.128 864.91 660.707 L 864.91 660.707 C 865.511 662.9 865.7 666.461 865.331 668.654 L 865.331 668.654 C 864.391 674.233 861.321 680.39 858.478 682.396 L 858.478 682.396 C 855.635 684.402 850.789 686.03 847.663 686.03 L 847.663 686.03 C 844.536 686.03 839.543 683.587 836.518 680.579 L 836.518 680.579 C 833.493 677.57 829.213 675.128 826.967 675.128 L 826.967 675.128 Q 822.897 675.128 820.096 675.128 L 820.096 675.128 C 818.551 675.128 816.007 676.984 814.42 679.27 L 814.42 679.27 C 812.833 681.556 810.079 683.189 808.272 682.913 L 808.272 682.913 C 806.466 682.637 802.997 681.595 800.53 680.587 L 800.53 680.587 C 798.063 679.58 795.245 673.877 794.243 667.86 Z " id="Path" fill="rgb(181,122,85)" vector-effect="non-scaling-stroke" stroke-width="3" stroke="rgb(60,60,60)" stroke-linejoin="miter" stroke-linecap="square" stroke-miterlimit="3"/><clipPath id="_clipPath_MqccmEmgYkyo3nqUzTZADByvQV9XniKZ"><path d=" M 794.243 667.86 L 794.243 667.86 C 793.24 661.843 795.438 654.312 799.149 651.053 L 799.149 651.053 C 802.859 647.794 808.431 645.148 811.584 645.148 L 811.584 645.148 C 814.736 645.148 818.551 646.369 820.096 647.873 L 820.096 647.873 C 821.642 649.378 825.965 650.599 829.744 650.599 L 829.744 650.599 C 833.523 650.599 838.71 650.066 841.319 649.41 L 841.319 649.41 C 843.927 648.754 847.677 647.814 849.686 647.313 L 849.686 647.313 C 851.696 646.811 855.301 647.344 857.732 648.502 L 857.732 648.502 C 860.163 649.659 863.379 655.128 864.91 660.707 L 864.91 660.707 C 865.511 662.9 865.7 666.461 865.331 668.654 L 865.331 668.654 C 864.391 674.233 861.321 680.39 858.478 682.396 L 858.478 682.396 C 855.635 684.402 850.789 686.03 847.663 686.03 L 847.663 686.03 C 844.536 686.03 839.543 683.587 836.518 680.579 L 836.518 680.579 C 833.493 677.57 829.213 675.128 826.967 675.128 L 826.967 675.128 Q 822.897 675.128 820.096 675.128 L 820.096 675.128 C 818.551 675.128 816.007 676.984 814.42 679.27 L 814.42 679.27 C 812.833 681.556 810.079 683.189 808.272 682.913 L 808.272 682.913 C 806.466 682.637 802.997 681.595 800.53 680.587 L 800.53 680.587 C 798.063 679.58 795.245 673.877 794.243 667.86 Z " id="Path" fill="rgb(181,122,85)" vector-effect="non-scaling-stroke" stroke-width="3" stroke="rgb(60,60,60)" stroke-linejoin="miter" stroke-linecap="square" stroke-miterlimit="3"/></clipPath><g clip-path="url(#_clipPath_MqccmEmgYkyo3nqUzTZADByvQV9XniKZ)"><path d=" M 786.754 694.024 L 801.03 664.23 L 803.409 671.892 L 811.737 664.23 L 811.737 674.445 L 826.013 663.379 L 834.341 675.297 L 840.289 659.123 L 846.238 676.999 L 871.221 659.123 L 867.652 699.132 L 786.754 694.024 Z " id="Path" fill="rgb(181,85,85)"/></g><path d=" M 794.243 667.86 L 794.243 667.86 C 793.24 661.843 795.438 654.312 799.149 651.053 L 799.149 651.053 C 802.859 647.794 808.431 645.148 811.584 645.148 L 811.584 645.148 C 814.736 645.148 818.551 646.369 820.096 647.873 L 820.096 647.873 C 821.642 649.378 825.965 650.599 829.744 650.599 L 829.744 650.599 C 833.523 650.599 838.71 650.066 841.319 649.41 L 841.319 649.41 C 843.927 648.754 847.677 647.814 849.686 647.313 L 849.686 647.313 C 851.696 646.811 855.301 647.344 857.732 648.502 L 857.732 648.502 C 860.163 649.659 863.379 655.128 864.91 660.707 L 864.91 660.707 C 865.511 662.9 865.7 666.461 865.331 668.654 L 865.331 668.654 C 864.391 674.233 861.321 680.39 858.478 682.396 L 858.478 682.396 C 855.635 684.402 850.789 686.03 847.663 686.03 L 847.663 686.03 C 844.536 686.03 839.543 683.587 836.518 680.579 L 836.518 680.579 C 833.493 677.57 829.213 675.128 826.967 675.128 L 826.967 675.128 Q 822.897 675.128 820.096 675.128 L 820.096 675.128 C 818.551 675.128 816.007 676.984 814.42 679.27 L 814.42 679.27 C 812.833 681.556 810.079 683.189 808.272 682.913 L 808.272 682.913 C 806.466 682.637 802.997 681.595 800.53 680.587 L 800.53 680.587 C 798.063 679.58 795.245 673.877 794.243 667.86 Z " id="Path" fill="transparent" vector-effect="non-scaling-stroke" stroke-width="3" stroke="rgb(60,60,60)" stroke-linejoin="miter" stroke-linecap="square" stroke-miterlimit="3"/><path d=" M 794.243 667.86 L 794.243 667.86 C 793.24 661.843 795.438 654.312 799.149 651.053 L 799.149 651.053 C 802.859 647.794 808.431 645.148 811.584 645.148 L 811.584 645.148 C 814.736 645.148 818.551 646.369 820.096 647.873 L 820.096 647.873 C 821.642 649.378 825.965 650.599 829.744 650.599 L 829.744 650.599 C 833.523 650.599 838.71 650.066 841.319 649.41 L 841.319 649.41 C 843.927 648.754 847.677 647.814 849.686 647.313 L 849.686 647.313 C 851.696 646.811 855.301 647.344 857.732 648.502 L 857.732 648.502 C 860.163 649.659 863.379 655.128 864.91 660.707 L 864.91 660.707 C 865.511 662.9 865.7 666.461 865.331 668.654 L 865.331 668.654 C 864.391 674.233 861.321 680.39 858.478 682.396 L 858.478 682.396 C 855.635 684.402 850.789 686.03 847.663 686.03 L 847.663 686.03 C 844.536 686.03 839.543 683.587 836.518 680.579 L 836.518 680.579 C 833.493 677.57 829.213 675.128 826.967 675.128 L 826.967 675.128 Q 822.897 675.128 820.096 675.128 L 820.096 675.128 C 818.551 675.128 816.007 676.984 814.42 679.27 L 814.42 679.27 C 812.833 681.556 810.079 683.189 808.272 682.913 L 808.272 682.913 C 806.466 682.637 802.997 681.595 800.53 680.587 L 800.53 680.587 C 798.063 679.58 795.245 673.877 794.243 667.86 Z " id="Path" fill="transparent" vector-effect="non-scaling-stroke" stroke-width="3" stroke="rgb(60,60,60)" stroke-linejoin="miter" stroke-linecap="square" stroke-miterlimit="3"/></g><path d=" M 812.108 660.602 L 817.296 661.842 L 817.175 665.374 L 811.545 664.04 L 810.653 668.881 L 807.121 668.761 L 808.415 663.299 L 803.048 662.027 L 803.367 658.458 L 809.219 659.903 L 810.468 654.633 L 812.959 655.01 L 812.108 660.602 Z " id="Path" fill="rgb(70,70,70)" vector-effect="non-scaling-stroke" stroke-width="2" stroke="rgb(60,60,60)" stroke-linejoin="miter" stroke-linecap="square" stroke-miterlimit="3"/><path d=" M 833.66 661.113 C 834.226 659.761 835.758 659.206 837.282 659.311 C 839.345 659.452 841.23 661.026 840.808 662.977 C 840.36 665.047 837.683 665.813 835.699 664.948 C 834.108 664.254 833.003 662.684 833.66 661.113 Z " id="Path" fill="rgb(70,70,70)" vector-effect="non-scaling-stroke" stroke-width="2" stroke="rgb(60,60,60)" stroke-linejoin="miter" stroke-linecap="square" stroke-miterlimit="3"/><path d=" M 842.746 656.291 C 843.316 654.948 844.858 654.397 846.391 654.501 C 848.468 654.642 850.365 656.204 849.94 658.142 C 849.489 660.198 846.795 660.958 844.798 660.099 C 843.197 659.41 842.085 657.851 842.746 656.291 Z " id="Path" fill="rgb(70,70,70)" vector-effect="non-scaling-stroke" stroke-width="2" stroke="rgb(60,60,60)" stroke-linejoin="miter" stroke-linecap="square" stroke-miterlimit="3"/><path d=" M 838.949 669.571 C 839.514 668.219 841.047 667.665 842.57 667.769 C 844.634 667.911 846.518 669.484 846.096 671.435 C 845.648 673.506 842.971 674.272 840.987 673.406 C 839.396 672.713 838.292 671.142 838.949 669.571 Z " id="Path" fill="rgb(70,70,70)" vector-effect="non-scaling-stroke" stroke-width="2" stroke="rgb(60,60,60)" stroke-linejoin="miter" stroke-linecap="square" stroke-miterlimit="3"/><path d=" M 848.034 663.571 C 848.599 662.219 850.131 661.665 851.655 661.769 C 853.719 661.911 855.603 663.484 855.181 665.435 C 854.733 667.506 852.056 668.272 850.072 667.406 C 848.481 666.713 847.377 665.142 848.034 663.571 Z " id="Path" fill="rgb(70,70,70)" vector-effect="non-scaling-stroke" stroke-width="2" stroke="rgb(60,60,60)" stroke-linejoin="miter" stroke-linecap="square" stroke-miterlimit="3"/></g></g><foreignObject requiredExtensions="http://ns.gravit.io/"><gravitDesigner:gravitElementRef xmlns:gravitDesigner="http://ns.gravit.io/" xlink:href="#XdCUUPN3RAGNEfJqmanv7VMQRlssivGV"/></foreignObject></switch><gravitDesigner:gravitGraphicSource xmlns:gravitDesigner="http://ns.gravit.io/" id="XdCUUPN3RAGNEfJqmanv7VMQRlssivGV" version="1"><![CDATA[eMKcw61aw7vCj8KjSMKSw75fak/Dt8OLw5R4woFMIBlpwqUDbMKDMcKYwofDgcOGwqxGK8Oew4bDhsK8w43Dg8Krw7nDnw/Dl8OLw67DmnF3w69swp/CtCdtFVXDrUrCiMOIw4zDiC8iwr4Iw7rDr0/Dv8Ozw7TDi1Ncw6XDp8Oiw6nDucOpwr/Cnn7DucOrw5/Dv8KFwpEwTcKTwqIOwr8YK8OcZj8Ow7hpXsKHw4HDky9NdQ7Cn8KfworCph4fw7jDqxPDi04twr1jw5nDpMKow7xlfMOoT8OjD8OrwqbDqykqw5NiDxUMwqvDgEnCiih9ejAlBjc0AQhPwr8+wo9ywotpccKVw7NvcsK9w6fDtwjDn8OWYmLDuHU1BMOMwq4GVl3DssOrQUDCmsK5FsOfw6XDsMKrXMKMfcOISRkQVD8nZ3wFwoDDqcO1wqDCq8OWwqTCp3jCkVx3ZsOtUsOvcsOoKsK3wpt9w4hVeMOXJ8K7cMKANgHDtMO9w4XCisK7RsK8HD3Dh1DCjsKXwqUiBsKvcgorGCzDi0Y3ORg7w4dkJw5oCMOcwqXDl8KfMBHDgMOKLcOEwq0Gwo7CqcOjw5fCr3Iswqtfw6XCnMObw77CtMOVZTjCtcOFw5TCtU4QO8KkwpDDjcKdVTQ1FQEfw4pQw6bCm1fCuRnCu8O7NMKfDcKHw74kwrnClGALwr1iw7bCsm01w7YhX8OtwqfCqcKwOsKkF8OibX/CrGPCsMO4bHPCk8KbBsKqw4ETZXQwQsKsDcKqGWHDhRYmwp0ywpkYUMKrwpzDnMO3dUbCn8OWGcKmw4XDmsObw5XDhWoONsOFwpzDt8KGccKxLcKxw7JAwrHDlTpDwqnDnsOtUl/DpcOuw6w5w5fCpcKIMcKIw4jCmjLCiMKYw6smNcKFCnkmCD4NfcOIw5rDtMO7OsKPV8K5asK2eMKXAxxMKcK4w57DjcKpKG8zw5U5w645wqnDr2IPw5B2wpbCucOEw7xNwo7Dv8Ozw7XDvMOQw7Emwrdkw7cLwq3DkFs/wppawprCg3U4wqV6w6tLciI0wpTDmiPCsH/DvXU8w6QwasO6w6bDqcKXw6zCnMKmL3/CucKZwr/Dj8KrK3jDh8K7TRXCjR/CsAlFAhrChwQiw59+P2PDl8OvCQkBwoXCkxjCoEkGMMKIfMKGNMKYw5AEw7nDsSjDvgwZNCEZSEDChiIgRmEEHMK1w77CrQ5GwrU0Pn5Kw50hwrxOw7bDrklJw5bDiMKvQ8O3HhYlacKqfcOcG2/DvcKtGMKXw7zDhMO/w6nCrzhBPcK/w73DvMO6w7TDm8Kow7vCv8KvasOswoHDjcKEfhjCmjjDmgTDqyjDpMKLw6VMXEhLwrDCigRzYMKefhs1woRRwrQIwq5KNMKnahgcMCIPdhHCs8ODMh1wR08CwqDCtRAxesOVb8OPw5/Dp8OmwoHDnsOxbHpzwrswYMK9eS/DpsKQwonDmWJZbMKXw7szw4PDrcOWw6J5Dg8la8KXw69uV1/Cj8ONwrvDgcOEw5vCqhHDgMKpw5AeRMKrw6MWHElBAj/Cn8K4wp3DpcKSTMOkw4vDr3I/XcOlw7Y3OcKfwqEuWMKpFHzCuMKhw7M9BhN6Dzw5w7PDtMKIw6BLwocsw59hw4lew6F1N8KfDMOoXcKzLwLClcKkc8OBA8KzTQg5w4IZcn89QmNJwrpfwrjDucOdfMODYmooaMO0w6pde8Khw5nDrBJUw4JMwqvCliwSBcK/NMKpw6PCu8K7wq4+w41XccOIw4PDoMOUw5s2w452U1bDtGXCoCrClQrDmHQJw6zDqTF8w58fa3zCmg9Iw4zDnsOXF8OWQR0uRcK7w4s2JC7CsAdLwp9uWUbCpxvDq13DjsK9w4rChTc5JVLDmwjCoMOSMMKPRsKfH2vDssKQwpHDvsOaWMOuw5fCjcK2w5zDjMKadzc/flrDpxBSwpxhw6bDlsOBwr3DrMOVPCjClmzDoQkJFjhTwpYNVsKBdsOnw6Y8wpvDncOCAx0BwrY6O8OmQMOtwrdKw67Dml7CkVI5RXIrw6/CiC5UwrfDucOXw53Drh/ChiHCjU9wHHsfwqDCmMOnw7HCiQnCiWE3V8K8wrkdw7bDg8Odw67DjUHCvMK8CsOCw6pLAcKve8O6BcK7E3zDmcOAw41THXZnRgMDXcKxw7fCnUt7dDVIwp3CpMKFEWomw47CnsOsw4sXwp7DqsKEw7PDikldGhNzwoHDthMvwp4TUsKcw4oHwrYQBsKLNTYvWsK/w4fCsMKjwrUIEn7CmA8nXsOsSjETwoLCuTMsw7PCjAhmw4LDnH3CoWfCisOCJzRGw51Mw79jwqPDmcKow6TDpcO6wrZNw4k7KcKKesKmw4B4w716wr3DmcKOw5NHblrCh8OvJsKewqXDtsOiwqzCr8OEwoYXwqdNPF/CgMKwKRhRw5TCqzBAwqDCp8O2w68mfl/DtcO4McO0wpsvVxxUecKxw57Cu0HDnsONXsOuXsK9w6PDqRccPF/Cg8Oiw6siRjDCvFzDl0XDpMKFP8Kew7rChH5fAmIIwosrdcKcJi9JwqHCqsKyw4UDwpp1wr0mSMOEGsOmwonDusO0w5vDu3Zvw7TDqnvDjhHDkhPDgMOgBEbDoCQFAHw9RkhNMETDnQ4Xw7/DtjHDvsOgwpxEwo1YwrpeN8KYf8OvGcK8w4DDvMObw5bDugdjw71xLmrCh8K5wrg/wp1Dw445BigZw4Nywo83AsOCcsOfYQnClmzCvUdcFBBxfjB5wqDDqUFpw7Vdw68nw4EMb8Kowq3Dqh9OHlhcHnFRw41uNgfCpcKtw7IswpbDtUvCj2kHTFRLwqEsZsOMwpo/E8O2Iy7CmhbDuHHDncKlwph5OMOAXMK1bH/CuXbCsGwTwp4Xw5tKdsKqw4UjLirCkVDDrjfCpMOew6LCtRkkwqE/TMOlTTLDjS97X8Ogw73ClEweccORLsOFwqXCrMK6LFYCwr/DtsKRLgpwccOZwqpzfAPCuMKLbsOTw6dHXHTClcKBwrjCsBLDhMKmw540wqUTP8KGwo4jZsKLwpZpw401w4jCmcOTIy7CultJwqLChEjDt8OEw4rDq8OSRSsFwoQ2wqpkw4nDtsOpwpDDl2zDvREXw4XDtjDCgcKLw7rCuMKWMMOSwqLDpcKFEMOWMcOGwqwDwq5XD8Ocw4ZWH3FRwrhIwoXCi8OYwprDoUpzMsKILcOkw71aw57DiMOIwrrCnAnDhcKTfcOmERc9ZkXCnMOrF8KSw7MtXsOlwotZw4VXw65Zw53CsMOqUsKxK3omPMOiwqI+C8Ohwow8BsOSw5HDn0bCq3rDhjXDvUXCkVXCoMO0A8Ofw5TDm8Owwp9IworCgMKmSQJQNE0BwpohAEnCvmVFMHI4wojDkSPDlyQpwpoZI8O5w7NIOScjw7MkGcKSQjQAOHwmaWxCUGAkwqPDtDhCQsOmw4d6PgPCnxliwrzDvsOdwqhoPMOfwrQ6woZnTsObw6V8ZsKvN8OVTsOOw7bDmcKuwrgoOsODw7XDkSMqw6oKSmspM8KiBUTCusOpwpVDO8Kvwp3CplxnwrFnw6PDnWrCpz/CosKiTlXCtMOEwrFdwrXCh2TDpkvCqkp6EsOPV8KePy3CtcK2wrPChMOwERXDtcKoI8K2S8OqwpHDtcKKw5IJL8Krw57CsMKYwpzDgiLChCnDrsOMwpkOwo/CqGjDrkLCnz9pwp3DiljDnVoxwqRsHkzCo3g/wqPCmcODEsOPw6rDthEVPWEoQ1JJG8Okw5Irw4rClMOnw4YAw5nDpcO5IcKRwrPDqTZywo1HVFQLwpLDnMKGVsOHO1ZxUMOxPAdCw4xVwqdBwpnCqSt9w5XDjR5Rw5HCuX4BwqzCsy7DiMOTMWvCisOlwrJOXMKcbMKLw4AgfR3DrQXDsMKIworDqsKjw7fCkHzDqR/CtH1oYsOMaXYRD8OnKsO2woJTw5wOwoPDpz7CosKiOi04w5NCYMKQwrDCsk17UcOsw5HDlsOmFVkPdyXClXrDtMOsR3jDncKXw6PDhMOVw6vCiAkNwpjCkX0yw7Q4w45Qw48kcx0hSETCkBjDhSBIw71YMsKKw4YUf8K9w74fMlE4w7LDtsORUGhkLAQJAEVSwq8cBsKbYGPDvsOHwpjCkcK6UDjCg8Oow5/DpTBwAikCQ8O4aFjCnMOBw7AfTEXCscOnwpfDq8O/wozDhMO8wpEywofCoiYkwoDDt2UORUwQCcOhwrh9GgPDqMOVCMOva8OYRMO1KgtndsOVTGHDp20sbMKeBBnDtMKrfcKVV8K4RMKsw77DoBrDiAlCw7jDhxjDtcO1NThqaGRaSsKdenLDh8Kfw6vCvcOmw4RUwotvw7fCuyLCpMOiwo7DrsOuw5bCgMK/TMKJPxPDuBfDpQk1OsOQw49jMcKHw6jDmzJww7TDhT7Dt1F0wp4Xw4PCnsKdwrIzw6MwcMKzwrJ2GcKFXF0qUcOpw73DtMODLcO+wrHCncO5wpZIwr7Clz8qw5xLw6Qtwq3CjwhTSsOzw73CrE5Twrt2wqdVdsOgwqzDg8OyaMKYw73ConZ8w7wiw4vDr0UyJ10jw5NdRsKywrLCqMOVwrw8IcOnBDfCncKuw6PDmsKKw4DDkMKpw7VIDlU5wpzCvkXDnhnCt8K8w47Cl8Odw7E5MEPDm8KYdVDDk8KOw4FcN33Cvj8Qw4LDisK1EMOgw4Q1w5vCvUVQTsO5NB90N8KQEkRNwpcRMMKZw5PDoXDDiGbCssKxw4ZkMygXw4Zyw7rChVx2w5vCn8OhbxFIT03DkMKdwroka8OzA8KcLsKRwr4twrnDs3EhwprDuHsvwpPDk8Kuw6vCvMKbb3bDrlAbLRYwWmXDmUUTVsOZw6Axw4nDnG7Dj1HDoMOXVcO3bsKXF8OeeRfCsTPDvTxuw6gkw67DmiYNL8OGGSrDm8KZwr5cwpzClMOcw4IQwpTCssO3w7nDli/Du8K7w5nCpQ48UcOOLMOkLzJ+wpvCngUdwrEdwrHDtjHCjVsvIsOZHsOew61pwr7DjHdbw6dmZjfDuUIFXMOpU8OkcMORA1VcATVgZsOWwqohw4PDpVsTZ8OBw60+w43Ch2vCqFwyQcONw4zCu8O5woXCicOyJcK3w5rCt8KxbynCnX3CvsKcw4vDpcO7w77DrFfDvsO4IcOHwpggccK3wpVIWWIxaMOxGE/CnGPDlcK6a8OnwqRKw7N5O8O/w67CjDQGTsOEXMOLPEDDoQgjwpjDt3w0OgcBEUYBOGYdBh99ByfCmQk2wrotwrx2H3FEw5DDlBhfwqkJw4DCiMOxPhrDv8K5PsO8woPDmyPDl3xEwo7Dl8K/wpTCklgFwqnDk8Odw5ReacK+wog6cmdjw4RhWjXDvsOpYFlUwqXDml8EXHdew6/Ci8OWMsK4wrNGBSltw44uw5bDvMKwPXJhwpkdwoYmw5jCvmh9RBg5w7F6wrzCssKlf8O0w4xELz4zc8Kmw5paOzTDnxMuaRg+AMKzwr3Dq8ONa3HDk8KNwo/DsMOXagdywrJuwobDrBrCm8O9w6UdwpnDglXClcKEfcKow5IIZ8OOwq96wpE4ZlTDh2w7wq3DpX3Ct24jL8Oaw6NFwoPCnx7CqcOSw6TDlRg0OFbCmn3CqMOiS8K+w5nDrjdSw6crwpg2w58ywrXCl8KIwoVbbsO2W0hPecOxwqEqwr7DmSvCn1Q1F8KFwpJra8KfGcKVw6PDimtYDMOtwqbDk8KowpgrZhTDkcOww6EjVSkhwqnDhhhnwqXCm8KtwqDCsVrDksKqI8KCYsOwwrHChMKOLmwkwoUiw7Jxw4jDkcKFXsOpwo9UbcO5YMO9ScKVU8OEw6wCZ8K7wqI0w5oIwrPDvcK2XQ/ChHDDsMKrLcKPwoXDjgI8UmXDl3PDixDDkcOuTsOVwoxDwolFwqvCgcK+wpcwwrQ9wp3CisOTwpbDrGjCl2PCi8O6wqAsw4PDoyNVwpYvbQ3DscKnw53CncKtw7RBcBY1w55EwrrDkxJbw59fbMKOwrQSMVjDmU7Cp8KkZcOsH8KpwqISw5LDucK0QTUrw6B8S8KYNMOySm7CmyYcTzrCqnouw5shLE96w7fDsATDhxgzcmk+XsOeVMKtwrHDuUlhwrfCjcOaH8O9AcONccK7w4o8KV4tMcOPwrAQb8ORb8Kqw5hRSh9jUD5jw5/DgFDDrMKdT2jDt13DmC3Cox0Rw4Iew4XCtC3CncKbwp3CvsKpw5oENlVqU3jDtVVbXVXDncOQHh3Dp8K2wrvDlGTDvjDDoy/CphLCqcK7EMKZS8OOw6YvBgbCm2HDuRDDrcKUYX5Sw5Umw73CvDBtwrjCuMKYVDB0JcK1wq8Wc8KvwrYlwqnDgsK1w4DDsh7Dmmp5w40qwqPCqsObCcKyw53CqsKcw47DlsKlI8OrwoPClmjDlFFKLgoKwo7Dm25Yw7c7w4rDvDrDmsK/UMOFw4wjPsKbJ8K5ZTVjWlAcwpJ3WcKzwqoDw7nCgjFjwoXDh3zDnQfCv1DDpRFWSVbDvcKMbcKpwrxjw7JZw5jCiVVhw63Cp27ClMO5wpgFHsKuworCtCTDmcKQw74sw4rDhw9VwqFYRTJfH1k5Mlc9JsKjcsOVwpfDm0bDmVDCtHROw5zCh8KqcHEjGTzDgcOdwqnDqgNJw4QqwpdcwrHCusOTaBnClzLCm1LCgmLCljfDqzVJb38fDMOfXUYxYxZHJMKDwo3DhREgKcOqLWl9HsKlwolxCMKOwqkNwpAIwpLDhMO1w40awpoQNEFfw6klwoVTw6PDgz8+YcOhBMOxXRkLfMK9w5VZYMOnGEoSwr9awq44w6EyDcOIwr5wd8OTPsKXFw0Dw6zDjR9sN8O3T8K/w7xMwr50wp3DicK7wqbDs1vDgnzDqzjDo8Ova8OQw6klw4LCscOLwqE5wq8LAWrDsylYwrHDjD7Dh8OwDV4KwpXCjMOdw7rDjV/CpcK7GHZZw6nDhEbCkW7DoMKowqZSwrrDki4AwovDu15LHcOKSlTChsOPw5jDrTLCpsOVw6kheW17GsKRwrnDlXsBwrvCi3vCscOow4zCjhFIw4jCnSPDk8Knw5k0w7FJaz53w6A8w59Dw7XCsHp7RcONTh0dw7szwr/CvMK5CHkIwqrCsxpDeTfDlsOwJCpdw4fCqcOBwpnDlnvDnjnCmUNTwrzDiMOVwotIw5XDu315Fxxpw4JTwpjDsMKkwoEaaFtjwr7Dk8KnwqFybGtbw6jCjFPDksOnw5sXOcKwwo90HcKKwpvCu0jCuMOVYMOXwrgDwqXCoDTDj1TDhsKrNjvCjCtiRRZaY8KzwoDDscKLw5zCrm3CpcKxwrLDs8OuwpzCpsOZKcOLVV3CnVbDkFVQfQRQwpktGlEPw5s2wp/Cn8KEw7Urwo0Ewp7CvcOQw7FWwrxbw6dSNcKjw43DuTh4dMKAwrdjHsKgQ8KaE2TDgMKyw6LDtsOAFzXDvyI3w5DDpU/Dl8Ouw5XDsjZfV8OFTljDqmN4w5IAwoHCnMOFYV1bcX5gw4PDgsO0FX/DtsOWDmZ5RkfDnD0ZGQQXDWQQwqbCnD7CksOUw6VJXmTDgsKxIwXCmsKswprCljNfw7fCt1dbUcK/w7wUw53CnTvCkQgceR5wU8OcUynCl17DomJrTMOjWVQwXBvDosOaK8OddSpxw6TDnWvCuMK4w61PWMOYw75wwqwOPX4Cw4FgZ8KtwovCucKsLHfCkcKwwr/DjMKOw5jDqyvDvzHCjcOKesOHwrF3csOqQMKUacOBamgWaMKFE8KVwq45TcOgwqXDqAdKIsOcS1zDvxMRwocgKcOEYARNwpM4wqQxwpoYw4MNw4bCkMKIwrw2QRkMEMKAIsOxw6fCn39vw7B3ZGkawpsAw4QwJAZGw54NScOwDMOJccKEIhDDgcOAwrEywqdfw5/Dr8O/w4DDpsODN8KCEcOxw5VgRMKmw5VCw5rDqCZ1wprDqzXCnsKbw63DgULCocOjw5t5wrnDslliw7plU8OHNSUmwp8XfsOEZMO2wpFPNmQpw7vDhzXDgsOLQcKgw5I6aMK+wq/Du2rCrsKfwp5fR8O4esK/w77DhMKFPcOvwrQzw6dKTcOQwqjDmSXCl8OlcsKqw7p2FcKLcMKtwqc2YF7Cq8OlwpsGw7PDiFjChsOAw5d3QMOUOnDCmC9qQcKgbHnDncOGIynDmmU7w5HDmwXDi8KsIsO9wrTDucKkYcOlw7cbQw3DnMK7wpBia8OWPGQOw73CucOYRMOkCsKewo/DiWbDqsKeVcKjw5DDicKow5jCsMOuJw0vw4Rkw47DsHdOO1zDmBltw6bDhMOpYMK7w4nDhcKLw6nCgj7DmRQTQ8ODw4PDpAh2w78EOMOHGg0gwopEFAHCrwBiPsO+XwlkaBxgAMOSCCcow7oZADghMMKIw5Ejw4DDhsKvMVvCjRXDn8KEQWMNCADChgBDw5A/NiHDvigEasOhwrzDmcOqw5nCqg95wrrDlMKwFWXCqsOzw5wew47DgcOSRzbDiMOPXyAwwqTDrcKMw55sa8KZR0ITwqxaPzNyWAdHw4PDr8KCecKMcT8AwoHCpW7Dg8O1woY1wpjCpRbCr0R7ITZyCsKlacOZK8KISMKPeMO7bQQuQsKTHjZkfDbDj1wRw5FrEknCnCTDri99FygQwqbDoMObCMOEw7p5XMKlcW7DhcKkwpXCk8K5w6EXW8Khw7BWQ8OvamnDqAvDqMObCGRVY1VjwoDDrzdEwpzCn8Kjwp3DkcOWwqZjw6gqwptON2rCo8KDfwrCgRQxUiocI8OHw7hHwoMPAMOiOCIQwoJjLCRGCsO2DMKuLcOZMcOiYQwCEFDDtEjDiQgGTCgGERQzRj9Ew53Cv0vDug8CHyMww4vDosOjwpQ/V8OuUcK0bMOdwrMTRcKCC8Kpw6LDlMKsSsOESMOIwr7CjcOAUMOrF8OAw5/ChyjCl2d9w4Bqw6phwrfDmnbCpkIvZMKcRAHDuW0EwpbDp8OeTMKSw63ClhcFwp/DklHCvjAYOnMFw4E5w5nDgsOBDQ7Dn0YgwpXDr2gTCMKbZhXDmsKkKjQpwr3DtcKYFmMiV2rDsgpFfzQGwo7CicO3w7diIMKOw4YQw4hMIEPCkDRJwo3ChcOACyYxOMKBECMBIHDDssKKw4DDvwDDsHsAOEDClT4aS8OLw57DtDYfw5gnLA5TBsOlJz/CrcKMUx/DiMOfBsOgw4xLLlUSZwzDpWYnZjXDuGM2Jg/DlcOew5xtw50zwr7ChcOfBsOgw4LDicKFbBHDrsKswqJIF1vCkgfCmV7CocKqYBlVKMOBwqnCmX4bwoDCuMKDJGdtw5g7w61EHm1gdQvCuWpUw4LDtMOUUDzDjcKvTMO9DyZhw7jDu8O4w4PDhxDCiCYkTcKPIcKQwoEYDsOHMsKVYMOQFwDDvMORbcOUf1MEw77CkXLCnhrCswxDwoLDkX1HwrZywq3DpsKpwpHDjkBIwowmHMKTDE7DnsK/w49RWMKlw6BOwrwEdVdTG1lpfXPCqcOPw7RKXsKwwpUkw7rDvcOvwrwzw7oZTCDCjlEYwonCg2t3YCRIw6HDjzjCuMO2wr7Cv8O2w6LDiMKYwoUUaRbChsK2wo9MZgfCncONwpRewpt+BkFySsKpwqxUwp9+w7tfdknCksKz]]></gravitDesigner:gravitGraphicSource></svg>