<?xml version="1.0" standalone="no"?><!-- Generator: Gravit.io --><svg xmlns="http://www.w3.org/2000/svg" xmlns:xlink="http://www.w3.org/1999/xlink" style="isolation:isolate" viewBox="322.224 411.413 156.51 158.587" width="156.51" height="158.587"><switch><g id="Group"><g id="Group"><defs><filter id="ZVXZ6pHXI1jRA3govqVRdDrTXQAQx6ow" x="-200%" y="-200%" width="400%" height="400%" filterUnits="objectBoundingBox" color-interpolation-filters="sRGB"><feGaussianBlur xmlns="http://www.w3.org/2000/svg" in="SourceGraphic" stdDeviation="2.146804531419514"/><feOffset xmlns="http://www.w3.org/2000/svg" dx="0" dy="13" result="pf_100_offsetBlur"/><feFlood xmlns="http://www.w3.org/2000/svg" flood-color="#1A1A1A" flood-opacity="0.7"/><feComposite xmlns="http://www.w3.org/2000/svg" in2="pf_100_offsetBlur" operator="in" result="pf_100_dropShadow"/><feBlend xmlns="http://www.w3.org/2000/svg" in="SourceGraphic" in2="pf_100_dropShadow" mode="normal"/></filter></defs><g filter="url(#ZVXZ6pHXI1jRA3govqVRdDrTXQAQx6ow)"><ellipse vector-effect="non-scaling-stroke" cx="400.47885714285724" cy="480.70628571428574" rx="71.25485714285713" ry="69.29371428571426" id="Ellipse" fill="rgb(71,71,71)"/><clipPath id="_clipPath_gJDujc1BQ8Cvx7qGbfu7oQpQ3gH7RB1c"><ellipse vector-effect="non-scaling-stroke" cx="400.47885714285724" cy="480.70628571428574" rx="71.25485714285713" ry="69.29371428571426" id="Ellipse" fill="rgb(71,71,71)"/></clipPath><g clip-path="url(#_clipPath_gJDujc1BQ8Cvx7qGbfu7oQpQ3gH7RB1c)"><path d=" M 321.379 467.632 L 349.489 449.149 L 365.178 460.021 L 374.33 439.364 L 396.557 454.585 L 420.744 442.626 L 442.317 454.585 L 445.585 432.985 L 459.967 442.626 L 495.921 439.364 L 474.349 364.345 L 294.577 383.372 L 321.379 467.632 Z " id="Path" fill="rgb(126,126,126)"/><path d=" M 330.531 554.576 L 350.797 510.777 L 374.33 529.081 L 378.253 510.777 L 393.942 529.081 L 410.938 510.777 L 422.051 529.081 L 445.585 518.622 L 470.426 510.777 L 493.306 563.728 L 330.531 554.576 Z " id="Path" fill="rgb(126,126,126)"/></g></g><ellipse vector-effect="non-scaling-stroke" cx="400.47885714285724" cy="480.70628571428546" rx="47.3912021563342" ry="46.08685714285713" id="Ellipse" fill="rgb(60,60,60)"/><ellipse vector-effect="non-scaling-stroke" cx="400.4788571428572" cy="483.4620812581914" rx="41.150080862533684" ry="40.01750982961988" id="Ellipse" fill="rgb(70,70,70)"/><clipPath id="_clipPath_VzkHlQkAy6T2UBEd9ugOgyChZHH8wgRC"><ellipse vector-effect="non-scaling-stroke" cx="400.4788571428572" cy="483.4620812581914" rx="41.150080862533684" ry="40.01750982961988" id="Ellipse" fill="rgb(70,70,70)"/></clipPath><g clip-path="url(#_clipPath_VzkHlQkAy6T2UBEd9ugOgyChZHH8wgRC)"><path d=" M 354.798 475.912 L 371.032 465.238 L 380.093 471.516 L 385.378 459.587 L 398.214 468.377 L 412.182 461.47 L 424.64 468.377 L 426.528 455.903 L 434.834 461.47 L 455.597 459.587 L 443.139 416.263 L 339.32 427.251 L 354.798 475.912 Z " id="Path" fill="rgb(94,92,92)"/><path d=" M 360.084 526.122 L 371.787 500.828 L 385.378 511.399 L 387.643 500.828 L 396.704 511.399 L 406.519 500.828 L 412.937 511.399 L 426.528 505.358 L 440.874 500.828 L 454.087 531.408 L 360.084 526.122 Z " id="Path" fill="rgb(81,81,81)"/></g></g><defs><filter id="qsuGGWdy3oUV8uy37tAnOhDr7dvFaXnh" x="-200%" y="-200%" width="400%" height="400%" filterUnits="objectBoundingBox" color-interpolation-filters="sRGB"><feGaussianBlur xmlns="http://www.w3.org/2000/svg" in="SourceGraphic" stdDeviation="2.146804531419514"/><feOffset xmlns="http://www.w3.org/2000/svg" dx="-5" dy="5" result="pf_100_offsetBlur"/><feFlood xmlns="http://www.w3.org/2000/svg" flood-color="#000000" flood-opacity="1"/><feComposite xmlns="http://www.w3.org/2000/svg" in2="pf_100_offsetBlur" operator="in" result="pf_100_dropShadow"/><feBlend xmlns="http://www.w3.org/2000/svg" in="SourceGraphic" in2="pf_100_dropShadow" mode="normal"/></filter></defs><g filter="url(#qsuGGWdy3oUV8uy37tAnOhDr7dvFaXnh)"><path d=" M 374.94 485.091 L 373.479 472.971 C 373.215 470.779 374.211 467.679 375.703 466.051 L 376.567 465.109 C 380.669 460.633 387.361 455.88 391.5 454.5 L 391.5 454.5 C 395.639 453.12 403.647 453.643 409.371 455.667 L 413.142 457 L 420.578 461.732 C 420.811 461.88 421.172 461.857 421.384 461.68 L 426.616 457.32 C 426.828 457.143 427.022 457.223 427.05 457.498 L 428.95 476.502 C 428.978 476.777 428.777 476.979 428.502 476.953 L 408.498 475.047 C 408.223 475.021 408.158 474.842 408.354 474.646 L 413.646 469.354 C 413.842 469.158 413.806 468.887 413.568 468.749 L 411.462 467.525 C 406.212 464.476 398.589 463.792 394.45 466 L 394.45 466 C 390.311 468.208 387.36 474.912 387.864 480.962 L 387.958 482.089 C 387.981 482.364 387.782 482.638 387.513 482.7 L 375.487 485.475 C 375.218 485.537 374.973 485.365 374.94 485.091 Z " id="Path" fill="rgb(181,122,85)" vector-effect="non-scaling-stroke" stroke-width="3" stroke="rgb(60,60,60)" stroke-linejoin="miter" stroke-linecap="square" stroke-miterlimit="3"/><clipPath id="_clipPath_1qGX7upNcnKViQlHSqoGaq1HdjaZhMBh"><path d=" M 374.94 485.091 L 373.479 472.971 C 373.215 470.779 374.211 467.679 375.703 466.051 L 376.567 465.109 C 380.669 460.633 387.361 455.88 391.5 454.5 L 391.5 454.5 C 395.639 453.12 403.647 453.643 409.371 455.667 L 413.142 457 L 420.578 461.732 C 420.811 461.88 421.172 461.857 421.384 461.68 L 426.616 457.32 C 426.828 457.143 427.022 457.223 427.05 457.498 L 428.95 476.502 C 428.978 476.777 428.777 476.979 428.502 476.953 L 408.498 475.047 C 408.223 475.021 408.158 474.842 408.354 474.646 L 413.646 469.354 C 413.842 469.158 413.806 468.887 413.568 468.749 L 411.462 467.525 C 406.212 464.476 398.589 463.792 394.45 466 L 394.45 466 C 390.311 468.208 387.36 474.912 387.864 480.962 L 387.958 482.089 C 387.981 482.364 387.782 482.638 387.513 482.7 L 375.487 485.475 C 375.218 485.537 374.973 485.365 374.94 485.091 Z " id="Path" fill="rgb(181,122,85)" vector-effect="non-scaling-stroke" stroke-width="3" stroke="rgb(60,60,60)" stroke-linejoin="miter" stroke-linecap="square" stroke-miterlimit="3"/></clipPath><g clip-path="url(#_clipPath_1qGX7upNcnKViQlHSqoGaq1HdjaZhMBh)"><path d=" M 371 438.587 L 377.95 477.587 L 377.95 456.587 L 383 469.587 L 383 492.587 L 389 460.587 L 405 498.587 L 394 443.587 L 407 461.587 L 413 446.587 L 419 470.587 L 440 447.587 L 371 438.587 Z " id="Path" fill="rgb(181,85,85)"/></g><path d=" M 374.94 485.091 L 373.479 472.971 C 373.215 470.779 374.211 467.679 375.703 466.051 L 376.567 465.109 C 380.669 460.633 387.361 455.88 391.5 454.5 L 391.5 454.5 C 395.639 453.12 403.647 453.643 409.371 455.667 L 413.142 457 L 420.578 461.732 C 420.811 461.88 421.172 461.857 421.384 461.68 L 426.616 457.32 C 426.828 457.143 427.022 457.223 427.05 457.498 L 428.95 476.502 C 428.978 476.777 428.777 476.979 428.502 476.953 L 408.498 475.047 C 408.223 475.021 408.158 474.842 408.354 474.646 L 413.646 469.354 C 413.842 469.158 413.806 468.887 413.568 468.749 L 411.462 467.525 C 406.212 464.476 398.589 463.792 394.45 466 L 394.45 466 C 390.311 468.208 387.36 474.912 387.864 480.962 L 387.958 482.089 C 387.981 482.364 387.782 482.638 387.513 482.7 L 375.487 485.475 C 375.218 485.537 374.973 485.365 374.94 485.091 Z " id="Path" fill="transparent" vector-effect="non-scaling-stroke" stroke-width="3" stroke="rgb(60,60,60)" stroke-linejoin="miter" stroke-linecap="square" stroke-miterlimit="3"/><path d=" M 374.94 485.091 L 373.479 472.971 C 373.215 470.779 374.211 467.679 375.703 466.051 L 376.567 465.109 C 380.669 460.633 387.361 455.88 391.5 454.5 L 391.5 454.5 C 395.639 453.12 403.647 453.643 409.371 455.667 L 413.142 457 L 420.578 461.732 C 420.811 461.88 421.172 461.857 421.384 461.68 L 426.616 457.32 C 426.828 457.143 427.022 457.223 427.05 457.498 L 428.95 476.502 C 428.978 476.777 428.777 476.979 428.502 476.953 L 408.498 475.047 C 408.223 475.021 408.158 474.842 408.354 474.646 L 413.646 469.354 C 413.842 469.158 413.806 468.887 413.568 468.749 L 411.462 467.525 C 406.212 464.476 398.589 463.792 394.45 466 L 394.45 466 C 390.311 468.208 387.36 474.912 387.864 480.962 L 387.958 482.089 C 387.981 482.364 387.782 482.638 387.513 482.7 L 375.487 485.475 C 375.218 485.537 374.973 485.365 374.94 485.091 Z " id="Path" fill="transparent" vector-effect="non-scaling-stroke" stroke-width="3" stroke="rgb(60,60,60)" stroke-linejoin="miter" stroke-linecap="square" stroke-miterlimit="3"/></g><defs><filter id="IOqiq3U2bZnEENwI9JamSObKrfVbQvsf" x="-200%" y="-200%" width="400%" height="400%" filterUnits="objectBoundingBox" color-interpolation-filters="sRGB"><feGaussianBlur xmlns="http://www.w3.org/2000/svg" in="SourceGraphic" stdDeviation="2.146804531419514"/><feOffset xmlns="http://www.w3.org/2000/svg" dx="-5" dy="5" result="pf_100_offsetBlur"/><feFlood xmlns="http://www.w3.org/2000/svg" flood-color="#000000" flood-opacity="1"/><feComposite xmlns="http://www.w3.org/2000/svg" in2="pf_100_offsetBlur" operator="in" result="pf_100_dropShadow"/><feBlend xmlns="http://www.w3.org/2000/svg" in="SourceGraphic" in2="pf_100_dropShadow" mode="normal"/></filter></defs><g filter="url(#IOqiq3U2bZnEENwI9JamSObKrfVbQvsf)"><path d=" M 429.013 482.984 L 430.474 495.104 C 430.738 497.296 429.742 500.396 428.25 502.024 L 427.386 502.966 C 423.283 507.442 416.592 512.195 412.453 513.575 L 412.453 513.575 C 408.313 514.955 400.306 514.432 394.582 512.408 L 390.81 511.075 L 383.375 506.344 C 383.142 506.195 382.781 506.219 382.569 506.395 L 377.337 510.755 C 377.125 510.932 376.93 510.852 376.903 510.578 L 375.003 491.573 C 374.975 491.298 375.176 491.096 375.451 491.122 L 395.455 493.028 C 395.73 493.054 395.794 493.234 395.599 493.429 L 390.306 498.722 C 390.111 498.917 390.146 499.188 390.385 499.326 L 392.491 500.55 C 397.741 503.599 405.363 504.283 409.503 502.075 L 409.503 502.075 C 413.642 499.867 416.593 493.163 416.088 487.113 L 415.994 485.986 C 415.971 485.711 416.171 485.437 416.44 485.375 L 428.466 482.6 C 428.734 482.538 428.98 482.71 429.013 482.984 Z " id="Path" fill="rgb(181,122,85)" vector-effect="non-scaling-stroke" stroke-width="3" stroke="rgb(60,60,60)" stroke-linejoin="miter" stroke-linecap="square" stroke-miterlimit="3"/><clipPath id="_clipPath_XVgckGNXPXwVrv9kQKOgC6NHkVoEbfUX"><path d=" M 429.013 482.984 L 430.474 495.104 C 430.738 497.296 429.742 500.396 428.25 502.024 L 427.386 502.966 C 423.283 507.442 416.592 512.195 412.453 513.575 L 412.453 513.575 C 408.313 514.955 400.306 514.432 394.582 512.408 L 390.81 511.075 L 383.375 506.344 C 383.142 506.195 382.781 506.219 382.569 506.395 L 377.337 510.755 C 377.125 510.932 376.93 510.852 376.903 510.578 L 375.003 491.573 C 374.975 491.298 375.176 491.096 375.451 491.122 L 395.455 493.028 C 395.73 493.054 395.794 493.234 395.599 493.429 L 390.306 498.722 C 390.111 498.917 390.146 499.188 390.385 499.326 L 392.491 500.55 C 397.741 503.599 405.363 504.283 409.503 502.075 L 409.503 502.075 C 413.642 499.867 416.593 493.163 416.088 487.113 L 415.994 485.986 C 415.971 485.711 416.171 485.437 416.44 485.375 L 428.466 482.6 C 428.734 482.538 428.98 482.71 429.013 482.984 Z " id="Path" fill="rgb(181,122,85)" vector-effect="non-scaling-stroke" stroke-width="3" stroke="rgb(60,60,60)" stroke-linejoin="miter" stroke-linecap="square" stroke-miterlimit="3"/></clipPath><g clip-path="url(#_clipPath_XVgckGNXPXwVrv9kQKOgC6NHkVoEbfUX)"><path d=" M 432.953 529.488 L 426.003 490.488 L 426.003 511.488 L 420.953 498.488 L 420.953 475.488 L 414.953 507.488 L 398.953 469.488 L 409.953 524.488 L 396.953 506.488 L 390.953 521.488 L 384.953 497.488 L 363.953 520.488 L 432.953 529.488 Z " id="Path" fill="rgb(181,85,85)"/></g><path d=" M 429.013 482.984 L 430.474 495.104 C 430.738 497.296 429.742 500.396 428.25 502.024 L 427.386 502.966 C 423.283 507.442 416.592 512.195 412.453 513.575 L 412.453 513.575 C 408.313 514.955 400.306 514.432 394.582 512.408 L 390.81 511.075 L 383.375 506.344 C 383.142 506.195 382.781 506.219 382.569 506.395 L 377.337 510.755 C 377.125 510.932 376.93 510.852 376.903 510.578 L 375.003 491.573 C 374.975 491.298 375.176 491.096 375.451 491.122 L 395.455 493.028 C 395.73 493.054 395.794 493.234 395.599 493.429 L 390.306 498.722 C 390.111 498.917 390.146 499.188 390.385 499.326 L 392.491 500.55 C 397.741 503.599 405.363 504.283 409.503 502.075 L 409.503 502.075 C 413.642 499.867 416.593 493.163 416.088 487.113 L 415.994 485.986 C 415.971 485.711 416.171 485.437 416.44 485.375 L 428.466 482.6 C 428.734 482.538 428.98 482.71 429.013 482.984 Z " id="Path" fill="transparent" vector-effect="non-scaling-stroke" stroke-width="3" stroke="rgb(60,60,60)" stroke-linejoin="miter" stroke-linecap="square" stroke-miterlimit="3"/><path d=" M 429.013 482.984 L 430.474 495.104 C 430.738 497.296 429.742 500.396 428.25 502.024 L 427.386 502.966 C 423.283 507.442 416.592 512.195 412.453 513.575 L 412.453 513.575 C 408.313 514.955 400.306 514.432 394.582 512.408 L 390.81 511.075 L 383.375 506.344 C 383.142 506.195 382.781 506.219 382.569 506.395 L 377.337 510.755 C 377.125 510.932 376.93 510.852 376.903 510.578 L 375.003 491.573 C 374.975 491.298 375.176 491.096 375.451 491.122 L 395.455 493.028 C 395.73 493.054 395.794 493.234 395.599 493.429 L 390.306 498.722 C 390.111 498.917 390.146 499.188 390.385 499.326 L 392.491 500.55 C 397.741 503.599 405.363 504.283 409.503 502.075 L 409.503 502.075 C 413.642 499.867 416.593 493.163 416.088 487.113 L 415.994 485.986 C 415.971 485.711 416.171 485.437 416.44 485.375 L 428.466 482.6 C 428.734 482.538 428.98 482.71 429.013 482.984 Z " id="Path" fill="transparent" vector-effect="non-scaling-stroke" stroke-width="3" stroke="rgb(60,60,60)" stroke-linejoin="miter" stroke-linecap="square" stroke-miterlimit="3"/></g></g><foreignObject requiredExtensions="http://ns.gravit.io/"><gravitDesigner:gravitElementRef xmlns:gravitDesigner="http://ns.gravit.io/" xlink:href="#jI1fgjhmVzmdjJUCR9EkcIpsdBo1k3Qv"/></foreignObject></switch><gravitDesigner:gravitGraphicSource xmlns:gravitDesigner="http://ns.gravit.io/" id="jI1fgjhmVzmdjJUCR9EkcIpsdBo1k3Qv" version="1"><![CDATA[eMKcw63CmWlvw6NIwpLChsO/wotnwrFfw5bDrcOhfRTDkMOAUjxEwonDok1RJAfCjQHDr8O7EMOFe8OQw799KXfDiXLCuUs9VcOTwrXDgC4wNiXDkCTDn8OIYGRGw6TCk8OpfzzDvcO3w5PCp8KnwrjCrcO7w6bDqcO5w6k/wp4+w73DrR8Pwq7ChEXCkTbCl8Owwotrwo3DmyXDqwXCv8KoL2HDsMO0wqlrw7vDsMO5wqnDqS7DqwN/e8KiKMOmwqjCjhTClcOmw6LDj8OrQ39ZP3rCinJVwrNvw7JQwq9Ew6NEZzvCq1fDjMOgUAvCo8KUW8OAw7nDqcKXw6dVwrdjwprCq8OOwr/Dq1LCqXITEsKfYj9Pw6rCvAzDo8KswprCqMKLw6vDgMKBw4fDpcKxf8K6w6nDgMKrLgbDnnRtw47CosOYIVrDmGJpw4EeYBDDqnzCjgZiwrTDkMOZZzQ3wr3DqcKIwqvDjmbDn3TDmmXDjMO3LMOCTcOteMOCw5VBwrDCjWjCgMOyVMOnNhDCj8OvG8O4N8KdSG01worCosKiwrvCjijCqcKJwpVUw5Jhw7PCk8OBYcOzXsKtI8O4XMO7NCADS3LDvsOsJ0XCqVfCnXN/P8ODw6d1wr9ECcOSMcKkw67DoGTCsirDoMOEwqXDlsOzwqPCjUfDkiLDvcKmYynDu2N7w7nCksKZwpXDnQ3CvcOsw5jDqsKSFsKOw4vCmEkJw5LCsMKaw6rCucOQfX4/w4rDkSjCkDXDr8K6wrHDqMOPMsOENGBuKcO2wqUzdQ1Sw7XCjURxMQXDryzDicK4w7kZfcOww5PCrl3CjsOUw6kCVMKbDABMwqchI3TCgMODEsKxTHXCmMOlw7EWwpfDi1XDty7CnsOyeRjCtMOIw58ywqROwprCjD3CnsKHw7ZIw4PCsF4sw5bCiMKefMO7w6ZnfsOVwrXDrMOuwqbCqxfDiggcETgcwphiTjk8w5Atw4Ylwo9efsOOwoFtRkXCn3XDtF/Cr8O9R8OkbzrDmsOMSTDCmzk5w4BHwo0KBMKbOAXCmzPDihdYw4rDinrCuTzDvcOyw4s6OMOCwqjCm8K6wqdPVV8Uwq9/wrnClcKfw5TDrXXDsMKud8K7NlpPwoAXDMKFcRDCgQjDtMOzw7czcMO9fUERGANRAMOGURImCcO0GUFeIADCuT0EwqLDiDMMw6IvKMKJQAjCiUEIwoABw6Bqw7TDr8KXYMK1worCg8OrWcOhw47DocK1wq1bIsKlVXfDuMOtw5LDuwTCi8OSwqJQw57DrsKtwrfDvsOewqweP8ORf8O5Gwhhw4/Cnz/CvzzDvcK6w5rDvsOPwqsZa8KmwqrDrTTDj10cwpnCgR7ChXQjwrDDvG4vw4BSwrQ1ZsOyw6nDl8OVQhhFwrvDoGpEccOawo4EYcKSwqdhOyJtwqBSw6FNw67DrWF4OBLCkMOOwq8Pf1vClgfDqkhTw4U9w6vDsh0hJU4Wwp3DlMOeQ8OEwoNSKlTDpMKcDcOzEmgTwqhEw4Etw6suw5dew7PDrsKjwqTCisOUUMOeEhbChsOKw510csKOE8Kvw5cbwoPCjsKXwp41LTweb8K6w7/CusOqwpJ3w5nCimInw4vCt8O5wqQdEAfDhmwmZGPDiTA8wpUlDnthV8OeRiV1HV3Dr8Oaw4PChMKKw6vDkXzDkcKAXMObFsOHICLChzpuwoY5w67DimjDgsKLw7zCiyx/w5fCnsK5dXzDkGDCicK+wqYOasOow4jCksOPOhwOFWTDpsO5wpVpwp5vw5kqfWjCj8OYwpl6Q8K1EwDCuXrCt3Frw53DjRpLScO0w4XDsTgSwr1Ywrcsw5A+wrTCtwfCuU7Cm20XY8K5OMOLcsKjOHPCgXTCmsK3cm3Di8OiwrlNbjrDt8KqC8OvwrojwrPDtXJIw4/CkQbCosOOZsKhGMOuNMKJw5TDoXhGw4FCwpTClcK3asKUf8O0cwTCpgjDmMKkNjZAwoDCrcKiw4LDiVXDtsKWw45GJhvCgsOuMsK/w4tywprCqsOuw5UBT8ORw4YNw4LCgjjDgMKGSsKUKMOfwogswrDDgcKxwrHCvMOIw7hawpDDvnzDlsO9w64yAsK+wqxVw7PDrRpMPsODKMO2woICw4BbJiLDqD3Dr8KAH8Ked8KfM8OEwqvDmyBswr8UeMOjw5Mnw6DCncOww7UNw67CqcOqUMOrwqQywpPCiMOLT8K+wrMMwrnCqyBYwrnDn2nCoWLCgFRpLV/CpMKqE3LCrVPCuDjDgMOXW8OcT8K9wpjCg8O2cXHDiMKoZjsfKcONfMK1w7otwpHDhcOBFwhFw57DogdCwq/CgcOFw4gXwoh8F1nDshkBwoAXBCfDnh7ChMKQZ8KEAF5wAMK7Bx/DucKxBW01w7J6w7zDs8KowqLDr1QYw7bCjMOBw6vDscOLw7XDpsKwNh/CucOFJcK8BcKZLcKsXcKvSnxHw7NMF3M7OMOsGsKSw6fDlTYMCHjDgsKSW8KQb17Cr8KnwqHDn33DqXHDkMOWwo3CnsK4QT3CssKvd8OXwpvDs8OTJxB+wr7DlsOFw5/CnFjCh8ODw6txdcKibsO8wrXDn1/DsMKbCwQJHTdnFcOEw5ElbWTDucKww457OMOlel3CkMOyF8KkTsOlwqdfb8KvewfCrG/DqUkEf8KBSRACIBDDhWAYw7nCrSMRw6wFIMKwe8O3woLDn8OSwpEIw7ZjOxJbB8OUw7XCuMKPw7Vvw63ChsOXwrHDvsOPA8O2wrt4w73Dq0DCusKEw73DtlgfF0wTwpPDpMOIexfDsBgpw5vCjcOXAzMaw7fCgMO3CEjDt3JEw4hgMMK1w54pw5ttGAbDryfCgzvDpMONw6zCsAdAwpTCskdAairCscKmw5fDp8K0w50iOsOEeALDkSEDw4XDj8OddkzDvXHDmMOvHwHCqV/DtsO1wqLCmsOZwrQvw5ADKGbDhSY8wq8NwrJMw6QfPcKdZx8BwqnDm3IpDMODRlYVwpg7NXLDo8O2wqnDjcKjw5Bxwop1PsKOLsKPwoBUwrDCqXDDrcKuwoxXAUwqw7DCmDBMRcKLw5AtUWVHKsKPwpZHQMKaw5Amw69SRMOYV8KVJcK2EsKvw4hTS8OhwrXCnEV2OcKpY8O+CEgRCcOSwqPCpTrCmlPCuHbDg8KFw7NVSQjDgsK6wr/DtMOgwobDtUPDpxHCkE59w5TDuMKJwpvCgMKlF8K2woUbw5PCmipVwrpUF1LCvcKcw7Jsw7sISDPDpsOQWgkBVQzCjWwZwpPDoMKWw7DDrMKFPgY6wq0TwrHCocO8CEjDo13DlidkTQ5GecK8wpRaw442w7YpwoHDj8ObRVzColzCpsKDwodAOkbCtcKdw4QnD8Kud8KGKMKhEifDjW4fEcObw73DvsK0PUrDoHdMwo0wwo7CoxDCjMOhOAbDoyQEwqPDqMOnwrkRXkkOAcOwFThRDCfDl3LDvgzCksOICw4RCAoRMAASBAE+w4PDhFrDqjF4RVLCnMOAw5fCqRLDvsKxwqlPIsOPJMK0HsO/w5fCiMOUwoXDusOcw7fCuMO9ZcOrbMOlNcKJw7Ixw6PCi8Oqw4BmO2HChMOJcXhEwqTCm8Oaw7YYwrY9wqnCkMKswoUXRTDDuAPCusKwwpvCsFERHsKvw7HDpRHCkWYiBMOKccOXwrvCpcOnUsOiw5gvdsOnw6PDkUUPNcOlAGzCtsO1IyJ1UsK3w4zDpcOTIcKMQcOow4jDtAAVQsOgwp46w5YsGVxUUMKNHxEpw6cKw6LCshnDqiPDiMOyw7kgwrUswoMkwo3Ctg44wqvCtn0DJx4RwqnDnFzCsGPCncKIwq7Dn8OOwoLCvSXCk8O4AMOkAE56AMKVZgRYPCLDksODYsKmwqnCrMK2NMOUw7EGw4PCjMKyIsKvCMKNwqrCoGvDl8Kqw4w9JFLCr8KHw6gtR8OuGSvDpFHDhsKNEcKPwpzDqEtiwo4WEMKGfjg/IlLDp8KYw44aD8O6woHDhQJlOiQBw5Fww6pOw67CtRbCicKWwposHxHCqcOUN8Kbw63CqHpuw4NBJDJJSQYlw5V0wqrChEjDmMKlZjzDvMKIwrTDu8OyOnRNO8O4BQIJGCVAwpBcwq/CrsKTMAjCvsOgMMKEEhAKYMOrasKRw7zCsUjCusOmw7XDq8Oxw7/CkEdXfl9Xw5EAwrFSC8KEw4IwwoZiwr9xDMOwAsKsAADCkAREYiBJw6DCv8OnwpgVY8OgFwTCgwACXAMLwpLDoMKPw4ZRw6DDucO1w7hfwqPCmH9hwrUDYcOAwrrDnFlDw7HDucOnWsOPwpEXDATDnsKeIX55w6fCgxEGZxPCmcOoAAvCmcO6JMKTUzdbwobDiTgRZMKTQ0oOH8OLw6nCt2LDlMKOfsOFwprDs8OxLcOPGsK6NsKRRmwKwpXDjMKtAsOYw7gbLMKTD8OQacK5RMOqwrYGw4XDl8O8LMKHEnnCrcOLd8OdwqYHO8OkIDJzwoUOw6bDiQzCucKlwq7Dgj5pccKeWzzCqMKvw5/DqSjCqn5XX8KpFsKIF8KoDzNIRMKnw4jDhwvDpcKQwp4dwp9hwodtwoLCgMK3wp0CGsK/wrZXw57Dm1PDjyUJw4/DjilqFQHCkgjDpGTDqEdxScKwIcONFhLCsA7Dr3QUwpXDncOrSH88wrvDiTRkQl7Dp3ZOwqrCjMK7w6rCuMKDw6jDlsOBcMKKRcOswqZ7wp0Hw57DlR/DlSVYCnFJwpJLFlQIMsOTWigvwqPDjsKnw5DDqWoLw7Nvw7PDh8O2FUvDr8OzwpVqwrhZOmoawpzCisOpUizDniQLwofCvsKbCwBswpw5w6rDu8OPdcKSw5lcw5/Cr8K5wrdHdsKsPcKpw6k4w7nDs34CwoV4wqvDhcOUwpgWwrk7w5jCqsOde2/Du8Krw7xVV8Odw6PCosOsw4s4X0kPw5zDq1zDq1vCtHxpIcK8EQ3CuQfCtW7CkMOfw6Y5w6HDqmdzw5fDkTLCkMOzFVnDk8Kyw4bCtcOtOsOIPRtkw6PChcKrZD4zIxnCvcOpwqTCq8OuXT9sdztLE3rDl1LCk8KzSicLZsOsw63DosOcbsO0CMK3wrEiens/w7vDtcO9w57DjVfCs8OpwoDDqTTDlEZEHxdxNHXDilIpwqvDkyvCllN8R8O4w6Z6DsK+wqbDmE9rw5V8XivDt8KaVMO4W8KeYT94wr/DoFrCmsORw7XDuMOnw5UZw77CusOsawtbXsKlelQ0RAE5w4JkwqlzwpzColbCncK6w4fCqi7CtMKbDRp/UcKLwrZHcAkvWcKrwotGbEwWwo1SekBzwozDlMKCw4djw4Iew6zDl1rDtDDDl3F1w6EPw6/DusOuXGJAw53DucKjwrrDrMKNLEdgw53CvhBnworCnXl2dgxZBcKuw4Niw73CrBM4wqXCrMK9TjHDhMOPwrfDtMOAwq7DncKZw59NwqELLC4CYW4ww5vCmEvDiMOSw5LCvinChFwOw7HCqHDCqsKMfjNFU8OqailmwqnCn28jwoPCusKaesKXMSbDhMO2Y8KTFRRTwrYYw48Rw4EYQ8KWwo5HO8KVwqHCl0xQw65ewo3DqmpLZMOZwp/DnyXDg8KafHfCrwAPaBTCtMOPTMKHVlZAwo/Ct346JVl3w7IQwoPDncOYw7rDssOIwpTChB7DpA9ew6VmGMKFw53CpcO0w6bDiDLCjynCqMKNRXjDjsKmAcKDbMKrw4sVw67DpsKCw77CocOew6zDlcOoSHd9wqXDhGcZIMOUQhpsw4zCpiPCocKLw7nCpgbDj8O7w4cxZsOMDy4Aw6h+IWBMTCLDtsKCwrRpwqjDpX7CpcKhw7tpwpBpw4bDhcKMw6QPTMKdPlRrw4HCnXY0LCTCsDR1MCzCqU0ODMOHIcKcwo/DimnClnxheWjCimLDhFdTw7dEVholw7PDpcKzwpbDrBUmMMOKw63CrMKkw6fCoMOwMsKRG8OlScOMw6c/MMKlfBhEw7AGImLDtcKAw5klLsOBw47CuFPCvQZswrfDgBROLBEIw4DDsMOIVDlUwrsPYcK/JMKXDcK8B8O5XsKIwojCkMKBCTYpd8O2wrpswojCmwtYcsKaw77CqMOnw4vCqsOaXE3DpXdTw6xOQ8KdKMOpwqzDpVgDDgRlwps2w6RoFDQTIxMyNng4HinChlYXw65Qwr7DnxY/wrMCK3tCAANpw69lQsKyV8KzBG46woLCrU3Cn8O/w7pgw7jCrjp4w70GccOiBXjDvwPDv8O4OghCw5B3F8OCwq/DrCbCmQsRQsOrMsKHRcOZKjnCpsOIwonCsyJGEjEQw6bChMO9LMO+wovCm3rDk8OTwqfCn8OQw5fCvT3DtMOdw5bDnmdKw77CvMKvB8OefMKQZ08ewo9gwq7Dr8Kqejtgw6VhT3kMEcOOw6TDicK2CmF7wrnDr8Oqw71pwrZSbcOlw4hSdSNdLsOVwoLDm8K4eWnDvcKiRcKGLG/DkcOZY8KBwodsVSwBeVJId8OcBVMfB8OxZWPCocKMD3fDhFDDsDsBfcOEVjDCvFUsw5XDkxbCoyzCgEVqN8O7w67CrEE7worDnMKpWz/DhMO0R2zDlRkbwrnCnxXDjMKCcsOmKMOWwrVVVEHCgmFbw5bCt8O2w4rCnh4fwrFVTATCuAXCsFvCojHCulzCjS5Gw6oBw6TDhsOqw4vDhcO1wo/ClMKvPWTCqwoyenXDqFzCrcOLwqLCkHYIw40Ww63CgcKUwpDCqsKawoXDrsK0e8OEViXCsEx9wogPI3c6wrkxwr7Cr8OPw4ECTsOdJsO0PTXCjsOMw6URW8OFwooxw7oMwp83fcKgwow+w5DCq31UwovDscOGwp3DjsKLAwdkw7HCiMKtwoTCvcKUD2dxZMKnNMOqFMOLMTVZPMOYw5pCaMKOZcOUw6fDrhFbOcKXw70uw5gbFMKZwosEEBFNwrbDrcO0QsOTwqDDqUzDkR3CnG8ewrHClQPChirCji3CtsKEwpI9wrTCgcKYPMOwByrDqyFEw5/CjRvCq8KLH8KxwpXCmsOZJsKPasOhdiPDtMKGABoZwrIPwpkVYCFUOElxwo5/c03DucOpVlRwEn0hUQjDhwACWcOXw4Yrw47CrMOLwrQXwoTDgDFsXcOzw6EYRALDv8KGwq0/woYtwpHDmVTCg2QPw5NOcsOyw4lpA8KPw43CjwLChCxRYsKMZXDDuQ7DmMKiQzpvaxLDrFN6YcKNw6HDgi4mw4FHCEjDmGbChh8Ow4h3w4DClnzDmcO2GjXCp8KLfsOqOsOEwqrCkVxxwrfCjsOkIFrDqcOYPsOofgdsZVQQw7lQwqTClMOnw5A6w60oecKfw4tZwoUowqFJSsKaTMOtw6ZHwqbCvgJbw6phdjLDn8KCwoIkw4x0woPCpcKnY0hGGh9rLcOlw7fChw3DsQjCtsOcw4nDgGbDnwLCkcOIwqrDnXFDwoYrw5wgwqNJwqzCpQNnw6Iew70Ow5jDqjbCpsOvFwMYw5UVEsObEcKnCMKxw4Z7w6IgayRKHcKIw4dYw7N7w5gCw48KSBojWGdgVQ7CpMKVZVVZwqnDvgTDsmvCpWTDoMO+O2DCi8OyNzskwqTChiRyDMKyw4rCisK9w4TCnUdRSFFFUG3Cog/CvwPCtiZLdx1APS9Kwpgzw6YFw47CnMOBDMOCcyrCnkVlacOHwodgw7oVw5jDijtSwq1KwrHCi8OFTWx4w70AcMO8ZhZxEMKbwpJ5ai7DtXfDgBYVIsOIJsOOw5TCiDUaMjjCoTHCvS99UiUoYsOJwqPCisKkH8KZw7oKbAF+woRkEi/DusKLAF4qasKawptywqTDj8K+AB4xXsKadcOuw4/DgMOWT8O3VScAf8Kowow4CcK8AMOXHS8YXU9RHMO/N33DvSnDusO6CsOhw74EIi8ICMK9w71zFMOGwr7DmC07bcOtw4XCs8O8wooLwo3DpsOiE8OswpxvwrLCtcK4wrVTw4PDjcOBdiXDtl/DvwdkM2HDtw==]]></gravitDesigner:gravitGraphicSource></svg>