<?xml version="1.0" standalone="no"?><!-- Generator: Gravit.io --><svg xmlns="http://www.w3.org/2000/svg" xmlns:xlink="http://www.w3.org/1999/xlink" style="isolation:isolate" viewBox="751.745 33 156.51 158.587" width="156.51" height="158.587"><switch><g id="Group"><g id="Group"><defs><filter id="tVZSnn0LZM4YU0pPt0DUAgYrmXi5qJ3r" x="-200%" y="-200%" width="400%" height="400%" filterUnits="objectBoundingBox" color-interpolation-filters="sRGB"><feGaussianBlur xmlns="http://www.w3.org/2000/svg" in="SourceGraphic" stdDeviation="2.146804531419514"/><feOffset xmlns="http://www.w3.org/2000/svg" dx="0" dy="13" result="pf_100_offsetBlur"/><feFlood xmlns="http://www.w3.org/2000/svg" flood-color="#1A1A1A" flood-opacity="0.7"/><feComposite xmlns="http://www.w3.org/2000/svg" in2="pf_100_offsetBlur" operator="in" result="pf_100_dropShadow"/><feBlend xmlns="http://www.w3.org/2000/svg" in="SourceGraphic" in2="pf_100_dropShadow" mode="normal"/></filter></defs><g filter="url(#tVZSnn0LZM4YU0pPt0DUAgYrmXi5qJ3r)"><ellipse vector-effect="non-scaling-stroke" cx="829.9999999999998" cy="102.29371428571429" rx="71.25485714285708" ry="69.29371428571429" id="Ellipse" fill="rgb(71,71,71)"/><clipPath id="_clipPath_s0IMiLMGvppcuU4RzOJdzYLPxsqF5a1s"><ellipse vector-effect="non-scaling-stroke" cx="829.9999999999998" cy="102.29371428571429" rx="71.25485714285708" ry="69.29371428571429" id="Ellipse" fill="rgb(71,71,71)"/></clipPath><g clip-path="url(#_clipPath_s0IMiLMGvppcuU4RzOJdzYLPxsqF5a1s)"><path d=" M 750.901 89.219 L 779.01 70.737 L 794.699 81.609 L 803.851 60.951 L 826.078 76.173 L 850.265 64.213 L 871.838 76.173 L 875.106 54.573 L 889.488 64.213 L 925.442 60.951 L 903.87 -14.067 L 724.098 4.959 L 750.901 89.219 Z " id="Path" fill="rgb(126,126,126)"/><path d=" M 760.053 176.163 L 780.318 132.365 L 803.851 150.669 L 807.774 132.365 L 823.463 150.669 L 840.459 132.365 L 851.573 150.669 L 875.106 140.209 L 899.947 132.365 L 922.827 185.315 L 760.053 176.163 Z " id="Path" fill="rgb(126,126,126)"/></g></g><ellipse vector-effect="non-scaling-stroke" cx="829.9999999999995" cy="102.29371428571423" rx="47.3912021563342" ry="46.086857142857106" id="Ellipse" fill="rgb(60,60,60)"/><ellipse vector-effect="non-scaling-stroke" cx="829.9999999999994" cy="105.04950982961991" rx="41.15008086253363" ry="40.01750982961987" id="Ellipse" fill="rgb(70,70,70)"/><clipPath id="_clipPath_Paldy5R6qy9s0DscH7VJYZK9N6cUrFpj"><ellipse vector-effect="non-scaling-stroke" cx="829.9999999999994" cy="105.04950982961991" rx="41.15008086253363" ry="40.01750982961987" id="Ellipse" fill="rgb(70,70,70)"/></clipPath><g clip-path="url(#_clipPath_Paldy5R6qy9s0DscH7VJYZK9N6cUrFpj)"><path d=" M 784.32 97.499 L 800.553 86.825 L 809.614 93.104 L 814.899 81.174 L 827.735 89.964 L 841.703 83.058 L 854.162 89.964 L 856.049 77.49 L 864.355 83.058 L 885.118 81.174 L 872.66 37.85 L 768.841 48.838 L 784.32 97.499 Z " id="Path" fill="rgb(94,92,92)"/><path d=" M 789.605 147.71 L 801.308 122.416 L 814.899 132.986 L 817.164 122.416 L 826.225 132.986 L 836.04 122.416 L 842.458 132.986 L 856.049 126.946 L 870.395 122.416 L 883.608 152.995 L 789.605 147.71 Z " id="Path" fill="rgb(81,81,81)"/></g></g><defs><filter id="9UXP9A2TiWRjV72vDSpVn8MlJcxyo48t" x="-200%" y="-200%" width="400%" height="400%" filterUnits="objectBoundingBox" color-interpolation-filters="sRGB"><feGaussianBlur xmlns="http://www.w3.org/2000/svg" in="SourceGraphic" stdDeviation="2.146804531419514"/><feOffset xmlns="http://www.w3.org/2000/svg" dx="-5" dy="5" result="pf_100_offsetBlur"/><feFlood xmlns="http://www.w3.org/2000/svg" flood-color="#000000" flood-opacity="1"/><feComposite xmlns="http://www.w3.org/2000/svg" in2="pf_100_offsetBlur" operator="in" result="pf_100_dropShadow"/><feBlend xmlns="http://www.w3.org/2000/svg" in="SourceGraphic" in2="pf_100_dropShadow" mode="normal"/></filter></defs><g filter="url(#9UXP9A2TiWRjV72vDSpVn8MlJcxyo48t)"><path d=" M 825.719 126.464 L 807.569 108.314 C 801.324 102.07 800.036 90.909 804.693 83.406 L 805.817 81.594 C 810.474 74.091 819.118 73.268 825.107 79.757 L 826.255 81 L 830.499 92.318 C 831.468 94.902 833.067 94.912 834.067 92.34 L 839.255 79 L 840.402 77.757 C 846.392 71.268 854.702 72.286 858.948 80.029 L 860.562 82.971 C 864.808 90.714 862.782 101.631 856.041 107.335 L 833.072 126.77 C 830.965 128.553 827.671 128.416 825.719 126.464 Z " id="Path" fill="rgb(181,122,85)" vector-effect="non-scaling-stroke" stroke-width="3" stroke="rgb(70,70,70)" stroke-linejoin="miter" stroke-linecap="square" stroke-miterlimit="3"/><clipPath id="_clipPath_C9Ws9rV5EG7oGXHNZLYItkrz08bERrmH"><path d=" M 825.719 126.464 L 807.569 108.314 C 801.324 102.07 800.036 90.909 804.693 83.406 L 805.817 81.594 C 810.474 74.091 819.118 73.268 825.107 79.757 L 826.255 81 L 830.499 92.318 C 831.468 94.902 833.067 94.912 834.067 92.34 L 839.255 79 L 840.402 77.757 C 846.392 71.268 854.702 72.286 858.948 80.029 L 860.562 82.971 C 864.808 90.714 862.782 101.631 856.041 107.335 L 833.072 126.77 C 830.965 128.553 827.671 128.416 825.719 126.464 Z " id="Path" fill="rgb(181,122,85)" vector-effect="non-scaling-stroke" stroke-width="3" stroke="rgb(70,70,70)" stroke-linejoin="miter" stroke-linecap="square" stroke-miterlimit="3"/></clipPath><g clip-path="url(#_clipPath_C9Ws9rV5EG7oGXHNZLYItkrz08bERrmH)"><path d=" M 810.255 133 L 814.255 88 L 822.255 106 L 825.255 97 L 835.255 110 L 845.255 91 L 849.255 99 L 863.255 77 L 866.255 126 L 810.255 133 Z " id="Path" fill="rgb(181,85,85)"/></g><path d=" M 825.719 126.464 L 807.569 108.314 C 801.324 102.07 800.036 90.909 804.693 83.406 L 805.817 81.594 C 810.474 74.091 819.118 73.268 825.107 79.757 L 826.255 81 L 830.499 92.318 C 831.468 94.902 833.067 94.912 834.067 92.34 L 839.255 79 L 840.402 77.757 C 846.392 71.268 854.702 72.286 858.948 80.029 L 860.562 82.971 C 864.808 90.714 862.782 101.631 856.041 107.335 L 833.072 126.77 C 830.965 128.553 827.671 128.416 825.719 126.464 Z " id="Path" fill="transparent" vector-effect="non-scaling-stroke" stroke-width="3" stroke="rgb(70,70,70)" stroke-linejoin="miter" stroke-linecap="square" stroke-miterlimit="3"/><path d=" M 825.719 126.464 L 807.569 108.314 C 801.324 102.07 800.036 90.909 804.693 83.406 L 805.817 81.594 C 810.474 74.091 819.118 73.268 825.107 79.757 L 826.255 81 L 830.499 92.318 C 831.468 94.902 833.067 94.912 834.067 92.34 L 839.255 79 L 840.402 77.757 C 846.392 71.268 854.702 72.286 858.948 80.029 L 860.562 82.971 C 864.808 90.714 862.782 101.631 856.041 107.335 L 833.072 126.77 C 830.965 128.553 827.671 128.416 825.719 126.464 Z " id="Path" fill="transparent" vector-effect="non-scaling-stroke" stroke-width="3" stroke="rgb(70,70,70)" stroke-linejoin="miter" stroke-linecap="square" stroke-miterlimit="3"/></g></g><foreignObject requiredExtensions="http://ns.gravit.io/"><gravitDesigner:gravitElementRef xmlns:gravitDesigner="http://ns.gravit.io/" xlink:href="#AaS7OhNsSoHZsSjcUqfpWeNYoDqUlrpJ"/></foreignObject></switch><gravitDesigner:gravitGraphicSource xmlns:gravitDesigner="http://ns.gravit.io/" id="AaS7OhNsSoHZsSjcUqfpWeNYoDqUlrpJ" version="1"><![CDATA[eMKcw5VYacKPwqNKwpbDvS/DrsORfMKZwqwcw7bCpcKkJzXCm1kMw4ZsNsOwVGrCscKDw5lsNgPCrcO6w6/CjcKzw5LDqcKswqxxd8ONezXDkjQZwrbDiCDDjsKNGzfDrsK5ccOMw59Xf119XiVNw53Cn1ZPwqvDv1h9w77DvcOvD3rCosKiw4hObcO0XcOfw4nDq8OSwqUjKMOqNgpXwp/Cu8Kmwo/CnlbCp8KuXQbDvMK+wqIow5bDki4UwpXDpcOKb8OLwqDCvywfw50hK8KDwrMuw5p5N8ODwq1fHcOsXXnCgsOnQBZYSWnCp8Odw6rDi8OTwoITw5nDkxUXw5xxXsKgC04gBTPCrcKdw5EUwqgqTRNdH8OSUnEww5vDiGFvOMOwwopLwoA3w5zDpDDDvjnCgkQHwoDCtW7Dm8ObwoY+wqNlwrZzfcOMGEd7wrZvOMOiwopzwrg3XBkAasKIw4vCmMK3wpPDuyBMwoY4wp/Do8KdfsK2wpDDkMK3w7Zow6V+w4MpFMKvUxQVw59xCi8VwrN9wrR9RcOkDMKbw6TCoTk6w7rCsh5XGcOkVWLCtcO/wobCoyjDrcKKc8Ovw6vDq8O4XkDDgWpMacKxwqTClUwddsORLsKcwrpILS7Cl0opw5BvOMKOcj7DjGfDtAjDiMKNw6bDrsKydsOtQ8ODZ8Odwr7DgMOoLibCh1xSw6dtHsK+wq7Cj3J1CsOkw7Z3XMOlwrMXw73CmMKOw4fCmMKKJVgGScOLw4XDqRbCnxwYdi0DwoxufsOGH8O8wrQMFcOfwroBw4vDpsKkw6hdwphjLBUwwpnCjXBhJGnCmMOGw4YtLsOtFcO3LsKeR8K+w4HDuWAXRHkgF8KOfMKZw7TCo2tQYW/DpWlnwpouesOzM8K/w6IaTsK8w6HCiAzCgcOOZMOTRMKRQmwcMMKXw6x0w5zDi0zDp8Oqa8OYwqMcw78Vw4fDvMO3dcO/wojDvA0XOMOew5HCrQ4xYQPDgsOBcRoow5ZADMO2w7vCrXnDnsOnbTjCrcK+fHlaNVHDnMKNw53DqnPDlRfDhcOLf14VwqR1c03DnsOlacOXw4TDiw3DsMKMwqEwDiIQwoHCvn4/AcOXwr9nFMKBMRAFYBwlYcKSQMKfEBx+w4Yhw7RtKMKIPX3DgsKAZwIkYAgkAAQFQXjCscO6wrc2XMOMw6LDoHJXeFN0wp3DrMOGwqTCrMOqw6RvXcOvGRZnRcKxe3vCtjzDusObaXF5w4XDvMOldxDDgsKeXj9fVl8Xw5vDv3k1Y09Uw4XCj8OTw5Qlw7E+NMOiwog5bThBwpQ2w7A2w6bDjcKJXH1dLERxLMKGVyM7wrfDqUgQJgUGdmLDkgEqDcKmc1/CgsOhw4EiIENYBsO/HMONQ8Otw4JQw4XCnXZlAxfCvsORw5XDngbCrcOwwpjDpSLCoCzDkCPDjsKdCmJqw7whwrrDkcKuwr1uwpt/TxMEdybDlw3DjsKowpjCgjplw4zCpFfCk8OCREFGw5d7w6RRf8Kjw6t/XXHDqR3Dl8Kzwr1Gw6tlw5LDqXM3GMOqIBvDlGlJw6jDuRDDtsOHw4tmcm5pSV3Dk8Orw518wrUgwqVOEsOXwq7Cm8Kcw5drwr/CscOXw4llMMOqw6HDklPDlCFcE8Ofw5HDvMOdfBvCrjoBGcKYw7NmwrNRwrfCpcKKejvDt8Kowqx7HRjDvcOdZcOwbnTDnX7CmMKvcMOLw51gwq1hw6QQDFhewo3DtsKBw5DCncO1bsKdKWMcwprDgMKtwoxRw7rCh8O5MMKBwp9nw7PDoMOMw7LCviEGwppVC8OTLMKDwpLDpQvDj0RkdMK4w6HCvCsuwrrDoyTCusKEChTCow4kEmTCmh8kG0NNasKgwrbDsREmLgVywqN5w77DkU9Bw7VPwoMNwqxTw5RQw4LCiGfCsFHDlznCtcOOw7bCphwMw5vDoR3DjRnCqsK6wpcHDcO0w7sNIQhYTcKOJMOjKMO0NjHClDrComfDiWhOSG3DvHnDmsO9w5DCjcOgw6AzCALCtw7CjHzDugTCgcOPJAgBbxfChMOfwokHw7xyw6LCvVLDhMKvwpswasK+B8O4wpfDlWfDoB3DsGUJd8KuwrrClGPDhhPCiXjDghjCuMOzwpB7OwQrJVHCj3YmSMKVw7bDvB1Xw51ow53CuMKFwocDQsONw6NBw6Yna0hKCsO5SMKdw7jDicKiw7TDvcKLw5XCnwnDrRIvCEXDngIIQi/CkcOFw4hnwoh8F1rDssKJwoDDiGfDssOdRTzCgQDDtGHDkMKvLWjCi8KRwpfDtsKvwoPCisK+Q2HDmBMGL8Otw4vDtcOhwrBMH3tFG8OdYsOMFcK2w5hrW8KhYwTCtkvDliIcdSdSEMK0JgoJeMOEw5JbwoxvXi/Ct1HDkH3Dr3HDmMOUJyPDtcOCw7rDgsK9PMK9w6rCisOVZxB+wrrDlsOFb04sw5nDsMOSwq5Ow5TCp2DDmcO2Z8O8w6YCQUIWfcOWQBzCncKzwpPCqsOKFgPDo8KUw6d3YSbCtEjCncKpwqvCr8K3w6XDnhXDlsOPbCTCgj/Dg8OXPMKHQBTCg2HDpMObPiLDmDNAYMO3w50Ff8OYR8O0w4d9w7zDhQcTwrbCpMOTwrXDnTPDvWd3w6Elw5PDv3XCvH4Iw5cfF8KkasKZAMOzWcOicU/DjsOlw4vCgTdBwpTDtwIHw7UjM8OkD8O8w7HCkSBNJnEnURx9McK8EAgsREtrAEBEU8Kxw5NmwpNow7MjQWonw70BwofDjsKyEMKZUxAdwo4FJcOywrPCvR8Nw7XDmMOywozDmD4SwqQVGcK2JsOYw63CgcONLkR5fcO2SsKqwqTCmUJQwobCpmIaw6nDtEjCkA7CjsK7w65BBsOdw5oWwqjDoFx3PgsZL8KmA8KsEMKVUMKyw4EjQcKKwrXCqMOqdMOYcMKeKXnDiFjDscOcwoPCs8OsWEEtXMOSwrjCjC7CjwQpbsKGw6BWak7DhzEAMsO8w4zDihjCp8OCw4oFw7LDiMK9w6tFw6vDosKRIMKFHEzDikPCnybCsnTDiwp4w4QrYRoxScOLw5o2w6TCr0/DsyNBOsOxEi4zMit2w4NxF3TDkwkMw4Fxw5zDsxtrw4nCscOzw43Djx8FacOawqPCssKOwoN7I8OQScOFw4tEDkDCs3Q6w6bDrsKAw7ddw6hKwo8EacOZwrLDqMKxbcKKHcOvw7t2e1xbbcOQwrRdwqPCgsKcwrMRT8Kgw7hIwpDCgmnDqMKuB3I8w6JnwrsNGS7CsysHwpLCiMOFPGHCi8OVwoDDvC9ORhjDh1EIw4ZwHMKDcRLCglHDtMO1aMKEFyHChwA4AiEowobCkwvCv8KfMAh5woYQEiVRwozDgGF4KQbDoMKiSMORZRwIwqMETiAEwoDDvVrDqsKTw4gTCS3DrcO/wpsgVcK0Aj/CusOTdl/DpgIOIMO9NMOEcsKHwrhyTEPCtWprw5gjQcKaCXAywrbDnFrDlMKPJsOHw7Zdw5d3w5VgHyXDg05DAcOywrNHwoJ0PFtOaEfDvcKoNBnCvcKmwohJBXrDiQjDt3UEwpHCrTpqwo8EaXHCusOgw6dKTsKAwpTCoCLCpsKmdSMXw7nDnMK3wq3Ckyd1e8OfeCRIGcK/wo0gwovCt0h/wqLDp8O9wqYXw5J2woloDcOSKcOABsO2w7rDtEjCkMKOB2w2wqIzw5FJZcOAw7rCrcKFMnHDjMKzVsOdw6w7woFRMcO0wpEgBcOXwphbw4Y0wrpxdwTDqERtwqbCqE5cMsOAQUwjw4JPwqZHwoLClDFlw7bCjAnClsK8w6vCt8KCIsKOwrHCrAsFwp7Cp2bClHNtwqcdHgnDkgQqw6zCnkFTwpzClH3Dl8OZwpfCnlxjXlHCsijCsQvCg8OSYB4JUsKENcOnwpHClQRFNXJBwosowrTCjMO8BsOdI8OdQMOZw4TCgTvDvwrDmn3Dnw9daQc9w6MwwokCAMKJL8O9Cydgw7gZXgTDqcKiUxfDksKBCALDvVpBSizCp8O8wrXDvRvCqlFkUcOvS8KgwohFwrRAKAxjKMO2TcOGAMOPw4AiAAByUS8YSBLDuA8yBllqGcO6DCzDlcOtNsKIBH/CsRwFwp5ew5rDv8KZwozDuQPCv3YgbMOpBMOfw5Q7wobCo0/Cn8KWCC45BUIgwrHDqHoUIF7CksOrw6ZFYsKvw5PDkcOSw5k1SSoHNcKhGDlxwoQQw5vDsE52w5ZFwpLDv1hRf1ZJwonCtHrCpShrwr1RbcOfw5ZJSMKGwprDqCYRw4jCicO6SThLRllWbMKvwqzDoUHCusK9wqrCoXdXw5zDpX7CosKaw54ewowUDcO2Ez93wrtxw5jCocOMwqbClcKiwo7DkHx1NMOXNyVFwr/ClCDDtMKOwoMqw4rCpXzCvTILIFIRLVPCtMK9XcOtwqsLw6XDiMKaesKIw7TDl8KSRxtXHHA/wokBK8OXPcOpwqhTw7ghwr/DpCB1IMOQIy/DihrCtSfDmsK0wrfCrcOXUkJbVxx+wp9vZzQowpnCqcOQw47CrVkOISTCnmrCpkzCnztMdDTCocOHwoDDm3zDthU3w57Dp3PDtyFiw43DmmUUw6LCgwfCu8KiwrIVw5bChQdwBVDCkcKIT3E3w5zCi8KSAsOvwrgWwqswwpXDnlpOw487DiMQNsKnw4hrw5bCnsKHw4Jyw449w7TDrcOdwoRJLSMXZ8O9K8O4fAfDt2c3wqrDiFTDiScwCBoKwpvCmMKeZsKcHcKLUDnCmk8YcQtqcMOFw5HDt3pJBcKxwo7CnlXCkT/Dt8OdwqjCiy7DhW9rwrpgwoZwHXAcHXs/XS/DgcKXDAbCl8OsRMKfcQTCvSUxDMOjw4TDkyfDohl4f8KBw4gvw759fi3ChsOow5LDvlQ9w7Q0dj9tw5d6w4UgacKdcnhsE1sIw4PCg8KLdDzDtCPCt8O9wo7DrMOKHMOVwpYEGklAw6MGOUxUwpk1LBzCoGBOOlXDncKGL1YfUMKJwqPDjcOrLjDDt13CiBLCrMOww4/CgMK+w7fCgXVgDcKDVMKkSxHCtgvDhRQ7wpcBw4/Dl8KDw7TCulkUwpNoC8Kyw6bCqMOfXg9OWsO+wpDDrcKXwrrCmiEfw5BZw4bDjMOnw5IIw5UKw4nCjnXDqcKmwr4qbAfCo8K4wpvCosK0w4VWw4Jxwr99R8OUw7JOAMKOM1jCjDhEUcKhGMK2woorw5DCocKNwqsjRMOTwq3CvB8zEcO/J8KmXjjDmMOewr1KWMOBwoNQw7HClB3DsjkXwonCrcKhw6vCkjfDu8K0wp1Vw57ClDHDuG01w5bCh8OVw7QnI8OXN8KaZ8OSCWkNw5nDicKZKMOiwpA4wpAaZHPDpQTDpcODw4Aow7TDvkXDiMOfTcKdw5vCk8K5w65pwpRkwpXDtMK0L8KJYFsJw6BWw5dRwr5TAyLCoW7CuBdaFsO3KMKow5I2EMK2wrw8w43ChsKpwocww4bCu8OGAMKaw7wmQcKVw4hfw6fDq8KHUcKgw6jDsMODasOYI21AwofDjMKkAsO9w6LCgyEwwo9Lw73DqcOnwrnDhMOIIShCw6B/NMO1b8OCPxDCgn7CisKAw7A/PXDCoXHCnAjDtMOAw7DCk8KswohZJATDozhnwrrDpsOQw5p2wqc4TMO5B8Ofw57CjMKrw4/Cn8OQwpfClzjDqMK7dzjCr8O8f33CgQPDnnzDmGLCplNtwp1wwr7DoGzCj29TRFzDj8OjPDHCvMKsc8KufklWX8K/w77CicKow58KCMOuHMK0wp7CmsKodWvCgWogbMOcfsKXw5rDnCbCsQNLT2jCqV99w70HFMORw7pP]]></gravitDesigner:gravitGraphicSource></svg>