<?xml version="1.0" standalone="no"?><!-- Generator: Gravit.io --><svg xmlns="http://www.w3.org/2000/svg" xmlns:xlink="http://www.w3.org/1999/xlink" style="isolation:isolate" viewBox="1438 33 156.51 158.587" width="156.51" height="158.587"><switch><g id="Group"><g id="Group"><g id="Group"><g id="Group"><g id="Group"><g id="Group"><g id="Group"><defs><filter id="m0Zu1t97RyGP7whmX9RDHogqGok84ryF" x="-200%" y="-200%" width="400%" height="400%" filterUnits="objectBoundingBox" color-interpolation-filters="sRGB"><feGaussianBlur xmlns="http://www.w3.org/2000/svg" in="SourceGraphic" stdDeviation="2.146804531419514"/><feOffset xmlns="http://www.w3.org/2000/svg" dx="0" dy="13" result="pf_100_offsetBlur"/><feFlood xmlns="http://www.w3.org/2000/svg" flood-color="#1A1A1A" flood-opacity="0.7"/><feComposite xmlns="http://www.w3.org/2000/svg" in2="pf_100_offsetBlur" operator="in" result="pf_100_dropShadow"/><feBlend xmlns="http://www.w3.org/2000/svg" in="SourceGraphic" in2="pf_100_dropShadow" mode="normal"/></filter></defs><g filter="url(#m0Zu1t97RyGP7whmX9RDHogqGok84ryF)"><ellipse vector-effect="non-scaling-stroke" cx="1516.254857142857" cy="102.29371428571429" rx="71.25485714285719" ry="69.29371428571429" id="Ellipse" fill="rgb(71,71,71)"/><clipPath id="_clipPath_7v9Ik7NcVLAIbfjXI9QNZuAf4n0KFEJS"><ellipse vector-effect="non-scaling-stroke" cx="1516.254857142857" cy="102.29371428571429" rx="71.25485714285719" ry="69.29371428571429" id="Ellipse" fill="rgb(71,71,71)"/></clipPath><g clip-path="url(#_clipPath_7v9Ik7NcVLAIbfjXI9QNZuAf4n0KFEJS)"><path d=" M 1437.155 89.219 L 1465.265 70.737 L 1480.954 81.609 L 1490.106 60.951 L 1512.333 76.173 L 1536.52 64.213 L 1558.093 76.173 L 1561.361 54.573 L 1575.743 64.213 L 1611.697 60.951 L 1590.125 -14.067 L 1410.353 4.959 L 1437.155 89.219 Z " id="Path" fill="rgb(126,126,126)"/><path d=" M 1446.307 176.163 L 1466.573 132.365 L 1490.106 150.669 L 1494.029 132.365 L 1509.718 150.669 L 1526.714 132.365 L 1537.827 150.669 L 1561.361 140.209 L 1586.202 132.365 L 1609.082 185.315 L 1446.307 176.163 Z " id="Path" fill="rgb(126,126,126)"/></g></g><ellipse vector-effect="non-scaling-stroke" cx="1516.254857142857" cy="102.29371428571417" rx="47.3912021563342" ry="46.086857142857106" id="Ellipse" fill="rgb(60,60,60)"/><ellipse vector-effect="non-scaling-stroke" cx="1516.2548571428572" cy="105.0495098296199" rx="41.15008086253374" ry="40.01750982961986" id="Ellipse" fill="rgb(70,70,70)"/><clipPath id="_clipPath_OYe4qDAhbJKIvazZchMnGyx3Mlc9Rquz"><ellipse vector-effect="non-scaling-stroke" cx="1516.2548571428572" cy="105.0495098296199" rx="41.15008086253374" ry="40.01750982961986" id="Ellipse" fill="rgb(70,70,70)"/></clipPath><g clip-path="url(#_clipPath_OYe4qDAhbJKIvazZchMnGyx3Mlc9Rquz)"><path d=" M 1470.574 97.499 L 1486.808 86.825 L 1495.869 93.104 L 1501.154 81.174 L 1513.99 89.964 L 1527.958 83.058 L 1540.416 89.964 L 1542.304 77.49 L 1550.61 83.058 L 1571.373 81.174 L 1558.915 37.85 L 1455.096 48.838 L 1470.574 97.499 Z " id="Path" fill="rgb(94,92,92)"/><path d=" M 1475.86 147.71 L 1487.563 122.416 L 1501.154 132.986 L 1503.419 122.416 L 1512.48 132.986 L 1522.295 122.416 L 1528.713 132.986 L 1542.304 126.946 L 1556.65 122.416 L 1569.863 152.995 L 1475.86 147.71 Z " id="Path" fill="rgb(81,81,81)"/></g></g></g></g></g></g></g><defs><filter id="QX89qCb1PyLeAxlDbRZNKG7SkHw0kCvx" x="-200%" y="-200%" width="400%" height="400%" filterUnits="objectBoundingBox" color-interpolation-filters="sRGB"><feGaussianBlur xmlns="http://www.w3.org/2000/svg" in="SourceGraphic" stdDeviation="2.146804531419514"/><feOffset xmlns="http://www.w3.org/2000/svg" dx="-5" dy="5" result="pf_100_offsetBlur"/><feFlood xmlns="http://www.w3.org/2000/svg" flood-color="#000000" flood-opacity="1"/><feComposite xmlns="http://www.w3.org/2000/svg" in2="pf_100_offsetBlur" operator="in" result="pf_100_dropShadow"/><feBlend xmlns="http://www.w3.org/2000/svg" in="SourceGraphic" in2="pf_100_dropShadow" mode="normal"/></filter></defs><g filter="url(#QX89qCb1PyLeAxlDbRZNKG7SkHw0kCvx)"><path d=" M 1515.175 131.953 L 1515.175 131.953 L 1515.175 131.953 Q 1512.147 129.83 1511.524 126.283 L 1511.524 126.283 L 1511.524 126.283 Q 1510.901 122.736 1513.023 119.708 L 1513.023 119.708 L 1513.023 119.708 Q 1515.145 116.681 1518.75 116.048 L 1518.75 116.048 L 1518.75 116.048 Q 1522.355 115.414 1525.325 117.547 L 1525.325 117.547 L 1525.325 117.547 Q 1528.295 119.679 1528.918 123.227 L 1528.918 123.227 L 1528.918 123.227 Q 1529.541 126.774 1527.476 129.791 L 1527.476 129.791 L 1527.476 129.791 Q 1525.411 132.809 1521.806 133.442 L 1521.806 133.442 L 1521.806 133.442 Q 1518.202 134.075 1515.175 131.953 Z  M 1503.447 72.258 L 1519.881 66.421 L 1523.176 69.735 L 1521.632 109.289 L 1513.44 111.672 L 1503.447 72.258 Z " fill-rule="evenodd" id="Compound Path" fill="rgb(181,122,85)" vector-effect="non-scaling-stroke" stroke-width="2" stroke="rgb(60,60,60)" stroke-linejoin="miter" stroke-linecap="square" stroke-miterlimit="3"/><clipPath id="_clipPath_5NhObdyR2j8OxFj04CPQusHqpttj4SGY"><path d=" M 1515.175 131.953 L 1515.175 131.953 L 1515.175 131.953 Q 1512.147 129.83 1511.524 126.283 L 1511.524 126.283 L 1511.524 126.283 Q 1510.901 122.736 1513.023 119.708 L 1513.023 119.708 L 1513.023 119.708 Q 1515.145 116.681 1518.75 116.048 L 1518.75 116.048 L 1518.75 116.048 Q 1522.355 115.414 1525.325 117.547 L 1525.325 117.547 L 1525.325 117.547 Q 1528.295 119.679 1528.918 123.227 L 1528.918 123.227 L 1528.918 123.227 Q 1529.541 126.774 1527.476 129.791 L 1527.476 129.791 L 1527.476 129.791 Q 1525.411 132.809 1521.806 133.442 L 1521.806 133.442 L 1521.806 133.442 Q 1518.202 134.075 1515.175 131.953 Z  M 1503.447 72.258 L 1519.881 66.421 L 1523.176 69.735 L 1521.632 109.289 L 1513.44 111.672 L 1503.447 72.258 Z " fill-rule="evenodd" id="Compound Path" fill="rgb(181,122,85)" vector-effect="non-scaling-stroke" stroke-width="2" stroke="rgb(60,60,60)" stroke-linejoin="miter" stroke-linecap="square" stroke-miterlimit="3"/></clipPath><g clip-path="url(#_clipPath_5NhObdyR2j8OxFj04CPQusHqpttj4SGY)"><path d=" M 1507 123.587 L 1511 79.587 L 1519 127.587 L 1514.72 76.987 L 1529.188 144.595 L 1528.545 92.742 L 1543.766 129.643 L 1565.66 165.505 L 1500.935 161.235 L 1507 123.587 Z " id="Path" fill="rgb(181,85,85)"/></g><path d=" M 1515.175 131.953 L 1515.175 131.953 L 1515.175 131.953 Q 1512.147 129.83 1511.524 126.283 L 1511.524 126.283 L 1511.524 126.283 Q 1510.901 122.736 1513.023 119.708 L 1513.023 119.708 L 1513.023 119.708 Q 1515.145 116.681 1518.75 116.048 L 1518.75 116.048 L 1518.75 116.048 Q 1522.355 115.414 1525.325 117.547 L 1525.325 117.547 L 1525.325 117.547 Q 1528.295 119.679 1528.918 123.227 L 1528.918 123.227 L 1528.918 123.227 Q 1529.541 126.774 1527.476 129.791 L 1527.476 129.791 L 1527.476 129.791 Q 1525.411 132.809 1521.806 133.442 L 1521.806 133.442 L 1521.806 133.442 Q 1518.202 134.075 1515.175 131.953 Z  M 1503.447 72.258 L 1519.881 66.421 L 1523.176 69.735 L 1521.632 109.289 L 1513.44 111.672 L 1503.447 72.258 Z " fill-rule="evenodd" id="Compound Path" fill="transparent" vector-effect="non-scaling-stroke" stroke-width="2" stroke="rgb(60,60,60)" stroke-linejoin="miter" stroke-linecap="square" stroke-miterlimit="3"/><path d=" M 1515.175 131.953 L 1515.175 131.953 L 1515.175 131.953 Q 1512.147 129.83 1511.524 126.283 L 1511.524 126.283 L 1511.524 126.283 Q 1510.901 122.736 1513.023 119.708 L 1513.023 119.708 L 1513.023 119.708 Q 1515.145 116.681 1518.75 116.048 L 1518.75 116.048 L 1518.75 116.048 Q 1522.355 115.414 1525.325 117.547 L 1525.325 117.547 L 1525.325 117.547 Q 1528.295 119.679 1528.918 123.227 L 1528.918 123.227 L 1528.918 123.227 Q 1529.541 126.774 1527.476 129.791 L 1527.476 129.791 L 1527.476 129.791 Q 1525.411 132.809 1521.806 133.442 L 1521.806 133.442 L 1521.806 133.442 Q 1518.202 134.075 1515.175 131.953 Z  M 1503.447 72.258 L 1519.881 66.421 L 1523.176 69.735 L 1521.632 109.289 L 1513.44 111.672 L 1503.447 72.258 Z " fill-rule="evenodd" id="Compound Path" fill="transparent" vector-effect="non-scaling-stroke" stroke-width="2" stroke="rgb(60,60,60)" stroke-linejoin="miter" stroke-linecap="square" stroke-miterlimit="3"/></g></g><foreignObject requiredExtensions="http://ns.gravit.io/"><gravitDesigner:gravitElementRef xmlns:gravitDesigner="http://ns.gravit.io/" xlink:href="#HY7OlL99dvyrMyRuVVIGtIDay0QvbQpc"/></foreignObject></switch><gravitDesigner:gravitGraphicSource xmlns:gravitDesigner="http://ns.gravit.io/" id="HY7OlL99dvyrMyRuVVIGtIDay0QvbQpc" version="1"><![CDATA[eMKcw5VZacKTwqJKw5bDvi/DnjfDpktXw5fCkCRrR0zDhMKww4nCosKowoDCoHjCq2MCWQRZZMKTw4Ubw73Dn1/CtMOKwrbCqsK7wq3DqcK5w5PDrzJVwpRBJcO5wpw8ecOyPHnCnsKUP0Z/H30aw63DisODMR89wozDvmvDtMOpw7c/w77Dl1vDvCTCicOyw4p/w5PCljt1ODTCuMOJwqHDssK9w5HCp8K6PMO6D8KjwrzCrsKGDsK/wo8YwoY3wrXClmHColjDvcObw5DDqcK3w6HDj8KpUsK9wq89wq3Dt8OUNMOdwrnCmwPDgsO1wrHCncKSdcKvcW0Qw69Hwp8fBsKcw4zDp2fCnHvDg03DuRzCm8OvEmJFw5vDvjHDrMOlVcKywrLCnMOOw6nDh8ONIsKRKDXCvsOiw4AZwrdDwr7DosOKQyEoGmnCnXB3RkbDs8KSPMKFw6bDhFDCgMOjUDnCuzUWVxx1w4bDmcOCV8KcwobDqzsgw7vDocKKw5rConIhLcKCVV/CmydCKWrDlMOqw4rCgH3DhsKpwozCqDMME8OccGzDhGQhR8KQwpbCtsKyPXTDlnZHw5bDgHzDmsOow6JDwrTDo8K5w6YZw4cww5oZwrfCucOND8KfbMOGFGMuw6fDosOGLMKiwqlYwoszwpMvaMOMw4tPHS/Dq8O4M05gw6xvw4Zbw5jCoMOpS3E6N01xw5PChMO5worCklczwoHCtMOyw5PCjsObwqbDocOkZX7DjEZnwoBgw51wMMOkfMOTwojDpkwRw6LDo8KOwpvDkWA2OwF1wq9hSMONwoVbw7rDqmfDsMKNwp90YzYTw43DlQXDisKOScOSNsKyKBEmw7sxwqvDsSg0URHCv8OGwqU6w6New4VTwrVoIw0pKxACdSnCnmjCsMOwOcKww6gmw406wqZSNBHCrn7DhmdcKcOIwrd1N2TDmcOvLcOHPsKBPGhXwo3CmHQpb8O4eMK1asK1wplrwr7DoMK4wr/CnsOXwo/CisK/w6J2w5DCpzxew5FEOhnCrzp7wr1iFsOYBMKJTVpKwowJwrfCn8KPPn8ewpLDgw/DqsKuHn3DisKOSXLDucOPw4nDnMOwUMKewpN3eFrCl8OBcMKDPBI4JAHChlLDuMOLw6cDcsO+fcOEMUgAHMKBJE5DwprDgh8Aw4DDqUfCmkLCrsOdAMO+w7DCkUAeKUBBFFAIwoYDwoACbMKww7vCj8OKGwzCk2DCuEvCnMOePw93w6VSwpTDlcOTw6fCpsOXHAvCoiRZfH02PMO6Rz44PcOifsO7HcKgw4TDg8OLw5/Dp8ORwpfDgcO2X8OOZsOWPcKTwoldw5/Dl8K7w4DDssKMw4DDp8Oywokgw4nDigTDjgJxw5nDk8KjL8KDBT8IZMOvbGTCsSlrGkBaw6LCoB3DkDbCkmnCkMKNwrcKwoTCjUnCocKGNHTDvjnContaw4sxw4nCjXhLwoFQw5XChQNjUcKqw4NNJsKgPGhWWUnDtcKTw6g4wq4kw6RKwrzDqsK8cMObW8Kiw5RLw4zDm0nCjEw1w7A4wpBSEiIrc8KmRCpPwrlow5PDpF83wogPZ1x4w4PCpUUCd8OOaW7DtULCslQEbj1TWMOAd8KxwpFgwo3Dm1fDiDUxwplzwoLCvRrDj8Oxw4IdQ2HCiAnDgMK2JsO2wrJqw4LChRzDh8KqwrTDm8OTeTVRw54Qw73DlXhcwo8NwokEw4HCnBLCo37Cul3DjhEFw5FWJzhEwr3CpMOHw6LDsUrDmMOZN8Ojw4XDjhbDk8KZLcOewrXCgMKzwqclO0bCj2tgeARkcEFgwpvDrcKVCMO6N8OjwpFtwqAUwqtSIcKXwqLDn8KVfkHDhGHDkyPDm0jDosKDA8KkwrfDiRXDp8KcccO+DXcqUHTCvQJzwrsQwpfCu8O9w6LDoMOtwpjDhcKwXcOEE0lHwohTw41ewokef8OjJ1/DjXLCk8OnLcKGF3rClMKfECrCnhc4woUoMjYjw5xdwrB/RXTCjsOJbhvChMOOLsKjwpBTwqfDmVY9wolWVMOsHRNUwrtmw4/CjsOJwo5Tw7fDuMK/T8K8w6/CmgfDpsKRwo/CkMO4SjwMPHxEw4EjDVDDpMO2Q8OcwpjCh8O8csOmwr1wZHsoPcK/fAvDmMK2wqNPw4grw6BlDjfCsm4YexnDtDTDpkjCncK7OTXCscKzw4DCiFTCkXV/wrEETMK6PsK9IcOrw4YfwpfCm8OEIRHDqSDCkm7CtMOdwo1RZcKXTMO3TC7DtibCo1sXwqs/E1sSPMKiOMO2NcKCAMK9woTClsKgH1HDulVsw6kHwoADw6JNw48HwoDCoMOfdMO6wrU7w5pgw6Ryw73Ds8Kgw6LCr1AEw7FAw4DDocO6fH7DmAzDgwdOUsO5w5cYC8OJWj5qM8Kpw6Ykwr7DnsKNZcOow5c5LUlaw6l7FMOswojDsBrDo8Krw5fDg8Ktw6/Dlm89w7bDikNuwoTCjndowoXDi8OTw6FhP8O6BMOgw4N5Y3x2YsOIwobDi3V2w6LCkMK7w4PCsj/CklcXKBo1w5lCAyR+worDssO5fGpywpBkwpxtw61FUsKFHcKiw7nDqMOLdcK6N8KRw7UzC8KJDcKJf8OOcxTDoATChMOYw7M6YsOEI0IRwrfDlQU/wrHCjsKAw7zCtcOrSAzDqXTCvm7CmcO+wrPCq3DDicO0fx7Cr8Ovw4LDtcOnNSlLw6wxwqMROcKiw5fCgsK9eEJcacOLw6LDsMOAw5nCrsK5HGomck/Ck8KiXMKibcKEbSMoa3XDg8KPw5diM8OGwqw5wpHDi8KQwo3DnMO9w5zCvcKnSQsXIsOqVMOpwqHCssKSwp0Gwo/Dt8OdVMOAJsKnMcK2aMO2ZjXCicOvaVLChRHDtMKlwoMuw6vCtsKpw5fCkkHCtQxkdzMjwppNw51NU8OXw4Y9TRrCm8OKDsKvB8ORNDl4NSLCosKLw5JHbMKWCQ9yFMK1AcOCw57Dk8KkwovCucKJEsOLwrArw7x0YcKAwqnDrMOIw71UIxgZUcKRHcKtw6jDrV1Nw4oaTBRoHmZ3wpVqbTYTw47Dpj3CjgjDvWrDp8OpCgvDr2nDknzCr8KHMgBhwqnCusKkwo7CnhZpw4c4woXDnQVHWB/CjMKTf8K4wqdJccOAOMKuwrTDojnCm27Cl05XwoZyLmd9w4zCrQjCucKBFWDDr2nDksOTwrjCtcOZwq4EW8K5w580RcKAKMKNwrxywpDDncOaRVENwopYek/Ckx4OwqEkw7PDkzLDg8K0wo5gwofDmm8HwrDCiU3DgxvCt8Knwp5sw5R7wpo0w5VlP8KlwqHCmCXCtcOKH8K9GcKvVFHDocOybE9GOVvCjMK7f8KhNELCksOEUUjCkCQBSRrChTjDvlIbw6HCoMOkMMKEw4RQDCdIesOgw7cDwoBgw5DCqgjChsOhKAURQFFnw64/UsO4w5ARQMKcIinCjMKgwolfw4t9GnvCoMORw6HDusO/JknDg23CoSB9aBJeXwNRY0Mgw7jCh8KEN0nDv8KYwqrCmQ/Dr0lSO8KzY8OCwoPCpVYdwqd0wqQdw7kuHMOrwrHDrcKOwo8NInbDl8O8w7pewpIeeElZH8Kkwq3CqsKBYMOhwqw0wqbDqBF6wofDtzDDiMOzU8OqwqfDtyRpw58ZTMKbwrvCvWIZU8OBNsOtRMO0Q8OSbcKyE2LCp8KEwrnCmcOewpPCpH7DqMOlw5N0wrbCsU1pwrPDicKNODzDjcOqA8ORw5PCrsOZdMODKQvDnsKTwqTCpBVnVsKoYkHDmEIqFht0FmUNPcKRw6bDtcOawp8JU8O2wp4kwpXDtcKew54bw47CjBNOw4PDsRrDksKLdcKvwpsHSVQmK8OeKcOywrvCkhRbUhhGw5vClMK7DcKPGT1ZeUMIAMOpSsOrw7XDqcOEw7fDqsO+wp4kwpVsX01qJcKQw7EswqxncsKCw6MYEcKncVA7wrIuwrJtfE/Ckk4Vw4Mzwp0dImTDkEETwpMSJkQQSVvCjRIqw43DpnjDvVfDsMOubTt6w6YdQj3DkjQ2cAwAemgGDxA+w4JBwpICwoAMwqwDGAZ+wq0kwqXDgMODw6XDug/DlMKjGHgcwo7Dkgg1w4gWFMKHwoPClCfCnsKFDMOywogMEgDCoSnClCYAfcOewrrCvhUyw6jCsMKbw6HCjwhGf8Otw7XCqwUpw7JwwrnDvsOHwoTDjMKfO8OwwqDCjyRFwr86w7DDgMOHIcKfaEDCkRgYwqLCiBPCly8awq5OWEE1w4t8YV3DljzDlm4tExlHXsKGwrllWB5KwqDCoMKzP8OvBMKAw4TDu0Nvw6bCvsKeLRIiw61wwps7VsOhYsKzIxrCsArDrcOcJ3Ytw5nCvhoaXEYaMsKYJsKHwoJ1wpscfMO4CGnDtMKRQsOxw5vCocKDeD3DhiEwwqrDpcOScAnDlMKcw4zCvWVcZsOVwphxwrfDozTDmUjDqUJNfzDDhlBdw7DCh2HCmMOBw6nDq8KUMAhfG8KlwoTCvsK3KF3CoyvCsEfDosKqRD0Iw5fDuG7DnxXCicK8WC7CtXtGP8KiCMOxwogBw7TDtjUQw7nDmsKsw4zCrMKkbSnCmUdyYsK1RcKZYBJyTMKmesOKTXJ3cUTCnB/CmR0CfT7DkMOCd8OMw5rCucKzwq7CgsK0wrTCsMOjcUbCqMKRwqTCrjNnAcOALk8VNltvwr5uCcOuIcOND8OHw4x7wqnCnT8pwppjw6JDwqPCkcKWwprDncKKwqnDlcKlwpMiGAdcOMKZwqcBw5HCtnrCrcO0PcOKOcKbRsKmEcOywrlobMKxD8KIw5bCscKLwr15K1JER8OtwogZwo5UQ8ONw6HDpcOTYMOHw6XDpsOewoTCj8O3w7jDinTDsgvDjljCicKIBsKbw5XDocKGM2LDg8OHw6vDncO2ZMKPVVXCkA3CqUxnw7oib3lrwrIjwqnDrnTDgR3ChSN6LsO6w7tbw5FADRrCj8OJecOcwpJbwo9vw7saMcO9CVHDmBzCjMOiMcKlw47CnsKLwpTCmHzCgFpbwqTDhW3CvMKpwpUtwplAPiEYVGHChkbDqkbCmlLCu2nChcKSwrXDlhLDmsOzwqEAw47Dp8ODLTNPbsOjBXU8VsOpGl/CpsOCDsOvdlvCtTzDosKOwojCp8KaMy/DjXnDol9wwpbCvMO6cMO2M8K/w6HCusKewrBCw4EfD8Oqw7MEwo/DmxXCu8OWw7dJwqIWa8Kmw6TCmmrCsnopworDvMO4LDLDqsKbwp/CrVvDiSc4AcOWw5pzFcKJw6oDw5TCs3nDscKwPwpKwqDDpiZzw4HCncOQwqI4wo9Xw57CisOiwoHCi0LCgh3DincmYXvCr8KdZTMqwoh1ASvCq8KFwoEjw63DjxfDhWHDqyZIdMKof8KQRnDCnCAgw7XDsBF5RMKRwoHDgjhNIARGUxgyw6TDssO3TT9AAgTCgsKBw7wUPDfCkyhGEg8fATlsw7nDp3o5wqAwEsOFccOyw5fDlk1wwq7CmsO4cMO9W8KFw5PCiQnDmcKvBznCscKcTVcRwrHDssKLYsOBCMKcw6ckMcK7ccKMw5lbwokrwovDtSrCqyXCssKxw5jCo8K7CVcqwp3CkiJww4VwGlXCh8OJw7MucGbDpDnDksKjP8KeRn9/Gn16wrrCtDzCjR7Cnl5Yw7rDtELDk8KnM0/Cn8OORH0awq1PHMOQwpAJJBDDuW/Cl8Kuwr9dPjXCuk3CjjlRKwwsKcKFw5rDh2nDiMOhwo5Vw6bDhwTDpy3CssK/dHrCti3DkcOpYEFxw4jDuGxhw4jCnsK7RiliwrZLw6fCicKuISDDo8Odw6Q0wpbCsEnCkx11SVd3CcOsJsOvwqPDpcKtFcO7woTClQ0iOT4EwpkSNUHCmcKaJsKJZ0Asd8O+w6YFwp1hPjLCuMOTw6PDpht0EcKEwptFacKvw6vDuSrDoTlnPFTCt2wSwrDCssKFJgHDo8OVw6rCqwk9W8KQTcOCw7w6wqE7RsOHw7Maw6TCrjhGw4M5ZjrCusOCCV4vCynCusKWwpzDll7CucOtw7towql1QU4DDMOvQ8OOwqMJOsO0worDo3LDgcK0wrBRah3CjWZvw4Ihw5fDsG04wo7CpRZHB8OMw5jClMOjwoVoS8OecMOKwqZjwq9aw6lQwrICw4LDnX43wqHCqcKGwpnDn8Ksw5B3RsOnw7pYUCN6KzLDh2xaL3FKV8Ocwqxiw4nDvSzDj8Onw6NNw7Q+GlkscsKSJsKMXWjCjcOdwonDgG3DuGnCuMOIGEPDmsOjw7ouCMO4K8KaWsKhw4PDuk7CoMOwBj1bbgfCsUbDu8K8cmAdwr1yZcK1G8KOCcOJVHTCtXLDrRbDkXcpd8K1w7DCnlFBwqPDthFNw6LCtcKjNcOcNMObOsOFwq53w4N9wrAHRVFjK8OsfXQDw5dJw6rCnCRYNcKbZUPDpMK6cMKYw5jDgcKSTcKWejQ5cMOddX3CgcKDw70gHGN1ZsOVYsKqbXXDq8KYwo5LQ8ONw6skXMOgwq0iw5jDnsK2w5bDnsKsECnDgm8mdMOHw6jDhDfDtAQkCsKuK8OTNiIRMz/DssOEwrLDoDtxw5HCgWg9ex9tbzgUwqFXw4HCgcOawpbCmWzCs8Ojw5nCtsKxfcKIw6QFwqtJc8K8wrzCosO/esOEfsKQwrDDvcKRZcOzWMKswpXCgsObRz07wofDqsKsXcKkwooqBBV0w5TCkng9wqHCi8KFNyl3w4coT0/DrXjDlsKAXcOFdcKqL1kEwrHDpMKPMRwjKFtNTcKseR/DncKcwo7CnU0bSsKWw4pKb8OswrYpwpTDgi3Chi8hwpLDpcKHZMOHwr0Jw4d3W8OKw6Qww6M4w4RJw7EuNVbCkTAnw7csw4vCj1l7w6MpOiXCksO2dxN6wrspw7zDmMOow5LDjhLDksKkKAZfbjHCvWpDHiBGSx3DpcOWQhlPw6vDnkcbMMKuwrDCkMOLw6zCucKbw7ljwqPDj8KFWMOqwpnCtMOuw619wqrChRLDtSZhwq/Cm8OuV8K0S8KuTljDqsKKwptCbGkAPMKFwpRjZMOfaMOTw5hGHcOFwqrCvkvCucK3w5vDtsKPwo1OwqzDucOEQxbDvnZnEErCiMO0YMOWacK8ccOgGVHCisOVwr3DpsK/wo/Crl15w4EeVHRlbUBuCMOJw5I8w5TDnsOJUCVZX8OvMcO7wpxywp/Ch27Dj8OKw6HDqUU6PMK9w5IOTxfDscOwdFYPTxfDuUDDoxABEMKiNMKCEsKDEMK4w4gHwohBMBwEEcOsw7xyAkVJw7jDsMKjwrYfYEnCgnxEEBQiQ8K4BsK1TMKAB8KUeBxuw6hBQcOQND4cYmh4HsO9wqwaZMOvUlVZKkcZW8KsdkPDtTjCncK6NW7DkcOOfsKOUsOqw5TDlQp/dsK8TMO7wrl0X8O6a8KyQ1jCoMOawpvClcKHIzBiCgxbw6PDq8O9MsKzw4ZDw6prA23Cvgx6w6FfKcOaw5kHw7FcUMO8w7JtwqjDt8OtAsKdw4h9wrkUwohUUkPDhxdDfsK9P2Rowr4cN1pywrhmw57DicOHB3RbwrzDjTzCgDkowofCmGPDgwXCg8K0KMOXAcOoacOaRVzCh8OKIsOEwq3Cr0TClD4YZ8O0wrx8wosuw4Q6XsOje24tTMO0wqMzRcOdQl9uw50ZXMKgwqfCmF3CmMOJFU1Fw6fCrDPDgVvDj8O1wrXDlMKJw4rDhg7DoFp3W3VSYhRXwqzCssOTw7LCiC/DjcOVEsK9ek4YZ8KpIcKAb8OqDh/ChwdlFi0Uw6jCsEjDq1XCosORJCZ+w4rDszHDnQRow7/Cn8KXYsODJsOvBg3DrAl2McKdeVttw7jDnMOJw6NCCTTCvkfCk0LDvzbDhcKUw63CpMKCQDrDuMOMPMOSLGnCt8KeciRvBcKaw5gHwo1ibMKlc8KKfcK+L8OIw78PwqbDu2tkw7jDoMOFT8OpcMO0w503TcOgVHF9w54ZID0GY8KqPDnDo0PCs8OkTQvChjtyWhbCkz/DucK+wq8bfcO6wohfXsO7w6HCr8Oew7rCvRwDXl7DucKBwqsPw7skIMOQw4BiHWxrwpHDtcKBW8OPw7tjQ8KpPMOWIkzDm1vDgcOow4vCncKDw77Cu19KLCrCtizDosK9woRXwpVEwp7ClmnCqHsdM8K1I0AYacKbF8Oaw6jDi38Dw4I+w7HDow==]]></gravitDesigner:gravitGraphicSource></svg>