<?xml version="1.0" standalone="no"?><!-- Generator: Gravit.io --><svg xmlns="http://www.w3.org/2000/svg" xmlns:xlink="http://www.w3.org/1999/xlink" style="isolation:isolate" viewBox="987 33 156.51 158.587" width="156.51" height="158.587"><switch><g id="Group"><g id="Group"><g id="Group"><defs><filter id="LXjDP0tNymfUSZUb8nRdyOk7Yu5xtZe7" x="-200%" y="-200%" width="400%" height="400%" filterUnits="objectBoundingBox" color-interpolation-filters="sRGB"><feGaussianBlur xmlns="http://www.w3.org/2000/svg" in="SourceGraphic" stdDeviation="2.146804531419514"/><feOffset xmlns="http://www.w3.org/2000/svg" dx="0" dy="13" result="pf_100_offsetBlur"/><feFlood xmlns="http://www.w3.org/2000/svg" flood-color="#1A1A1A" flood-opacity="0.7"/><feComposite xmlns="http://www.w3.org/2000/svg" in2="pf_100_offsetBlur" operator="in" result="pf_100_dropShadow"/><feBlend xmlns="http://www.w3.org/2000/svg" in="SourceGraphic" in2="pf_100_dropShadow" mode="normal"/></filter></defs><g filter="url(#LXjDP0tNymfUSZUb8nRdyOk7Yu5xtZe7)"><ellipse vector-effect="non-scaling-stroke" cx="1065.254857142857" cy="102.29371428571429" rx="71.25485714285713" ry="69.29371428571429" id="Ellipse" fill="rgb(71,71,71)"/><clipPath id="_clipPath_u3hJUoeZdnVFWnv0KTRVbJmib305hnKP"><ellipse vector-effect="non-scaling-stroke" cx="1065.254857142857" cy="102.29371428571429" rx="71.25485714285713" ry="69.29371428571429" id="Ellipse" fill="rgb(71,71,71)"/></clipPath><g clip-path="url(#_clipPath_u3hJUoeZdnVFWnv0KTRVbJmib305hnKP)"><path d=" M 986.155 89.219 L 1014.265 70.737 L 1029.954 81.609 L 1039.106 60.951 L 1061.333 76.173 L 1085.52 64.213 L 1107.093 76.173 L 1110.361 54.573 L 1124.743 64.213 L 1160.697 60.951 L 1139.125 -14.067 L 959.353 4.959 L 986.155 89.219 Z " id="Path" fill="rgb(126,126,126)"/><path d=" M 995.307 176.163 L 1015.573 132.365 L 1039.106 150.669 L 1043.029 132.365 L 1058.718 150.669 L 1075.714 132.365 L 1086.827 150.669 L 1110.361 140.209 L 1135.202 132.365 L 1158.082 185.315 L 995.307 176.163 Z " id="Path" fill="rgb(126,126,126)"/></g></g><ellipse vector-effect="non-scaling-stroke" cx="1065.254857142857" cy="102.29371428571423" rx="47.3912021563342" ry="46.086857142857106" id="Ellipse" fill="rgb(60,60,60)"/><ellipse vector-effect="non-scaling-stroke" cx="1065.2548571428567" cy="105.04950982961991" rx="41.15008086253374" ry="40.01750982961987" id="Ellipse" fill="rgb(70,70,70)"/><clipPath id="_clipPath_XPFMH91XMJrxME6dBbjJDGpPOvp54nNW"><ellipse vector-effect="non-scaling-stroke" cx="1065.2548571428567" cy="105.04950982961991" rx="41.15008086253374" ry="40.01750982961987" id="Ellipse" fill="rgb(70,70,70)"/></clipPath><g clip-path="url(#_clipPath_XPFMH91XMJrxME6dBbjJDGpPOvp54nNW)"><path d=" M 1019.574 97.499 L 1035.808 86.825 L 1044.869 93.104 L 1050.154 81.174 L 1062.99 89.964 L 1076.958 83.058 L 1089.416 89.964 L 1091.304 77.49 L 1099.61 83.058 L 1120.373 81.174 L 1107.915 37.85 L 1004.096 48.838 L 1019.574 97.499 Z " id="Path" fill="rgb(94,92,92)"/><path d=" M 1024.86 147.71 L 1036.563 122.416 L 1050.154 132.986 L 1052.419 122.416 L 1061.48 132.986 L 1071.295 122.416 L 1077.713 132.986 L 1091.304 126.946 L 1105.65 122.416 L 1118.863 152.995 L 1024.86 147.71 Z " id="Path" fill="rgb(81,81,81)"/></g></g></g><defs><filter id="kLnEK7xb6TF4quAO19dhpVmvWhLpHCaW" x="-200%" y="-200%" width="400%" height="400%" filterUnits="objectBoundingBox" color-interpolation-filters="sRGB"><feGaussianBlur xmlns="http://www.w3.org/2000/svg" in="SourceGraphic" stdDeviation="2.146804531419514"/><feOffset xmlns="http://www.w3.org/2000/svg" dx="-5" dy="5" result="pf_100_offsetBlur"/><feFlood xmlns="http://www.w3.org/2000/svg" flood-color="#000000" flood-opacity="1"/><feComposite xmlns="http://www.w3.org/2000/svg" in2="pf_100_offsetBlur" operator="in" result="pf_100_dropShadow"/><feBlend xmlns="http://www.w3.org/2000/svg" in="SourceGraphic" in2="pf_100_dropShadow" mode="normal"/></filter></defs><g filter="url(#kLnEK7xb6TF4quAO19dhpVmvWhLpHCaW)"><path d=" M 1054.389 108.914 Q 1058.028 112.609 1065.129 116.794 L 1066.98 122.962 C 1067.614 125.077 1066.769 127.96 1065.092 129.397 L 1060.074 132.794 L 1087.129 131.794 L 1078.707 127.794 C 1076.733 126.806 1075.129 125.001 1075.129 122.794 L 1075.129 116.794 Q 1080.899 111.248 1083.901 106.788 L 1083.901 106.788 C 1083.974 106.792 1084.05 106.794 1084.129 106.794 L 1084.129 106.794 C 1085.785 106.794 1088.621 105.8 1090.458 104.575 L 1092.801 103.013 C 1094.638 101.788 1096.481 99.036 1096.914 96.871 L 1097.345 94.716 C 1097.778 92.551 1097.328 89.191 1096.341 87.216 L 1095.918 86.371 C 1094.931 84.397 1092.526 81.992 1090.552 81.005 L 1087.707 79.583 C 1087.151 79.304 1086.623 79.148 1086.153 79.103 Q 1085.33 75.625 1084.129 71.794 L 1050.129 73.794 Q 1049.295 77.764 1048.818 81.344 C 1048.457 81.428 1048.071 81.574 1047.67 81.784 L 1044.854 83.262 C 1042.9 84.289 1040.543 86.74 1039.595 88.734 L 1039.19 89.587 C 1038.242 91.581 1037.858 94.95 1038.334 97.105 L 1038.807 99.252 C 1039.283 101.408 1041.18 104.122 1043.041 105.31 L 1045.415 106.826 C 1047.275 108.014 1050.578 108.958 1052.786 108.933 L 1054.389 108.914 Z  M 1051.847 105.759 Q 1047.729 99.26 1048.238 87.706 C 1048.118 87.787 1047.997 87.863 1047.873 87.935 L 1045.889 89.089 C 1043.981 90.2 1042.467 92.893 1042.51 95.1 L 1042.51 95.1 C 1042.554 97.307 1043.973 100.239 1045.677 101.642 L 1046.619 102.417 C 1047.927 103.494 1050.022 104.82 1051.847 105.759 Z  M 1086.16 102.723 Q 1088.93 96.168 1087.408 85.609 C 1087.48 85.653 1087.553 85.696 1087.626 85.736 L 1089.633 86.851 C 1091.563 87.923 1093.129 90.586 1093.129 92.794 L 1093.129 92.794 C 1093.129 95.001 1091.769 97.96 1090.092 99.397 L 1089.166 100.191 C 1088.293 100.939 1087.201 101.858 1086.16 102.723 L 1086.16 102.723 Z " fill-rule="evenodd" id="Compound Path" fill="rgb(181,122,85)" vector-effect="non-scaling-stroke" stroke-width="3" stroke="rgb(70,70,70)" stroke-linejoin="miter" stroke-linecap="square" stroke-miterlimit="3"/><clipPath id="_clipPath_a0nsDD3FmNWFZgw69q72cCcuCfyAHSAT"><path d=" M 1054.389 108.914 Q 1058.028 112.609 1065.129 116.794 L 1066.98 122.962 C 1067.614 125.077 1066.769 127.96 1065.092 129.397 L 1060.074 132.794 L 1087.129 131.794 L 1078.707 127.794 C 1076.733 126.806 1075.129 125.001 1075.129 122.794 L 1075.129 116.794 Q 1080.899 111.248 1083.901 106.788 L 1083.901 106.788 C 1083.974 106.792 1084.05 106.794 1084.129 106.794 L 1084.129 106.794 C 1085.785 106.794 1088.621 105.8 1090.458 104.575 L 1092.801 103.013 C 1094.638 101.788 1096.481 99.036 1096.914 96.871 L 1097.345 94.716 C 1097.778 92.551 1097.328 89.191 1096.341 87.216 L 1095.918 86.371 C 1094.931 84.397 1092.526 81.992 1090.552 81.005 L 1087.707 79.583 C 1087.151 79.304 1086.623 79.148 1086.153 79.103 Q 1085.33 75.625 1084.129 71.794 L 1050.129 73.794 Q 1049.295 77.764 1048.818 81.344 C 1048.457 81.428 1048.071 81.574 1047.67 81.784 L 1044.854 83.262 C 1042.9 84.289 1040.543 86.74 1039.595 88.734 L 1039.19 89.587 C 1038.242 91.581 1037.858 94.95 1038.334 97.105 L 1038.807 99.252 C 1039.283 101.408 1041.18 104.122 1043.041 105.31 L 1045.415 106.826 C 1047.275 108.014 1050.578 108.958 1052.786 108.933 L 1054.389 108.914 Z  M 1051.847 105.759 Q 1047.729 99.26 1048.238 87.706 C 1048.118 87.787 1047.997 87.863 1047.873 87.935 L 1045.889 89.089 C 1043.981 90.2 1042.467 92.893 1042.51 95.1 L 1042.51 95.1 C 1042.554 97.307 1043.973 100.239 1045.677 101.642 L 1046.619 102.417 C 1047.927 103.494 1050.022 104.82 1051.847 105.759 Z  M 1086.16 102.723 Q 1088.93 96.168 1087.408 85.609 C 1087.48 85.653 1087.553 85.696 1087.626 85.736 L 1089.633 86.851 C 1091.563 87.923 1093.129 90.586 1093.129 92.794 L 1093.129 92.794 C 1093.129 95.001 1091.769 97.96 1090.092 99.397 L 1089.166 100.191 C 1088.293 100.939 1087.201 101.858 1086.16 102.723 L 1086.16 102.723 Z " fill-rule="evenodd" id="Compound Path" fill="rgb(181,122,85)" vector-effect="non-scaling-stroke" stroke-width="3" stroke="rgb(70,70,70)" stroke-linejoin="miter" stroke-linecap="square" stroke-miterlimit="3"/></clipPath><g clip-path="url(#_clipPath_a0nsDD3FmNWFZgw69q72cCcuCfyAHSAT)"><path d=" M 1026.51 126.794 L 1038.51 91.794 L 1044.854 101.642 L 1056.51 79.103 L 1052.51 117.794 L 1059.51 90.794 L 1063.51 121.794 L 1071.51 90.794 L 1076.51 106.794 L 1076.51 85.609 L 1090.458 115 L 1097.51 85.794 L 1094.51 132.794 L 1026.51 126.794 Z " id="Path" fill="rgb(181,85,85)"/></g><path d=" M 1054.389 108.914 Q 1058.028 112.609 1065.129 116.794 L 1066.98 122.962 C 1067.614 125.077 1066.769 127.96 1065.092 129.397 L 1060.074 132.794 L 1087.129 131.794 L 1078.707 127.794 C 1076.733 126.806 1075.129 125.001 1075.129 122.794 L 1075.129 116.794 Q 1080.899 111.248 1083.901 106.788 L 1083.901 106.788 C 1083.974 106.792 1084.05 106.794 1084.129 106.794 L 1084.129 106.794 C 1085.785 106.794 1088.621 105.8 1090.458 104.575 L 1092.801 103.013 C 1094.638 101.788 1096.481 99.036 1096.914 96.871 L 1097.345 94.716 C 1097.778 92.551 1097.328 89.191 1096.341 87.216 L 1095.918 86.371 C 1094.931 84.397 1092.526 81.992 1090.552 81.005 L 1087.707 79.583 C 1087.151 79.304 1086.623 79.148 1086.153 79.103 Q 1085.33 75.625 1084.129 71.794 L 1050.129 73.794 Q 1049.295 77.764 1048.818 81.344 C 1048.457 81.428 1048.071 81.574 1047.67 81.784 L 1044.854 83.262 C 1042.9 84.289 1040.543 86.74 1039.595 88.734 L 1039.19 89.587 C 1038.242 91.581 1037.858 94.95 1038.334 97.105 L 1038.807 99.252 C 1039.283 101.408 1041.18 104.122 1043.041 105.31 L 1045.415 106.826 C 1047.275 108.014 1050.578 108.958 1052.786 108.933 L 1054.389 108.914 Z  M 1051.847 105.759 Q 1047.729 99.26 1048.238 87.706 C 1048.118 87.787 1047.997 87.863 1047.873 87.935 L 1045.889 89.089 C 1043.981 90.2 1042.467 92.893 1042.51 95.1 L 1042.51 95.1 C 1042.554 97.307 1043.973 100.239 1045.677 101.642 L 1046.619 102.417 C 1047.927 103.494 1050.022 104.82 1051.847 105.759 Z  M 1086.16 102.723 Q 1088.93 96.168 1087.408 85.609 C 1087.48 85.653 1087.553 85.696 1087.626 85.736 L 1089.633 86.851 C 1091.563 87.923 1093.129 90.586 1093.129 92.794 L 1093.129 92.794 C 1093.129 95.001 1091.769 97.96 1090.092 99.397 L 1089.166 100.191 C 1088.293 100.939 1087.201 101.858 1086.16 102.723 L 1086.16 102.723 Z " fill-rule="evenodd" id="Compound Path" fill="transparent" vector-effect="non-scaling-stroke" stroke-width="3" stroke="rgb(70,70,70)" stroke-linejoin="miter" stroke-linecap="square" stroke-miterlimit="3"/><path d=" M 1054.389 108.914 Q 1058.028 112.609 1065.129 116.794 L 1066.98 122.962 C 1067.614 125.077 1066.769 127.96 1065.092 129.397 L 1060.074 132.794 L 1087.129 131.794 L 1078.707 127.794 C 1076.733 126.806 1075.129 125.001 1075.129 122.794 L 1075.129 116.794 Q 1080.899 111.248 1083.901 106.788 L 1083.901 106.788 C 1083.974 106.792 1084.05 106.794 1084.129 106.794 L 1084.129 106.794 C 1085.785 106.794 1088.621 105.8 1090.458 104.575 L 1092.801 103.013 C 1094.638 101.788 1096.481 99.036 1096.914 96.871 L 1097.345 94.716 C 1097.778 92.551 1097.328 89.191 1096.341 87.216 L 1095.918 86.371 C 1094.931 84.397 1092.526 81.992 1090.552 81.005 L 1087.707 79.583 C 1087.151 79.304 1086.623 79.148 1086.153 79.103 Q 1085.33 75.625 1084.129 71.794 L 1050.129 73.794 Q 1049.295 77.764 1048.818 81.344 C 1048.457 81.428 1048.071 81.574 1047.67 81.784 L 1044.854 83.262 C 1042.9 84.289 1040.543 86.74 1039.595 88.734 L 1039.19 89.587 C 1038.242 91.581 1037.858 94.95 1038.334 97.105 L 1038.807 99.252 C 1039.283 101.408 1041.18 104.122 1043.041 105.31 L 1045.415 106.826 C 1047.275 108.014 1050.578 108.958 1052.786 108.933 L 1054.389 108.914 Z  M 1051.847 105.759 Q 1047.729 99.26 1048.238 87.706 C 1048.118 87.787 1047.997 87.863 1047.873 87.935 L 1045.889 89.089 C 1043.981 90.2 1042.467 92.893 1042.51 95.1 L 1042.51 95.1 C 1042.554 97.307 1043.973 100.239 1045.677 101.642 L 1046.619 102.417 C 1047.927 103.494 1050.022 104.82 1051.847 105.759 Z  M 1086.16 102.723 Q 1088.93 96.168 1087.408 85.609 C 1087.48 85.653 1087.553 85.696 1087.626 85.736 L 1089.633 86.851 C 1091.563 87.923 1093.129 90.586 1093.129 92.794 L 1093.129 92.794 C 1093.129 95.001 1091.769 97.96 1090.092 99.397 L 1089.166 100.191 C 1088.293 100.939 1087.201 101.858 1086.16 102.723 L 1086.16 102.723 Z " fill-rule="evenodd" id="Compound Path" fill="transparent" vector-effect="non-scaling-stroke" stroke-width="3" stroke="rgb(70,70,70)" stroke-linejoin="miter" stroke-linecap="square" stroke-miterlimit="3"/></g></g><foreignObject requiredExtensions="http://ns.gravit.io/"><gravitDesigner:gravitElementRef xmlns:gravitDesigner="http://ns.gravit.io/" xlink:href="#MxfS7IxNzurGwlTcRrzvoEEEdR4hfWn3"/></foreignObject></switch><gravitDesigner:gravitGraphicSource xmlns:gravitDesigner="http://ns.gravit.io/" id="MxfS7IxNzurGwlTcRrzvoEEEdR4hfWn3" version="1"><![CDATA[eMKcw5V6aXPCo8OYwpbDrX/DscOtw6gvw6lyMQ8Vw7EiLsKTwpjChBAgJMOgwrrCogMxCTHCi8KZG8O1w58fUsOaFnLChcK7wrJvw6fDq3jDrcOEDsOlEXvCnXXDtsOZe8KfwrXCkcO+w7nDtMO3wqfDn8KewqJLw5HClk/Dj0/Dv8O2w7TDmz/DvsO5w4MjQcKaw4ZlHTzCjMKVbnPCmgfCvMK0wqgDw7/DqcK3w6bDkgbDj09lU8OPN8O8w6PCicKiWFPDqykqTsKUw78zw5/DtMK3w7nDt8OEw7bCrkpIw6zCrjUNwqISwo0Iw4zDiQkIw40Sw4zDogRJw6DCp8Ofwp9nO8KRLcKvdsOew50uwprCjhIxw7YyUlPDm2MJwobCpTbCgsK0A1TCq8KgPDPDlhZ5wrcDwq92EcOwYcOnw4sSUUbDu8OOGU8twotMwqrCgWhowqM1w5QAw4NVw4cWw6d3O8OiamdzH3Y6w4VMwrwQwpHCviLCscKbw4bDrVpMw7bDkh1VKWnDoVlhKX3Ct1MoXsKnKCrCvMObw5FtwqkAXVpgEGTChcKZwpg7w4LDmSbCs8KSw7TCk24QTwrDtcOdwo7CosK0wqvCnXNfHxNrJVp5w5tUwqzCuQYEMgzDmMKswrbCocOpRcOndcK6P8OXb3YcZX/Cmg8qBMO5w6jDlXUfw4RabgAXW0jCgypfbUHCtXXCj8OYw7bCjcKnSDk6BXLDu8K7wp0xWMOTwo4AJ8K3GMOVw7rCsMKVw6pWw7NPw7pWwozCjBN+FsKnw7TCnWfDuMKJwqdNwp9IL8KKw5HChMOCwrbDsCXCsMKVMFtJR8Kuw6w0wpEKJsKpfcO3S33CtVvDuMOTwpbDlh1AwopuVEtCLEhCZSsCQynDoQbDssOLbMKCNsOvPMKTwqvDncKFE8Ofw63DlsK7wr3ClHAhw6JPw4HCpcOawpXDk8Kew6sKMWFFVMKkwq3DsybDpsOfw6zCmF/Cr8O7RyQfdsOiHsKVwqULwpFaWMOgw7XClcOUw5bDrMOaZcKdRBNMwqTCtCQtesO6w73Dt8OnwqdLEDZDw7PDtFvDnsKmw6nDrX9uw67CncKKw4s1eMOnd8KbSzjCvwBeMBTDhkEEIsOQwrfCv8OPw4DDtcOfC8KKw4AYwogCMMKOwpIwScKgw484QMK8wpAEw7B+F8KIPsO/woIBLwRIw4AQSAAICsKCw7AMw7ofwrU/wqPDosOgw7wqdcOHw6A6w5d7IsOFecKzw74+wrRMwrAwTsOTw63Dh3vDs1vDv1HDjsKMwp/CmMK/w70DwoTCsMOnwrfDn8Ofwp/DvsKYwrHDv8O9CmPCjVTDjg/Do8OYRMOhw543w4LCgCllThAlGcOewoTDvG4kwp/DvsKYEcKCMBTDvSvDiMOWwrk0JAjCkwIDw5shaQPCuQbDk8OJUcKCw6HDjiQgQ8KYb8O+wrEsw7fCtcKewqHDknvDlnnCscK4H8K4wpPCpHrDncOew6QcOcKpaMKGTsOEwq3DlMKWLGzCiMOGe8OWw5XDl107w57Co8OEw6XCmSLCsCk1BX3Ch8KmIW/Csw7Ch8Ocw5Ysw5nCswIKIcOrd8K7b1fCu8OTw50OYDfCkBJpw60owozDh8K8FcKZw7TCmDtkw6NXw5tGwo45IMKjw5/Co8KSwrpGw5diwr7CpGrDhzDCrMO2wo7DrcKDwrLCrMOrdsKueBVHdiDCmSlkeRYfwrJ8MV8Ew65ow6oCw5TCmFDCmMOofsOqwrzClg1hw6diwrAJQsOBYFPCvGfDq8Omw5N8AMK3OSjDucOUacOUwpnDkE7CjMOqc8OQwogxwo3CpXUZemBqw6U9C8O0T8Ozw60LUMOAwrTDhMOyw4/CqEk5wp7Dk8K2wrnDmAPCicOrTsOQw4nDosOaw7zDncOOwr3DmgV3wrtRw48Cw47CplJxLcKqTMKuw4QiYsKvw63DgcKCwpBKCcKkVCLDnsKzPMO5w4RzWFPDimbDhzPCrlTCgXsvw5nDsMKaVkMSTMKocgA2wpTChS3CssKcwqHDsnt1w6DCt0nDo8Kga0fCgcOKAwddwpAcPBkcVcOGasKFwpzCicKNwpHDvMO3wrPDrk/DgzjCgMK9w4DDmEfDliHDoMOzLxDDuELCghDDsMOxA8Ohw7fDhAN+esOiwr3CpcOIwrHCuMO4w4HDpcORw6DDmD/DvQYsDG9LwrjDp8KqQ8OZwrtwJBFXGDxnw6oSd8KLYMKZJMOqw4F2B1LCmTU9w6TCqhPCrC5Ow6rDosKAUMOwwrgXH8KjFSRFw6nDukzClcO8aFLDusO+wobDuiPCrsOFw4EXCEU+HAhCN8OPYsOkC0QuXEs+woMAwoY+w5w5wo9Awp9uw7rCuQVtBsK5XX/DrVR0YcKFYcOPGDxfwr9fw5/DrMOmw6lDN8KtwoN3H3PCqSXCtsOaRmgYwoFtwqLClQgHTUkKwoJ2CXwCHsKww5PCu8KPw59Zw48vA8KveWTDrF/CisOSOMK5fsORc8K3d8KvwonDtcO0Gwg/X8Orw6J3EnM0w5zCrivCicKiw7TDpm1/w4HDnykQJGTDksKVBsOiw6gUwpfCqsK6NhkYwqfDnGPDo8OHQsKNFMKxw7rDtMOHw7tyw68Cw6tHNhLDgV/DoGvCnEMgworDgTDDsn0fEcOsBSDCsMO7w67Cgj/CssKPP8O5YMOCw6Zwwrpew7dIw7/DkV3CuEXDul/Du8OrT8Ouw7rDl8O1KMOVJSIFwojDnsOETcKrYkceU1Jvwrl+Y8OWDQDDuCEXfsKlRwVuw5dhAcKeYDhsJgfCuhTDlXLCiMKDIiHDoSzDn2fCg8O/wpUewoXDh03DkwE5wp54MD7CssOFZsOlGcOMwqZVwq1ywqPDmF7DiQNfw6nDkSliLCcAwpAxR3cXCDtjXsOsVMOgw7HDiGjClDrDosKQw7fClR4FwrJBw6RCbMOXZ0FvIsKHw6bCmHMQccKwwrHCvT1FSMOaV1/DqVHCnMOdMmpeH13Dr0wGwojCjkbDvD7Ct8KyaEvCnsKgw5kLPsO2wpUeNcOBw4JAwpzCo2nCpiLCn8KjLABIw5l+w6VDwrXCgcOXwp0tTsOlV3rCtBtONkzDt8OoETbCqcKOwovCtzHCvA4mw4XDgwzDuUIdwqYsw7hKwo/CtsKiFhwow68yNMKswrhWw45sXzXDocOZbMOQLsKLw7fCnBMWX8Opw5FUZsKDwqBeBcK8EWtZCMOyJsKrE8KTwpnCrcO2fcKHVcKNVn7CpUfCk1VtGMOyGUvDtVTDlcKcwqLCnSjCocO0ZVvDq8O9Xh3DqsOWw7hKwo/CksKqN8Kiw7taCEPCqcKyd8Osw4EZwoNkVcOiwoFvw4fCmRF6w7R/w6FkwoRxHMKFYAzDhzEYJyEYRcOfwo5GeBZyCMKAIxDCgmI4OcOnw7czwoHCki8owoAgKETDgABIEMOIwpzDui8EOsOfB8OCKMKBEwgBYD83w7VJw6TCmcKEw6bDq8O/N0HDqk9TKUknCXPCsMKmw5vCjMOKRsOaHQgZwq/DhcOhBMOqRQ5+JUgba8K/w650w7ciwo9Cwr/DjlzCoR/CicKowp5Kw4smDMO9XG3CmsKvBGnDiHIqX8K4w7o2TcKEwpjDn8OEYFYRbcKLwpzCjm3DiUs2wqh9JUjCncK9wo/Cl1hFwoc2woJSI8KuwoHDhQbCqMO7w5TClsOzwro4w4vDscOwwpUgDcOLMFgdw5jCosOMwoQIE3vDgcKOFcK1HsKSwqYvTADCr8Olw7grQUrDgxJRFVbCscKzB8ODwpJ6dydxVGMVTsKWwohldTzCnMK/EsKkemZeBk7ChcOoMMKmNRLDk8OUw4vCgcKkw6PDnMOadMKVUl9Iw6UrQcKKNCrDlcKSQ8OtBxJNXDATw7DCtsOtwoXCqDEPw6vDoD1tBV8JUsO9GMKqRcOewpXCp8OEw6LClBzDjUUkZcOiEhUOw5pJw4LDtcKIw7pKwpAGVcKUw4sDw5EVw5siAi4IIsOWVHtawqchw6tdwoRhY8OZPyPDrR7Dh8Kha8Oaw6EvJMKJw4wpBsKCJDbCv8O1DMODL8OwLEhBEMKYwpMORBDDqMOnClICfMK+XcO/C8OVKALCvsOMTTRAw4zCogVCw6FZw4hjw59lDMOwAsOMAgAgCcKIw4RAwpLDgMO/JGPCsMOrEMO6AiDDpMOHXSTDuMKTw7Uow7B8wrvDvsKfw6nCmH/CocOdwpnCl8O7QmDDpMOHIMKAPsO/MsK7cA4qEALCicOZPyhAw5zCosOrwp1FZMKtTsKDwqnCsyvCklQOakQxw6vDiBZ8TMOmw63CuMOSRcKSX8KwAG/Ck8KCw48QeD02PsOmwoBJw7jDuRfDogVYw77CgMOIcg7DnD5oLTVSwqvDmgRVT8KQwp12O8K3wqVyZHnCph7DkVLDuxHCll7CkcKVRcKbw7tvw6XDu0dlwptCw5/Dql1lfsOkwrXDpMK4w4jDmhlaLGzDjsK7UHMswpTDiFjDp0LCinnDh8KHZcO+JmsUWsK6w5bCg8OlwoPCiXw3VcKqaDfCoQ84w7F2RXQOw6EVw7bCgVoPLl3Du8Ofwo9vbsOlwqx1EcKtw7N7w71RTcK3KTArOcOnwoXCl8Ohw7vDtDQRw45EwqzDmmzChhjCtHJ6wqvCr8K0wqpLUcKew5x5w4rChsOQwp5XFlQiw7vDrsOMwq7CicONw77CjMKyw6sDRsKtV8OnRAXDq3fCu8ONwpVnecKfT8OmLATChzJgwqPCkcKmw55lw65lSMKjAsKTHExAU8Kbwo7DnsOmwqPDqMOtw5UvwovDtWEFMcOvwrDCq8KFIjPCiwFRw6DClUNNw4dHw5/Dn8KFYErCn8OBdzvDrTbDn8K9TsOSwpHCp1TDosOaw6/ChgDCii46aSXCm8OBw54yXSHCmgLCtMKLw4Z3O8Ojw5N8wpFbbUrDhi/CjMK5w7wNPBjDg10Dw4LDtcO2wrhjworDtcKFbcOIw7fDtcOtwq52w7nDgg4CV0xuIcKOwqXCocKZwqrCqsK0w64AwoDCplk6YjhpSsKvw692wrxfwqR3wr/CsAM+wp3CtkgBJCzCnMKrwqHCthbCj0RBwp/Dm8O9Zk3Ck8K6f8K8w5lVw7hww5DDucOILRZ+wqHDvMOOw40lWMORAcOHbw/DpxY0w5bDpAosY3NeDsOew4lvw6cVbcOfw6LDpT7Dn8Kuw4TDjF1Dwp19w6NkTEd4ZGzCr8OnGMOXOh9LOAJXw68Pwohow6vCu0zCvD/DiMOaw7dkScKWw6JABnBRw7UtwrPCq8KMwo3CnzvDhEErwq1YwoN/w7jDnMO5w4hJGMO8U05Cw6DDnMOKA8OYwr06ID/DuTnDh8O1UEHDp8Orwr91wq5QCsKhwrI2a23CtsKeQMO0wqhtAcOQwpnCvTRedjZNw6zColoPNcOTXcOVwqfCsjN1wrrDnWJ+worDr8K4w4lcwp0PCR1Uw7l5bMO8w4MNw7VaLMKuTnrDusOnw6vDk8OfX8KffnvCvcKNwrw+PcK/wr4VwpDDl8K3CsOyei0hwq/DlxrDssO6ZMOyMcKnwq8Jw7LDm8Ksw6VvwrfDvsOtw7Y3UxPCjMOPw6bCo8KbF8OWw4dqw53DqsOuw4lew7Vow6/DpygxejnDtHrDncOhw5d5EcOMw6rCusOFw7TCvMOFC2thYHpow5xYwqMcacK1AjN9KhDCnh7CuMOyCsKoBXvDjcOfbsO6w45sw5jCjMKcLn07w70KXMOnwr/CgcKqw5t2wqXCs8OUwoVJHkDDg2wrwpx1wq7CmcOWVsKywp4Sw4NIKmg4dQpcw6LDq8K4UcK4w68zf8KHw5bCvsOxwrrCuBHDmRvCrRsocMOEVjrCn8K5w5wjUzZlw6B0wopcwpoxJ11PwppLXVh9bcKuHXHCp3rDhBleMMO1wrfDhkrCl8O6wooFPkDCtzp2W8O+w6oRw7TCskksPD1vwqnDhDhpw4zDnGDChsOxWSwMNyBFWz3Dr8OMd8OnwonCjHjCtcOmwoBHa8K/w4wHwp0vw6DCqMOFNinCksKzQ1HCrCrCiMO3w4Vuw4XCp8K7w7PCm3Vow4nDgsOVwpp9wrQuUsK+wqDCp2Yvwp93A1Mna8KUFlvDiWQsDzgJMBd7Cy/DrXbCqsKgcxzDiyYfC8KiKMOmBsO6w4nDtSgKwrpGDMKcw5hNw5HCt0kLdnvDn0pkwqfCiHkBJ8K4PcKxw7DDkg3CgUnDgMKFw6vDn0E/BcOJecKtC8Oow6nDjEDDtcK5F0Edwpdsw6xsHxHCi8K3HcKfw6shw6rDjcK6PsOFwqLCvsO5wpUgwoDChwAFwqnCpsKKw7jDiXXDpMOuwqLCsxcNc0Y3XDUJGCvDpEYmw7wFwqXDohgLOi8Uwr9yHyHDtgUoJB9UwqIDBsKZwoBOOcK0w4N6woXCr8KQVhXCkFjCh8KUw5bDgBfDjsKjT8Ktwqhvw5fDn8KIe8OcUsOMw7fDvSQfU8KpwqMzMsOqNMKnOcKYcBXDkcOxwqDDuTrDksKBwpfCrTEJWsK/w5LClyHCpkMLwoTDvwzDlCTDlzHCicOJXnjDrsOyFsOKcHcDHMK3wqZHZl7CuMOtw7Zhwrdgw7rDq8OKw7gMGgXDlUw+w5vDosKPw4sXwonDk2bDrhzDpEE/HiQLZcKOwpjDigY7w7/CgkQ7Anc0acOBwrR1wr/DjQgec23DpcOfA3I6w4zCssOCw6/DsUfCpmzDgEAXw4jDosOULcKKwp1NY8Kkw7oqwpR0wrLDoFQbLMK7wo3CvWDCqsODw4zCjMKQwpPCmMO5AcOKXzJJV8OMHHkEw7UzNsKEwqdew7LDusOQw55IwqsNekrDl8K7wo5SBnBuw7PDgi3Ct2DCqsOJwq3CpDN7AsK9Lx/CrV1JZzsbelw+w6HDhCsGMsKiKsOdw7XCkl3DmnrCkXrCuwvCnm7CtH49GRHCsmDDmm8MScOfwrQseMOfw73CvsK6woLChsO2w7TDiMKUwoNGw5LCkyhJwqnCsn4CecK2ORrDm8KzLFBqZg7DuMKuZhZMDzdawrs1cGfCui3Cr8OLT8Oyw7HCkSlNTTHCrcKQJcOsYCUGQSIdagjDk8K1wpzDi1dEAWfDscKCacKZXxF6YMK4M8KNwr7DjVFGN3XDv8OIwrQkd8OaYTLDnVJRfMOUwodXe0fDpcObwpIow4/DgMOBwpXCvQvCvWBawo/Co8KkS2XDmi92w5/CkUVdPcOsOsOzAcO0dMKawqvClCXCo8KzwqzDnsKjw6klwq7DmxjDmjPDrGZEMcOWXivDqcKCw6nDhcKeI8KdN1fDnX3Dtwd+HlphQcO3w4jDtMKwwrrDqMKHw5New6rDtMK1QcOhw6XDgMOJezhmK1tIw7BJw7XCp2XDrk/DmRzCp8OMAcOsw77CnFHCl8OkAcK0w6HDqikqw4TCuXjDhAZ2wojCusONw6oAw7l+IsKhwpkjQz0eLUDCj8KmO8OTw7pWNnfCpsKUw4rCsFfDkMO6EcK0w7PCi8OWwobDi8KswrokNh3Dr8OQw7xIV8OnHQ9rwoMHG3kJwr9Zw5MXwpfDlWXDjsOpH8KdJ8KYw7U2wqZGUmjDqTQ8w5JlB047CSAkMcKmwpQWwqDCggUlw4M7wrDCumrDtcOtO8OCd8KfBnLDhcOqw5sVw5fDn8KZw65Qwp7DlRkWw780wpciacK1w4ZPAsOjwojCl0PDlVLDhnhGw6fCg8OJAcOcFsOFW8KmWcOMJcKUGMKrwovDsXYBwqpMw4HCvHzCoR8eN2rCvz9JacOrXMKUVsKFwrZZw50rwoXCk2YrwrdJbMOOw5nCkUXCu8KMw5NfY0bDpy1ywrjChxRaYMKMLsOAwqfDqTHDuMOjwpXCrsKOFy7Dt8Oyw4FebwxLw4pTw77CmDYXw5rDrnTClcOgw5wFw5PCrQsxw7p6wpvCjMO3w6DDh23CnsKZZcOUAXhcPsK/ZQwrdMORwpPCtsKtWnbCpHc0KMKOw6jDkcK6w6g8csKWw7Mlw5M0UxlddQ3DsMK+w7zDuMOgMsK6w5jChsKfwqpUwr7ClyjCtS3CgR0TcTYaBWZ5wpwqw4TDgcKtw750woTDtsOowpLCqcK5DxhdccK2w7DDosKMwrIOM8KoUMKhwo/CoMKrw4HDtVvClSbDuzDCoQE9LGIvw6HDj8OYwph4WS3Cu8KIfVwww4UKwoPDkTkbW8OUUznCnD0iECLDscK4fMK4woBUNMOdw6zCu8Kgwp57wq5hw5rCrzMsw4ZzdMKFw6paw5PCt8OewoJpw67DjQ5kw5sCwr9vwpRoZnNAEMOawqczSsOtIcKZFEt5LSLDpFTDusOEPktXIT3DqsOIwqDCpMKsUi99ehENVsOfbHrDsg5Kw60OwpzDjsKUw4InYXo8w5JBGsOiw6LDhFR8acKuEnEUwr0jwr0+wqjDpXHDlU8ewrBgagVzwpwyK8OzO8OCw5xZwrzCvsK1FsKvb8K9w4XDq8Kiwrl4wr11F8Kvw5fDtsOidcORX8O8woLCvBA4woDDggQGIQQGwqDDgDwEwqLCj8Otw4XDtXPDlMOXW1shw7o3w5kdXsOAw7M0wpUVUiBWTMKiwq7CuDYQB8O0wq1Aw7AkGsOQw5QbwrvDr8Oaw752f8KUXhgOOcKCEFvCsFPDmzYYNVQ2wrJeRXJMYcKSX8K8PsO9MTcUw78VVcO/w63DpHLCs8OkaT9tw7NIHHwtHHUjw5/Cm8OWcFI8w5rCnsKYwpVCwqMAwqErw51gLcKcdyZHVmfDjQ1xD8OIUFbCr0nCvsKbHkHDj27CvGYTwpNrTMKew6IMVMKmwrtCw5LDrXNLw5DDiMKRwpvCsHEBwqo4M8KCMMK1HyHDvcKWw7vDpTdWw6fDj8OEdMKPw5NJwpoLCsK/F8Knw4d6wrrDn8Oqw65QwonCqn5ww41DLcOlesKEwo7DmMOKak/CtcKfw6YowrRUKMK9w5TCssK6woTCnMKne0jDrcO2w7EMwppZw4DCpzTChRwaw5vCtcKcAMOBw515w5jCn3bDtMKEw7ASSMKUw6TCulI4Jloww53DkjPCqBJuwoE7wqgSwozCjMK+w6E9w7gRFMOQBcOewpzDpMKyGRx6woUcUcKkOMOIwqY5N8OXKBHDiMOqwpvDrMO5w450w7xWw41VKhohw67Cr0BBRMO0woQDAA0NGkUmwqIRwqpcMzDCiwTDvsKqQmVuwr/CrFLDrcKcw6hqw40jwosqwrXCnys/wpvCjcOYw6PDvsKZwopbw45RwrfDs8KTwqJtDcKCw7HCs0t5MB3CvxjDkjJuTHLDgcKUwroufw3Cn8ORw7vDssKrbMOeO8KGw7oVeyzDksOVdk/DssKOwq5lwrPCmi/DtgcGPlEIVibCjMKZSwrDiMOswoQFw5NTOVcPKcONcMOzfzpNOSZYMcK2byRmMU7CtcK6O1ZjXitKBMO2SQ8bw4rDpzTDrcKqw615wq3DtcKgw4VSWBjCgcKnwpjCniLCp2BaQD9scsOUBMO+woU0wr3DqhvDqXjDvMOkPGNvcysSWifCikABIsOKw7BMw59sFMK2w6nDp0N+w6TDmMOdwpvDq8KxYm5iJMOsNH7CklwGZsKEHkvDoxfDhD7DqcO+w47DpFx1wpI3wqkBNsKlDzHCm8OFfhbDq2xuwoPDhl/DocOkIR9Ve8OubWgXGcOvwrHCg8KKwrPCjsKSw7LDuMOTXDrDlhvDmEA7DMOjw6dxwpBWwqguaHXCoRdaw4xsw6lew58vC8KKOMKrTmXCu1nCgArCm8Krw6LDs8O8T8KSwrk9wrXCrMKhw4fChHc8woUuwrvCrsKoXcKywpU0w58mZsOJGMKLA8K2YAprwpDCpMKvHGbCkcOkFHdtIigKegTCpVJYNS8abFIqIMKGw63CkcKeTsOYETogLcOowpJeLC3Dj8OiG8KCwozDrQHDoMKvQMKLPDrCtsOGwqbDmSNjJWjDo8OOw7fDqB0FbcOzaToDJRdNC8KmN8KEwpVULQ54w4DDh2bDr8KLAMO6w6hTWmMsLR3DicKiP8KpLArCqcK1J8OzwqgEDlzCmirDq8OyJC7CmMO6w7TDnMKGwrDCpz1yX8O+wprDoGfDgcKLwq/DkcOHw4J5QAx/O8KoeBrClcKhTULDlcKcbMKxwrzDksKnw4ArZBrDisKHw6XDrmMHURdJGcK7M8O9Ik4jP8Orwo5MwpjCulXDimjDoMK+ETc4B23CqMOmw5RLwqkCw6zCljXDjhDDp8O2YFtHWMOyP8Kcw6QRw6swO8KzPcKJRVXCiQTDlsKdw49mI8KiwoTDp8OtwrvCg33DtMOHw49Jwr7DgsKLbEIFY0MaR3TDqMK6OiB1wopxQUpBSsOLw5fDj8OXJMO/w73Cr8KeSsO+KMOTwp/DsywSwoTCoB96GAnDv8Knwp/DoWDDm0wjDQ41ScOcM8KpaMKjw5nCtcOZNkYTw4kMwqPDosOCw7lfw7xGw5DDsMO0w5svw6jDrcKLQcOow6J7QW/Dj0LDn8K+FATCvnNwVcOew55nwpgKw7nCh2hQw5URaQTDiEZ9JUJ3CcKzRsOhwqc/w77DvMKpw4zDrGvChATDnsO9wooBOMOyF8Kfw4owwolYworClmJDwpzCvMOjwpJtw4J7wqJkO8K9wqjCni3CnDcsw7rDqcKPw78Lwo1AdAk=]]></gravitDesigner:gravitGraphicSource></svg>