<?xml version="1.0" standalone="no"?><!-- Generator: Gravit.io --><svg xmlns="http://www.w3.org/2000/svg" xmlns:xlink="http://www.w3.org/1999/xlink" style="isolation:isolate" viewBox="98 788.981 156.51 158.587" width="156.51" height="158.587"><switch><g id="Group"><g id="Group"><defs><filter id="wBxSdJcNnVVybr0G2w7FinUJZdcQF2Rv" x="-200%" y="-200%" width="400%" height="400%" filterUnits="objectBoundingBox" color-interpolation-filters="sRGB"><feGaussianBlur xmlns="http://www.w3.org/2000/svg" in="SourceGraphic" stdDeviation="2.146804531419514"/><feOffset xmlns="http://www.w3.org/2000/svg" dx="0" dy="13" result="pf_100_offsetBlur"/><feFlood xmlns="http://www.w3.org/2000/svg" flood-color="#1A1A1A" flood-opacity="0.7"/><feComposite xmlns="http://www.w3.org/2000/svg" in2="pf_100_offsetBlur" operator="in" result="pf_100_dropShadow"/><feBlend xmlns="http://www.w3.org/2000/svg" in="SourceGraphic" in2="pf_100_dropShadow" mode="normal"/></filter></defs><g filter="url(#wBxSdJcNnVVybr0G2w7FinUJZdcQF2Rv)"><ellipse vector-effect="non-scaling-stroke" cx="176.25485714285708" cy="858.2750272363826" rx="71.25485714285713" ry="69.29371428571426" id="Ellipse" fill="rgb(71,71,71)"/><clipPath id="_clipPath_7Sl8XIC50IPmk5qZUghidbi2z62aiGrY"><ellipse vector-effect="non-scaling-stroke" cx="176.25485714285708" cy="858.2750272363826" rx="71.25485714285713" ry="69.29371428571426" id="Ellipse" fill="rgb(71,71,71)"/></clipPath><g clip-path="url(#_clipPath_7Sl8XIC50IPmk5qZUghidbi2z62aiGrY)"><path d=" M 97.155 845.201 L 125.265 826.718 L 140.954 837.59 L 150.106 816.933 L 172.333 832.154 L 196.52 820.194 L 218.093 832.154 L 221.361 810.554 L 235.743 820.194 L 271.697 816.933 L 250.125 741.914 L 70.353 760.94 L 97.155 845.201 Z " id="Path" fill="rgb(126,126,126)"/><path d=" M 106.307 932.145 L 126.573 888.346 L 150.106 906.65 L 154.029 888.346 L 169.718 906.65 L 186.714 888.346 L 197.827 906.65 L 221.361 896.19 L 246.202 888.346 L 269.082 941.297 L 106.307 932.145 Z " id="Path" fill="rgb(126,126,126)"/></g></g><ellipse vector-effect="non-scaling-stroke" cx="176.25485714285708" cy="858.2750272363824" rx="47.3912021563342" ry="46.08685714285707" id="Ellipse" fill="rgb(60,60,60)"/><ellipse vector-effect="non-scaling-stroke" cx="176.25485714285713" cy="861.0308227802881" rx="41.150080862533656" ry="40.017509829619826" id="Ellipse" fill="rgb(70,70,70)"/><clipPath id="_clipPath_8lHwwh3xUkWtFKugVoFYJORrOA6g36Xc"><ellipse vector-effect="non-scaling-stroke" cx="176.25485714285713" cy="861.0308227802881" rx="41.150080862533656" ry="40.017509829619826" id="Ellipse" fill="rgb(70,70,70)"/></clipPath><g clip-path="url(#_clipPath_8lHwwh3xUkWtFKugVoFYJORrOA6g36Xc)"><path d=" M 130.574 853.48 L 146.808 842.806 L 155.869 849.085 L 161.154 837.155 L 173.99 845.946 L 187.958 839.039 L 200.416 845.946 L 202.304 833.472 L 210.61 839.039 L 231.373 837.155 L 218.915 793.832 L 115.096 804.82 L 130.574 853.48 Z " id="Path" fill="rgb(94,92,92)"/><path d=" M 135.86 903.691 L 147.563 878.397 L 161.154 888.968 L 163.419 878.397 L 172.48 888.968 L 182.295 878.397 L 188.713 888.968 L 202.304 882.927 L 216.65 878.397 L 229.863 908.976 L 135.86 903.691 Z " id="Path" fill="rgb(81,81,81)"/></g><defs><filter id="zyjINi3g22TUMQIs9eKagJJx33XhHyvE" x="-200%" y="-200%" width="400%" height="400%" filterUnits="objectBoundingBox" color-interpolation-filters="sRGB"><feGaussianBlur xmlns="http://www.w3.org/2000/svg" in="SourceGraphic" stdDeviation="2.146804531419514"/><feOffset xmlns="http://www.w3.org/2000/svg" dx="-5" dy="5" result="pf_100_offsetBlur"/><feFlood xmlns="http://www.w3.org/2000/svg" flood-color="#000000" flood-opacity="1"/><feComposite xmlns="http://www.w3.org/2000/svg" in2="pf_100_offsetBlur" operator="in" result="pf_100_dropShadow"/><feBlend xmlns="http://www.w3.org/2000/svg" in="SourceGraphic" in2="pf_100_dropShadow" mode="normal"/></filter></defs><g filter="url(#zyjINi3g22TUMQIs9eKagJJx33XhHyvE)"><path d=" M 164.637 869.308 C 163.107 868.794 161.382 868.505 159.558 868.505 C 153.268 868.505 148.161 871.943 148.161 876.177 L 148.161 876.177 C 148.161 880.411 153.268 883.848 159.558 883.848 C 165.162 883.848 169.826 881.12 170.777 877.53 L 170.955 877.53 L 170.924 876.741 C 170.944 876.554 170.955 876.366 170.955 876.177 C 170.955 875.851 170.924 875.529 170.865 875.214 L 172.221 848.204 C 172.246 847.697 172.657 847.156 173.138 846.996 L 193.432 840.232 C 193.912 840.071 194.343 840.351 194.393 840.855 L 196.695 864.127 C 195.523 863.852 194.263 863.703 192.952 863.703 C 186.662 863.703 181.555 867.14 181.555 871.374 L 181.555 871.374 C 181.555 875.608 186.662 879.046 192.952 879.046 C 199.242 879.046 204.349 875.608 204.349 871.374 C 204.349 870.659 204.203 869.966 203.93 869.308 L 200.808 833.495 C 200.765 832.999 200.553 832.647 200.335 832.709 L 200.335 832.709 C 193.458 834.674 185.807 836.474 183.258 836.728 L 183.258 836.728 C 180.71 836.981 177.002 837.804 174.983 838.564 L 174.983 838.564 C 172.965 839.324 168.421 840.657 164.842 841.54 L 164.842 841.54 C 164.729 841.568 164.637 841.995 164.637 842.493 L 164.637 869.308 Z " id="Path" fill="rgb(181,122,85)" vector-effect="non-scaling-stroke" stroke-width="2" stroke="rgb(60,60,60)" stroke-linejoin="miter" stroke-linecap="square" stroke-miterlimit="3"/><clipPath id="_clipPath_fD3F7XkWAWMWOejki5nQAp78dsfmDzTN"><path d=" M 164.637 869.308 C 163.107 868.794 161.382 868.505 159.558 868.505 C 153.268 868.505 148.161 871.943 148.161 876.177 L 148.161 876.177 C 148.161 880.411 153.268 883.848 159.558 883.848 C 165.162 883.848 169.826 881.12 170.777 877.53 L 170.955 877.53 L 170.924 876.741 C 170.944 876.554 170.955 876.366 170.955 876.177 C 170.955 875.851 170.924 875.529 170.865 875.214 L 172.221 848.204 C 172.246 847.697 172.657 847.156 173.138 846.996 L 193.432 840.232 C 193.912 840.071 194.343 840.351 194.393 840.855 L 196.695 864.127 C 195.523 863.852 194.263 863.703 192.952 863.703 C 186.662 863.703 181.555 867.14 181.555 871.374 L 181.555 871.374 C 181.555 875.608 186.662 879.046 192.952 879.046 C 199.242 879.046 204.349 875.608 204.349 871.374 C 204.349 870.659 204.203 869.966 203.93 869.308 L 200.808 833.495 C 200.765 832.999 200.553 832.647 200.335 832.709 L 200.335 832.709 C 193.458 834.674 185.807 836.474 183.258 836.728 L 183.258 836.728 C 180.71 836.981 177.002 837.804 174.983 838.564 L 174.983 838.564 C 172.965 839.324 168.421 840.657 164.842 841.54 L 164.842 841.54 C 164.729 841.568 164.637 841.995 164.637 842.493 L 164.637 869.308 Z " id="Path" fill="rgb(181,122,85)" vector-effect="non-scaling-stroke" stroke-width="2" stroke="rgb(60,60,60)" stroke-linejoin="miter" stroke-linecap="square" stroke-miterlimit="3"/></clipPath><g clip-path="url(#_clipPath_fD3F7XkWAWMWOejki5nQAp78dsfmDzTN)"><path d=" M 148 887.981 L 157 871.981 L 162.75 876.981 L 168 852.981 L 172.89 864.817 L 172.162 838.275 L 188 881.981 L 186.738 835.603 L 190.899 872.981 L 204.83 841.776 L 203.484 854.334 L 211.227 844.579 L 217.176 851.568 L 223.147 845.856 L 231.513 859.455 L 161.018 900.594 L 148 887.981 Z " id="Path" fill="rgb(181,85,85)"/></g><path d=" M 164.637 869.308 C 163.107 868.794 161.382 868.505 159.558 868.505 C 153.268 868.505 148.161 871.943 148.161 876.177 L 148.161 876.177 C 148.161 880.411 153.268 883.848 159.558 883.848 C 165.162 883.848 169.826 881.12 170.777 877.53 L 170.955 877.53 L 170.924 876.741 C 170.944 876.554 170.955 876.366 170.955 876.177 C 170.955 875.851 170.924 875.529 170.865 875.214 L 172.221 848.204 C 172.246 847.697 172.657 847.156 173.138 846.996 L 193.432 840.232 C 193.912 840.071 194.343 840.351 194.393 840.855 L 196.695 864.127 C 195.523 863.852 194.263 863.703 192.952 863.703 C 186.662 863.703 181.555 867.14 181.555 871.374 L 181.555 871.374 C 181.555 875.608 186.662 879.046 192.952 879.046 C 199.242 879.046 204.349 875.608 204.349 871.374 C 204.349 870.659 204.203 869.966 203.93 869.308 L 200.808 833.495 C 200.765 832.999 200.553 832.647 200.335 832.709 L 200.335 832.709 C 193.458 834.674 185.807 836.474 183.258 836.728 L 183.258 836.728 C 180.71 836.981 177.002 837.804 174.983 838.564 L 174.983 838.564 C 172.965 839.324 168.421 840.657 164.842 841.54 L 164.842 841.54 C 164.729 841.568 164.637 841.995 164.637 842.493 L 164.637 869.308 Z " id="Path" fill="transparent" vector-effect="non-scaling-stroke" stroke-width="2" stroke="rgb(60,60,60)" stroke-linejoin="miter" stroke-linecap="square" stroke-miterlimit="3"/><path d=" M 164.637 869.308 C 163.107 868.794 161.382 868.505 159.558 868.505 C 153.268 868.505 148.161 871.943 148.161 876.177 L 148.161 876.177 C 148.161 880.411 153.268 883.848 159.558 883.848 C 165.162 883.848 169.826 881.12 170.777 877.53 L 170.955 877.53 L 170.924 876.741 C 170.944 876.554 170.955 876.366 170.955 876.177 C 170.955 875.851 170.924 875.529 170.865 875.214 L 172.221 848.204 C 172.246 847.697 172.657 847.156 173.138 846.996 L 193.432 840.232 C 193.912 840.071 194.343 840.351 194.393 840.855 L 196.695 864.127 C 195.523 863.852 194.263 863.703 192.952 863.703 C 186.662 863.703 181.555 867.14 181.555 871.374 L 181.555 871.374 C 181.555 875.608 186.662 879.046 192.952 879.046 C 199.242 879.046 204.349 875.608 204.349 871.374 C 204.349 870.659 204.203 869.966 203.93 869.308 L 200.808 833.495 C 200.765 832.999 200.553 832.647 200.335 832.709 L 200.335 832.709 C 193.458 834.674 185.807 836.474 183.258 836.728 L 183.258 836.728 C 180.71 836.981 177.002 837.804 174.983 838.564 L 174.983 838.564 C 172.965 839.324 168.421 840.657 164.842 841.54 L 164.842 841.54 C 164.729 841.568 164.637 841.995 164.637 842.493 L 164.637 869.308 Z " id="Path" fill="transparent" vector-effect="non-scaling-stroke" stroke-width="2" stroke="rgb(60,60,60)" stroke-linejoin="miter" stroke-linecap="square" stroke-miterlimit="3"/></g></g></g><foreignObject requiredExtensions="http://ns.gravit.io/"><gravitDesigner:gravitElementRef xmlns:gravitDesigner="http://ns.gravit.io/" xlink:href="#nXGwAMfgI1dmePtywHp08by353tukkQQ"/></foreignObject></switch><gravitDesigner:gravitGraphicSource xmlns:gravitDesigner="http://ns.gravit.io/" id="nXGwAMfgI1dmePtywHp08by353tukkQQ" version="1"><![CDATA[eMKcw5VZaW/Do0jCksO9L8Kew4V+KcK3wovDt1HDgALDi8O7wpB4wonCtxrCjcKBeMKJwpdIworCpEjCkcKDw77Dr0vDicKSZcOXwox7anpqwoFdwpsyw6Rkwr7Cl8KRwpERwpEvw4nCvz3DvcO3w5PCt8KnfVvCn8KawqfDp8Knw794w7rDtsOrw58+acKJw4sya8K6w7hDW8Kzw6vDk8KlISzDqy7CjsKewr7DtcOtKX5+asO6bsOpw7DDqxNFwrHCtjFSVFYow7/CtXTDusOLw7IJWGF/woJpPxLDg1jCrsKiCSI2YFjDuG4pUMKrw7NmZTzDvcO2wrzDoCTCtsK5w6DDggcOGMKwUcOuWAjCjcOTw5ILZyZswrhWwoHDk2LDqMKldlrDl8O7Ow7CvMOgw7bDgBsuwqnCmcKiJjfCq3HCp8KVY2PCn8OFwrbCscOAwpwieXc3SMOxLMOdccOEBcOnc284FjnDphpEw6LCp8KVJ8OKPCTCkTXCt8KzFWguwplCw6Bswq9/w4UpwpTCsMKhKCp5w6BEw5UVwoQdw6DCjhQtw5YSFRrCqMKPbsKnCjnDrMKoDsOEwo/Cq1ccRRkXw5zDtjE/bUjCssKdUMKfAsKVwpZZFcKzwrLCihBWwr5AasOdwozDujvCrnvDhXHClMO/w514A8OVw49aZcKNwpnDp8KEw7V+wpbCu8KYw7Bmw5DDk8KcDjxMShvDnMOmR203FMOIOQ/CnD96wrw/w5fDpDpLw4nCrcKZN8Kdw4vCnys1w5JUclhcXcKSdzvCk8Ovw6x0DWnCv8KvVkVqwq9aFcOjdcK+wo7DiMKkwqzDt8KTwoAhO8OCw5PDrn7DqS7CuHfDvkwkwrvDtyRHw6U3woBDKsKlBsK7DMK1KsKdw41hHx0iwpAmw652Fhdcw4tJb8OjaSZhw41KwpNFwrlQw7BCwqwVXsOowpE7wq4eDB5eb8KZG8KOw7l6WT/ConjDg03DhmAKwrzDp8KtWMKKw5nDqgrCgsOXLAvCqMKMw5cTw4nDqMKPw5DDocOpwrfDn8Kewp/DmjjDqcOPw73Dk8K3w6pUwpbDl8O/dlXCmMOWw60leMKXwrt9wpssX8KAFwzChXEQwoEIw7TDtsO3GcK4w7zCvsKgCMKMwoEoAMOjKAnCkwTDusO8C0gALwBIwr7DtcOEwp4xEn0BMcKIJEEQWcO6w6LDoMOCw7rDly5aaHFww7lWw67CpsO4MsOYPcKTwrLCql/CvzbCvcOPwrAkK0vDvcOtw55yw6vCr8ONYsOyE8OzwpdfQQh7wr59fnvDun3DocO+w48Lwo03UcKVcMKewqZ+wp84wpHCmcOETMKzw6JESV7DgWoiWBPDucO0w7vDghAnwokUXUjDtG3Dm8KTIEzCigzDrCfCpA9UBkwXwoEMw4PCg01AwqbCuHTDvsKxNMKPwozCkcKhw4pHw5rCpUPChywrLsODDsOlSlRvwp8Zw43DksOjczxwwp3DjmwPw4o9w63CusOLwrIFwo8ww6lpw7fClGwNwrcIc8K8wox2TkjDtQPDrsKsFMOXPilCIQp3w5zClwsufRdeYmzDrcKowphqw4HCvcK0w5XDjhPCkh/CtcONIG8ycsK7dw9QcA9Lw6oSXsOvw4ZzDsONKGDCggcMw4Nuw5TDrHQCw7RNIcKaLcOhem3DoMKNw4XChzR/N17CukPCnTNJwp3DhUPChDZUwr9NZE4lfTrCq0PCi8Kke8OqLV3DlcOvw4Y7ZcKoC8KwYBTCih5wZsKLwpHDpAPDoHDDgnYnS8OwPMKvS8OuacKww7luwrwSZ8OaJDhAcMKNw5BNez7DlBMGw4PChQzCjMKZIAbCpsKCw51xwrsLLn7DoGRmC0vDpnYaw6Y9VsO6GzXCmQ/CoToAwpnCs8KPB8K6w50Mw7c0L8K+wrdTw4tkUA8tDB3DnWJrHHoNK8KywrzCsDPDlVzDocOHGXnCl8OmDFU9w4oDw4/CjCs3SMKwDMOdwrfDhMOsAhYwDsKbKU7Cm8KKbQY9U8O/w73CtMO7wrvDpiXDr8KgFwx+NBHDjzjCjMK8ABgJwoMQwokCGEbDgMKPwrwDfnrDnsOdMiTCqMObKG4/AsKCw7HDqRvDsA54wp3DgSNVwrfClG8lE8KJw6zDhHPCuMKdwodiwqcjw5hBwpY2wrFuwoHDlMOBwps/wqTDqjbDpsObbcK5w4MBwrEWw7AwC8O2PCTDr8OLdU41w4JkUxvDp8OKw7ojwp7DhcOBFwhFw57DvAdCV8OHYsOkC0TCvsOzLMO5DMOiw5jCh8KOAMOxwrzDuMO2BcOCUQDDgiEYwoPCiWXDuj/CtcKeLSTDl8Orwp87FX3Ch8OCwpY6Cy/Dl2/Cl8Kbw4MyfMKyK8K7w7jDrmPCrsO0wqTCk8Khwoo9I8Kyw73CnsKXw6DCuG9IUTTDmjgiw6AzwpbDnn18wrd6w7kawofDvUfCi8KjwrZuw4x0F8OVI3fCvXvDmV7CnsK+woHDsMOzwqUswr4awrFEw4PDtcK6GFE3w6HCssOsL8O4w50EwoLChGzDumjCgDg6Z8KNwqbCrW0Gw4bCqV3DkEfCmcOYIXXCpj3DvX7Cn8OuQ2DDvcOIQiLDuAtMwoIQAMKBw6hSDMKQw5d1RMKwF8KAw4AewqsLw77DiDoiP3cdwrElwpwuw5cjw5J/dBXCrsKRw77Dj8O9w7V3w67DusOzesK0LsKsOMKJDsK7Zg4oS8KQGMKeZMOPO1zDhWLCr8Ofwo3CucK8w79Mwo/DujbDjFnCuMOXFTnCi8KkJcK+wqlPwrnDj8K7w652Q8OvwrbCtU/DjcKfw6nDkRZBw6V2wpxWIMKtwrInD8OFwpp0w43Dljxcw4c0CcOlZsOCfsKmR8KTUHcVwpvDhsOWFivCuU1uw5fDpDHDmcOSPcOIw5XCqcOXHSHDrjM9wprCng/CqwTCtcKjcx/CmsOVMWRiwoXCl8OhPsO0bcKXNQ/DsHHDuEzCj24Ywrhcw7zDrsOgwrBBJ8KcwprDs8K6w6PCthF7w5rDsGs5OcKUw7NnenQSw5bCk8KQwoIlw6zCphPClTDDqsKyQ2jDuQDCs8Kcw5rDjsKsCjHCn8OpUVrDnynDtMOBw4IcZcOSwo7Di24Xwp7DtkLCtcOsVsKzERQowonCoMKfw6nDkQwSw4TCosKTARw9w7gNPRfDklnDjsKcw418wp7CmCjDlUAHw7pMwo8CDcKtRsKOw41TWy5hw5dowr5uQMOGZQrCm8KbJsKXMUXDvDM9esKUD8Kjw6hkTFhXwonCkArDrsKiwrU6OsKLZlrDt8KOBXrDvFTCj8KKCMOYDx4rSmVAw4h+ZcOwwqHDo2rCiwLDrsOawrkpScKnw7oXNkYYw4fDkSVvcRzCg3ESwoJRw7TCtjPDgsKLwo5DABzCgRAUw4PDicKlwpg/w78CwpEvCMKJwqIIDmIkAcKCEAw9w6MYw7ZCw4AQDiAwwrDDuBUif27DrsKTw4gzCS3Dl8O/NUHCmifCm8KmLsOYw7PCucOUZsKTwpzCu34wCMOJR03DjsKdOXQrJcKfCVLDisKEYVEvZ3EOw5HCs8KSwoDChsKjwoBBw6lWwo0FwpDDumAXwp8JUsOKFhRFPgMMwo5xw6Z6wol2IxzDiMKjwo7DrsOAAMOSw5PDs8Owwpkgw5UpODR5UxpHwpLDqMOnw4M2wooPMMOhYsK5FMKqw4TCmcODw4PDjwRpK21Xw4dTwq7Dr2dOw7fCisKewpgGwqMfJkgtwqzCiAvCmgPDu8KZIC3DicOdwqLCthvDgRQUZzTCp2nChcKKwp5hRcKHw5PCkMORE2PDo8KfCVJNPBHCo0PCrcOtY2PCt8KYw6HDlsKbGjnCgmZBOcOwUmA6w6QzQWo4w7oKwpHCt8Okw6pAMcK+w67CoMOyw5nCp3nCsUpSwpnDlE3ClGw+E8KkK8KGS8KOwoLDlFfDjGzDmlsuw7fDmnxWwrvCgFjCt8KEP8OtwrfDnWfCgsK0wpvCoSDDqDQJw5/CpQEgwpbCoTLDkScOWyUyKsKee3jCk8O/wozCvMO7w5gOLXkHwoMvAMKAYghIEADCvBwACcO8GSfDiBcYAGEIASASw7jCoMKdfsKGJiXDgMOnw6vDtcO/UMKQIsOgw4tywo4GwohFwrdAKAxjKMO2wqpkLsKnw6lFwqTCkAREYsOgw4XChcOfK8KZRcKBEcOYw6JpeHEnwoQTAEQQP8O5woTCvSzDjcO1w7rDn1Yywrdqw7bCgzLDhhPDjcOMAMO4w4rCsR/DsiA6ezUpDDnCv8OewrrDk8O5QMOHwrlpwo06Q27DtsOnwrXChk/Dl8O0w4jCpcOsYCDDpH7Ds8OATVbClcKicgHCjsOjw4oudMKhWQHCpMK5wo3CpAHDgA57Hz7CvcKeKzMKOhp4w4zCmQ/DnEhtw4nDs8OEwqbDh8KQwqrDmljCngohb8KQXsKTw6gjw5YRKGJdcRYCwrUGw4Ibw4rCu8OzYWrCnsOaIA3DhiY1wr1lf8Ksw5MDScKXHHdGwofDkmJ9w6fClsO+w4xwKcKnw7pjPBRKw7EiwphHwoLCq0nCiEt2wofCig7ClsK6WBYqZcKtQyXCvsOjw7oLTn53wr7Dt1TDicKzWDodHRPDj1bDk04vwpR+SCzCmMKyJcO3wqhRV8Kcw69BwogBw68Gw7PCsV3DhFDCmk1iwqDCuXMCeCR8JF1DQsOIFMObWm0aaGl4H8OvKsOvwqTDh3hVfsKWwoQOw6PDl8OWCkrDuTjDglTClMOWFcKbwossJMOgwpNDfcOFNcOyCjUILzcefsKRI3FoCMK2wpPDpz0Lw4DDqcKuwoTCg0N6KMO9JWM6w4jDs8OpD8Kyw6LDncO8bMKiNiluMkDChsKdZcKrWU8zwq40AHHDliN0VA3DjMO7woBTw549NsOcbsOJw4bDpy12TBnCpMOjwpVBw5rCg8OTHMOEwqfDs0jDpDR6wrhtFyx7HcOvYcKnwqTCm0FGw44ow5YGwpZWJwAWCMK5A2vDgFjCrsKhwrIfbsKywpBiw4ULbsO9GA/DjsOhw5VGw6FBWTLDt1RKQMKbFcKCcjA4w64VSMKuCsK0wr/Do1bDn8KNwpc3R3Ruw4PCsG0OCsKORmzCsSHDijJnw7PDo8KIwqzDpcK3bVRiw7XDq8O8HsK4RRlrKjTDkB3CnhEEw5N6wpvCtDIMYT4mCmwyw5h8f8Ocw4gcwr/Ck8OZasOcbXhCQMKJw7YYT8OsGsORwqZWdXliDcO3XBnDpMO7w65fw5guwojCpW4BS8O5AggUw4IRwpxcdsKKRXBhEMKCwqEQwrEUOhTDgcKefwFeFlUGYiDCgsKCEAHDoggJLAfDrxdgw6kDw4MkwrnDvMK3dMOFw6HDp19AEHnCuXxHMATDg8KWw47ClwMvw7xCLsKlD8OFLsOVEcODfsO2M8KOw4tuwoIuw5fCv8K1wqHClMKzU8ObQMOoFkLDoMObwrPCmXgrASzCvRRXc2LDjmvDvsOwwqFaw7oSw4VowoHCscKHw7zCg3bCqsK7GcKZw6E6w7AdZ8OUwrjCs8KxL8K1K8OrP8Kuwog0FwTDhsKpwrfDqcOCwrjCr2TClMO1w5jDgCAwwqx2Zz7Cq8KkMR4oPz3CmcKjccKGKELDpC/CmnzDuUBWw6Abex/CuCLCr0UywoU3Rm3CpMOvwqhaF8OUa041V8KYw4zCl05cw5QVw58LwqXDowNEX8KlwqRSX8KOWRfCqcKhw6jDtjvDpMKFwp1GKsOuwq3DqcOCw645K8OMwqgpwoXDocOew5gnw4rDq3NDDSBIwp3Cj1ppwqp7LDMNXTN8wolewrHCvHhjf0V6w6QfUcKtw5HCtgvCoGnDrQTCkMOfVGoBw7pMRyEtwpbCgT3CgMOFaHzCs8OqworCrMOGwoDCscOfw4/CucKCw6Frw4PDrcK5O3nDmMOBTcKnwpcqG8KgwpIDGmvDg8KswqXCkcKYcMO+dArDksO0ZsOVdcKCD8OkwoV9KQXDoVvDkzXDjWrCvDIyJ39nwqjDnMOswrjCuAM3wolNZsOQcMKsw4Jtw5UZwr1LKifChcK3wodgwrrCsXPDh8KkNHpUesKjGsK+w6TDn1PCuT58cMKyTMOQZ2tkNyJPFsKzTMOYwqpZAwk+woBxecOFKVFVGU04wr7DgxXCvAPDosKKwpXDrE4bUkEgH8ObIHnCpMOIWMKVc8KFWCfDsG02e03Cr8KMw6NYXMKRbyZ8dHvCrDHDtsK4w4Zpw5jCj8KgwrQVWcKRKUzDm3cHw5LDpiBiNMOuw7FxRR4Vw7/ChhTDn8KaRMKYBm7DrCI+VEYPa8OXwobCm8KCwpXCuE3CpyNddl5TWcKkF8KyNcKow5XCpiPDjmDCksOhVG3Dn8OYNXLCmcOiHsOPH1TClXg0w7JCwqMewovDimvDuxHDmjgKLXAOdRLCiyM3cQQPwpvCngvDgsKqZ8KDN8KrRBg/GsK9w5dTw7c5N0DDkBnCg0VRwo85wocHMWoPXULDkMKROcKyQcKmwrTClgVNw53CscOAAcONwrTDlXt8w6xBwrY1cm/DvUbCtcKHwpDCpcOGw5fDu8Kvwo9aw43CmcKZe8OUacKrw5vDgHYow6M4Lx/Cm8OUwrIkw4QmIxTCnsKxwptVwqVWwqwMJFxfwpEXwqoaWsKCwpLDnAzDr8Kow7YGwpvCgcOYw4rDiVxOV8Ogw5UxFik9Uz3CvyrCnXogOcOoZhXDrMKEawPDmA9vVF8CTjUAQsKmH8K+WjvDosKuwrdawq5lwqxVw4R0ShkyQiPDrcKRwprDniN2JcK2N8Krw47CtcKtGHgLw5PDtwnDtsKDIhvDk3DCoh/CvsKawqXCvMOlfXAfwqvCuBXDjyPDnsKhB0jDnB/DolrDnx/Cu8KKwpJuVsOZwoXCsn7Ch8K8wrDCh8OHwoJ9a8K6wrBrw6lMGlnCvn1Xwp0OwqnDqsKKSxjDpcKJFScwUcKcwoYdwq91w4EoRcKZw5xuK8O5Hh9Xw6TCvMKiw63Dj8KpwpQTbcKVbMKUEsOGw6hia8KUwrQqQRgFUnNww6hUw4hAf8Kzw6oVwqnDl2/CocO2OmfCi3vClxPCvQ/Du8KICSfDm303WFzCssOeHmgxIcOKXcKWw6ZpF8ORw7nDjcKqw5cJwr4hL8OsXyzDgHhrwrrDisOIwrJwwozDqcKDwqHDi0kYbxLChUgFHmPDtyfCpcOHJV1Xw4QJwqg9DHTClcOkw4bDvsKKwrwZw7rDin5tAg/DrVsZw6VPwohtfMO5wrB1TGvDpUTCusOaOSNkLiZPwpHDr0LDmXIuIQI5w44pwrbCmm/DrMOEwqw4w4ZXw7LDixsVw5ohG8KDCMOoL8KPwoAUNjvDqcOIw5LCkR5jexXCrFDCgMOrNsK7VcKzw4bDkhrCnMKlEsK9WQUQw4rDhgAEw6bDiz0gwrvDksOeGBMfwr3Co8OaRsKFDsKYwoIhw7vDvVHCgCrCj2vDpMOdOMOhw6bCqiPDuMKDL8Kdb1bCpRLCsCBTw6fCj8KowqgNwq9WwowtIcOHw6zCmMKgwqrDmMKUHsKow6sNXMOHDmh5Q3PCs8OKFcOtwpXCgcKew70vw4DCjcKKBSTDikDCmsOkw6tDMMKZbcKlw7oGw4zCsWHCjMOYU8K0wqkTME/Csi7CqDNdw5LClBjCvlkVdwhjwpzDh8KvV8OkJ1QzwpY1WUYbCcKBWMObwp7DkMK4wpI5w6XCosOnDi3Cpwk8wqfDnMKsw5ocBsOcGMOKB1XCoifCg8ORRMKrwq/Cj8OjwoJKwqphwqXCkyxZDgRNw6QrwqXCsjdrJVjCryzDvBDCuUfDr2YVRsKxwoBRDMONH1FRXcKQw4LCh8K+wqHDucOlwoxKH8OlE8OQQFbDhEBmwp3DiMOwPMKUN8KrwrgYb8KNw5PCqsK9Ii9Uw6bDrmtgVMKBw7jCrjrDrcO8GcK3PEFswopBwrXDpmHCknTDhsOdbMKHw5LCp8KAVcKXw4PDjX0FwqMkM8OqwrPDu1bCncO+AcKVw5AWwohvw4rDu0bDn0xuw6LCtMKWwpdKJxwldsKxw5DDuFnCk8Ocwqxaw4PDniLCqMOaR8ONwrwKwqXCqsKkwr8+wo46w4TDisKFw5bCp1HDkDp1w6PDrDZyPcOnVsK/LcOlwpBXwonCsC/Ci8O7Tn9BwrbDoSvDskdVMHg9w4nCg8OPw6jCol7Dn8O/IMOPMAzCvsKQBMO4w7EVw53DjxDCrSAEw73CkGrChcO+w7DChcKFQ1TCnsKaBjt8dHg6w4TCqcK0MMKNfF/Ckgdpw49Bc8Kzw7rCk8Kvwo3Djk/Dn35Bwq9vwo/DkHcvwo9uwqLDucO2w6YIwrzDm8KwwprCoMKtwpHDgxZdY8OEFi0kSApZYMOjWFsuwpXCl8KSw6w/w73DvsO7wp91w7RdcmPCqMKxK1rCuyvDpQzDoiDDnMOeTMKaw4ZswrfCvMKbK8Orw7HCvMOtwp7DvsOtEUJsO8OtdsKeTsKtwptgJ8KFLcKxw6N7LcKQwpHDiMKuGC89M0/Cv8O/D1FRwpJm]]></gravitDesigner:gravitGraphicSource></svg>