<?xml version="1.0" standalone="no"?><!-- Generator: Gravit.io --><svg xmlns="http://www.w3.org/2000/svg" xmlns:xlink="http://www.w3.org/1999/xlink" style="isolation:isolate" viewBox="1215.49 592.413 156.51 158.587" width="156.51" height="158.587"><switch><g id="Group"><path d=" M 1263.799 659.591 L 1264.683 648.669 L 1280.645 651.095 L 1274.495 635.73 L 1282.887 643.217 L 1284.121 630.875 L 1291.177 641.345 L 1298.088 630.401 L 1299.816 638.053 L 1303.158 630.597 L 1308.805 633.342 L 1311.767 628.652 L 1320.509 634.72 L 1279.947 674.709 L 1263.799 659.591 Z " id="Path" fill="rgb(181,85,85)"/><g id="Group"><g id="Group"><g id="Group"><g id="Group"><g id="Group"><g id="Group"><g id="Group"><defs><filter id="nOvZFA07YrLmyvVHuxLqJgHjEsP5DzXW" x="-200%" y="-200%" width="400%" height="400%" filterUnits="objectBoundingBox" color-interpolation-filters="sRGB"><feGaussianBlur xmlns="http://www.w3.org/2000/svg" in="SourceGraphic" stdDeviation="2.146804531419514"/><feOffset xmlns="http://www.w3.org/2000/svg" dx="0" dy="13" result="pf_100_offsetBlur"/><feFlood xmlns="http://www.w3.org/2000/svg" flood-color="#1A1A1A" flood-opacity="0.7"/><feComposite xmlns="http://www.w3.org/2000/svg" in2="pf_100_offsetBlur" operator="in" result="pf_100_dropShadow"/><feBlend xmlns="http://www.w3.org/2000/svg" in="SourceGraphic" in2="pf_100_dropShadow" mode="normal"/></filter></defs><g filter="url(#nOvZFA07YrLmyvVHuxLqJgHjEsP5DzXW)"><ellipse vector-effect="non-scaling-stroke" cx="1293.7451428571433" cy="661.7062857142857" rx="71.25485714285719" ry="69.29371428571426" id="Ellipse" fill="rgb(71,71,71)"/><clipPath id="_clipPath_VFzO9A38JucPhhR6HHJtEEIGgcC0QTcS"><ellipse vector-effect="non-scaling-stroke" cx="1293.7451428571433" cy="661.7062857142857" rx="71.25485714285719" ry="69.29371428571426" id="Ellipse" fill="rgb(71,71,71)"/></clipPath><g clip-path="url(#_clipPath_VFzO9A38JucPhhR6HHJtEEIGgcC0QTcS)"><path d=" M 1214.646 648.632 L 1242.755 630.149 L 1258.445 641.021 L 1267.597 620.364 L 1289.823 635.585 L 1314.01 623.626 L 1335.583 635.585 L 1338.851 613.985 L 1353.233 623.626 L 1389.187 620.364 L 1367.615 545.345 L 1187.843 564.372 L 1214.646 648.632 Z " id="Path" fill="rgb(126,126,126)"/><path d=" M 1223.798 735.576 L 1244.063 691.777 L 1267.597 710.081 L 1271.519 691.777 L 1287.208 710.081 L 1304.205 691.777 L 1315.318 710.081 L 1338.851 699.622 L 1363.693 691.777 L 1386.573 744.728 L 1223.798 735.576 Z " id="Path" fill="rgb(126,126,126)"/></g></g><ellipse vector-effect="non-scaling-stroke" cx="1293.745142857143" cy="661.7062857142846" rx="47.3912021563342" ry="46.08685714285707" id="Ellipse" fill="rgb(60,60,60)"/><ellipse vector-effect="non-scaling-stroke" cx="1293.7451428571433" cy="664.4620812581901" rx="41.15008086253374" ry="40.017509829619826" id="Ellipse" fill="rgb(70,70,70)"/><clipPath id="_clipPath_26xLvYwA94BjFKUsjAZgRspak6zlSnc3"><ellipse vector-effect="non-scaling-stroke" cx="1293.7451428571433" cy="664.4620812581901" rx="41.15008086253374" ry="40.017509829619826" id="Ellipse" fill="rgb(70,70,70)"/></clipPath><g clip-path="url(#_clipPath_26xLvYwA94BjFKUsjAZgRspak6zlSnc3)"><path d=" M 1248.065 656.912 L 1264.298 646.238 L 1273.359 652.516 L 1278.644 640.587 L 1291.48 649.377 L 1305.448 642.47 L 1317.907 649.377 L 1319.794 636.903 L 1328.1 642.47 L 1348.864 640.587 L 1336.405 597.263 L 1232.586 608.251 L 1248.065 656.912 Z " id="Path" fill="rgb(94,92,92)"/><path d=" M 1253.35 707.122 L 1265.053 681.828 L 1278.644 692.399 L 1280.909 681.828 L 1289.97 692.399 L 1299.786 681.828 L 1306.203 692.399 L 1319.794 686.358 L 1334.14 681.828 L 1347.354 712.408 L 1253.35 707.122 Z " id="Path" fill="rgb(81,81,81)"/></g></g></g></g></g></g></g></g><g id="Group"><defs><filter id="AHiQ901xkxmEbJgZOgrtHig09aQh5QCl" x="-200%" y="-200%" width="400%" height="400%" filterUnits="objectBoundingBox" color-interpolation-filters="sRGB"><feGaussianBlur xmlns="http://www.w3.org/2000/svg" in="SourceGraphic" stdDeviation="2.146804531419514"/><feOffset xmlns="http://www.w3.org/2000/svg" dx="-5" dy="5" result="pf_100_offsetBlur"/><feFlood xmlns="http://www.w3.org/2000/svg" flood-color="#000000" flood-opacity="1"/><feComposite xmlns="http://www.w3.org/2000/svg" in2="pf_100_offsetBlur" operator="in" result="pf_100_dropShadow"/><feBlend xmlns="http://www.w3.org/2000/svg" in="SourceGraphic" in2="pf_100_dropShadow" mode="normal"/></filter></defs><g filter="url(#AHiQ901xkxmEbJgZOgrtHig09aQh5QCl)"><path d=" M 1268.349 647.686 L 1316.112 636.458 C 1316.464 636.376 1316.665 636.208 1316.562 636.084 L 1316.562 636.084 C 1315.632 634.967 1314.008 633.567 1312.938 632.959 L 1312.938 632.959 C 1311.867 632.351 1310.213 631.717 1309.245 631.544 L 1309.245 631.544 C 1308.277 631.37 1304.922 631.833 1301.759 632.577 L 1273.738 639.164 C 1272.332 639.494 1270.713 640.296 1270.126 640.952 L 1270.126 640.952 C 1269.538 641.609 1268.768 642.813 1268.406 643.64 L 1268.406 643.64 C 1268.044 644.467 1267.736 646.105 1267.719 647.296 L 1267.719 647.296 C 1267.715 647.594 1267.997 647.768 1268.349 647.686 Z  M 1283.49 637.022 Q 1283.416 635.218 1283.49 633.196 C 1283.894 632.544 1284.763 631.059 1286.52 630.646 L 1288.431 630.197 C 1290.188 629.783 1292.26 629.628 1293.054 629.85 L 1293.054 629.85 C 1293.848 630.073 1294.828 631.68 1295.241 633.437 L 1295.391 634.074 L 1298.544 633.196 L 1298.051 631.934 C 1297.393 630.252 1296.474 628.526 1295.998 628.082 L 1295.998 628.082 C 1295.523 627.637 1294.356 627.158 1293.395 627.014 L 1293.395 627.014 C 1292.434 626.869 1290.226 627.086 1288.469 627.499 L 1286.558 627.949 C 1284.801 628.362 1282.87 629.117 1282.25 629.633 L 1282.25 629.633 C 1281.63 630.15 1280.839 631.27 1280.485 632.133 L 1280.485 632.133 C 1280.132 632.995 1279.967 635.735 1280.076 637.537 L 1280.076 637.537 L 1283.49 637.022 Z " fill-rule="evenodd" id="Compound Path" fill="rgb(181,122,85)" vector-effect="non-scaling-stroke" stroke-width="2" stroke="rgb(60,60,60)" stroke-linejoin="miter" stroke-linecap="square" stroke-miterlimit="3"/><clipPath id="_clipPath_KcrfthoZbgzziTfDwpVyBIbZR8ytWKtR"><path d=" M 1268.349 647.686 L 1316.112 636.458 C 1316.464 636.376 1316.665 636.208 1316.562 636.084 L 1316.562 636.084 C 1315.632 634.967 1314.008 633.567 1312.938 632.959 L 1312.938 632.959 C 1311.867 632.351 1310.213 631.717 1309.245 631.544 L 1309.245 631.544 C 1308.277 631.37 1304.922 631.833 1301.759 632.577 L 1273.738 639.164 C 1272.332 639.494 1270.713 640.296 1270.126 640.952 L 1270.126 640.952 C 1269.538 641.609 1268.768 642.813 1268.406 643.64 L 1268.406 643.64 C 1268.044 644.467 1267.736 646.105 1267.719 647.296 L 1267.719 647.296 C 1267.715 647.594 1267.997 647.768 1268.349 647.686 Z  M 1283.49 637.022 Q 1283.416 635.218 1283.49 633.196 C 1283.894 632.544 1284.763 631.059 1286.52 630.646 L 1288.431 630.197 C 1290.188 629.783 1292.26 629.628 1293.054 629.85 L 1293.054 629.85 C 1293.848 630.073 1294.828 631.68 1295.241 633.437 L 1295.391 634.074 L 1298.544 633.196 L 1298.051 631.934 C 1297.393 630.252 1296.474 628.526 1295.998 628.082 L 1295.998 628.082 C 1295.523 627.637 1294.356 627.158 1293.395 627.014 L 1293.395 627.014 C 1292.434 626.869 1290.226 627.086 1288.469 627.499 L 1286.558 627.949 C 1284.801 628.362 1282.87 629.117 1282.25 629.633 L 1282.25 629.633 C 1281.63 630.15 1280.839 631.27 1280.485 632.133 L 1280.485 632.133 C 1280.132 632.995 1279.967 635.735 1280.076 637.537 L 1280.076 637.537 L 1283.49 637.022 Z " fill-rule="evenodd" id="Compound Path" fill="rgb(181,122,85)" vector-effect="non-scaling-stroke" stroke-width="2" stroke="rgb(60,60,60)" stroke-linejoin="miter" stroke-linecap="square" stroke-miterlimit="3"/></clipPath><g clip-path="url(#_clipPath_KcrfthoZbgzziTfDwpVyBIbZR8ytWKtR)"><path d=" M 1262.772 650.47 L 1265.483 647.636 L 1271.719 647.365 L 1270.719 641.365 L 1280.417 645.513 L 1275.719 640.365 L 1283.915 643.196 L 1287.204 639.954 L 1292.204 641.324 L 1300.714 637.458 L 1301.072 639.043 L 1305.556 636.642 L 1310.517 636.355 L 1314.164 634.698 L 1321.536 634.699 L 1275.723 651.433 L 1262.772 650.47 Z " id="Path" fill="rgb(181,85,85)"/></g><path d=" M 1268.349 647.686 L 1316.112 636.458 C 1316.464 636.376 1316.665 636.208 1316.562 636.084 L 1316.562 636.084 C 1315.632 634.967 1314.008 633.567 1312.938 632.959 L 1312.938 632.959 C 1311.867 632.351 1310.213 631.717 1309.245 631.544 L 1309.245 631.544 C 1308.277 631.37 1304.922 631.833 1301.759 632.577 L 1273.738 639.164 C 1272.332 639.494 1270.713 640.296 1270.126 640.952 L 1270.126 640.952 C 1269.538 641.609 1268.768 642.813 1268.406 643.64 L 1268.406 643.64 C 1268.044 644.467 1267.736 646.105 1267.719 647.296 L 1267.719 647.296 C 1267.715 647.594 1267.997 647.768 1268.349 647.686 Z  M 1283.49 637.022 Q 1283.416 635.218 1283.49 633.196 C 1283.894 632.544 1284.763 631.059 1286.52 630.646 L 1288.431 630.197 C 1290.188 629.783 1292.26 629.628 1293.054 629.85 L 1293.054 629.85 C 1293.848 630.073 1294.828 631.68 1295.241 633.437 L 1295.391 634.074 L 1298.544 633.196 L 1298.051 631.934 C 1297.393 630.252 1296.474 628.526 1295.998 628.082 L 1295.998 628.082 C 1295.523 627.637 1294.356 627.158 1293.395 627.014 L 1293.395 627.014 C 1292.434 626.869 1290.226 627.086 1288.469 627.499 L 1286.558 627.949 C 1284.801 628.362 1282.87 629.117 1282.25 629.633 L 1282.25 629.633 C 1281.63 630.15 1280.839 631.27 1280.485 632.133 L 1280.485 632.133 C 1280.132 632.995 1279.967 635.735 1280.076 637.537 L 1280.076 637.537 L 1283.49 637.022 Z " fill-rule="evenodd" id="Compound Path" fill="transparent" vector-effect="non-scaling-stroke" stroke-width="2" stroke="rgb(60,60,60)" stroke-linejoin="miter" stroke-linecap="square" stroke-miterlimit="3"/><path d=" M 1268.349 647.686 L 1316.112 636.458 C 1316.464 636.376 1316.665 636.208 1316.562 636.084 L 1316.562 636.084 C 1315.632 634.967 1314.008 633.567 1312.938 632.959 L 1312.938 632.959 C 1311.867 632.351 1310.213 631.717 1309.245 631.544 L 1309.245 631.544 C 1308.277 631.37 1304.922 631.833 1301.759 632.577 L 1273.738 639.164 C 1272.332 639.494 1270.713 640.296 1270.126 640.952 L 1270.126 640.952 C 1269.538 641.609 1268.768 642.813 1268.406 643.64 L 1268.406 643.64 C 1268.044 644.467 1267.736 646.105 1267.719 647.296 L 1267.719 647.296 C 1267.715 647.594 1267.997 647.768 1268.349 647.686 Z  M 1283.49 637.022 Q 1283.416 635.218 1283.49 633.196 C 1283.894 632.544 1284.763 631.059 1286.52 630.646 L 1288.431 630.197 C 1290.188 629.783 1292.26 629.628 1293.054 629.85 L 1293.054 629.85 C 1293.848 630.073 1294.828 631.68 1295.241 633.437 L 1295.391 634.074 L 1298.544 633.196 L 1298.051 631.934 C 1297.393 630.252 1296.474 628.526 1295.998 628.082 L 1295.998 628.082 C 1295.523 627.637 1294.356 627.158 1293.395 627.014 L 1293.395 627.014 C 1292.434 626.869 1290.226 627.086 1288.469 627.499 L 1286.558 627.949 C 1284.801 628.362 1282.87 629.117 1282.25 629.633 L 1282.25 629.633 C 1281.63 630.15 1280.839 631.27 1280.485 632.133 L 1280.485 632.133 C 1280.132 632.995 1279.967 635.735 1280.076 637.537 L 1280.076 637.537 L 1283.49 637.022 Z " fill-rule="evenodd" id="Compound Path" fill="transparent" vector-effect="non-scaling-stroke" stroke-width="2" stroke="rgb(60,60,60)" stroke-linejoin="miter" stroke-linecap="square" stroke-miterlimit="3"/></g><path d=" M 1304.73 634.05 L 1310.719 634.074 L 1273.795 643.072 L 1277.083 640.213 L 1304.73 634.05 Z " id="Path" fill="rgb(81,81,81)" vector-effect="non-scaling-stroke" stroke-width="1" stroke="rgb(60,60,60)" stroke-linejoin="miter" stroke-linecap="square" stroke-miterlimit="3"/></g><g id="Group"><defs><filter id="Ea1FFGmEQWMBos6AAQxrngpeZaL0Ofa8" x="-200%" y="-200%" width="400%" height="400%" filterUnits="objectBoundingBox" color-interpolation-filters="sRGB"><feGaussianBlur xmlns="http://www.w3.org/2000/svg" in="SourceGraphic" stdDeviation="2.146804531419514"/><feOffset xmlns="http://www.w3.org/2000/svg" dx="-5" dy="5" result="pf_100_offsetBlur"/><feFlood xmlns="http://www.w3.org/2000/svg" flood-color="#000000" flood-opacity="1"/><feComposite xmlns="http://www.w3.org/2000/svg" in2="pf_100_offsetBlur" operator="in" result="pf_100_dropShadow"/><feBlend xmlns="http://www.w3.org/2000/svg" in="SourceGraphic" in2="pf_100_dropShadow" mode="normal"/></filter></defs><g filter="url(#Ea1FFGmEQWMBos6AAQxrngpeZaL0Ofa8)"><path d=" M 1275.239 657.907 L 1276.924 658.204 L 1289.202 699 L 1319.771 691.814 L 1313.225 649.671 L 1314.691 648.305 C 1316.012 647.075 1317.105 644.61 1317.13 642.805 L 1317.142 641.99 C 1317.152 641.268 1316.591 640.823 1315.89 640.997 L 1269.542 652.529 C 1268.841 652.703 1268.648 653.296 1269.11 653.85 L 1269.924 654.828 C 1271.079 656.215 1273.461 657.595 1275.239 657.907 Z " id="Path" fill="rgb(181,122,85)" vector-effect="non-scaling-stroke" stroke-width="2" stroke="rgb(60,60,60)" stroke-linejoin="miter" stroke-linecap="square" stroke-miterlimit="3"/><clipPath id="_clipPath_MNodeJXxaTHb3MTtozd7oSqVyo6VyAMA"><path d=" M 1275.239 657.907 L 1276.924 658.204 L 1289.202 699 L 1319.771 691.814 L 1313.225 649.671 L 1314.691 648.305 C 1316.012 647.075 1317.105 644.61 1317.13 642.805 L 1317.142 641.99 C 1317.152 641.268 1316.591 640.823 1315.89 640.997 L 1269.542 652.529 C 1268.841 652.703 1268.648 653.296 1269.11 653.85 L 1269.924 654.828 C 1271.079 656.215 1273.461 657.595 1275.239 657.907 Z " id="Path" fill="rgb(181,122,85)" vector-effect="non-scaling-stroke" stroke-width="2" stroke="rgb(60,60,60)" stroke-linejoin="miter" stroke-linecap="square" stroke-miterlimit="3"/></clipPath><g clip-path="url(#_clipPath_MNodeJXxaTHb3MTtozd7oSqVyo6VyAMA)"><path d=" M 1268.859 706.91 L 1269.743 695.988 L 1285.705 698.414 L 1281.875 660 L 1291.615 691.814 L 1294.492 660 L 1296.236 688.664 L 1303.607 654 L 1304.875 685.372 L 1310.998 669 L 1313.864 680.662 L 1316.826 675.972 L 1325.568 682.039 L 1325.568 700 L 1285.006 722.028 L 1268.859 706.91 Z " id="Path" fill="rgb(181,85,85)"/></g><path d=" M 1275.239 657.907 L 1276.924 658.204 L 1289.202 699 L 1319.771 691.814 L 1313.225 649.671 L 1314.691 648.305 C 1316.012 647.075 1317.105 644.61 1317.13 642.805 L 1317.142 641.99 C 1317.152 641.268 1316.591 640.823 1315.89 640.997 L 1269.542 652.529 C 1268.841 652.703 1268.648 653.296 1269.11 653.85 L 1269.924 654.828 C 1271.079 656.215 1273.461 657.595 1275.239 657.907 Z " id="Path" fill="transparent" vector-effect="non-scaling-stroke" stroke-width="2" stroke="rgb(60,60,60)" stroke-linejoin="miter" stroke-linecap="square" stroke-miterlimit="3"/><path d=" M 1275.239 657.907 L 1276.924 658.204 L 1289.202 699 L 1319.771 691.814 L 1313.225 649.671 L 1314.691 648.305 C 1316.012 647.075 1317.105 644.61 1317.13 642.805 L 1317.142 641.99 C 1317.152 641.268 1316.591 640.823 1315.89 640.997 L 1269.542 652.529 C 1268.841 652.703 1268.648 653.296 1269.11 653.85 L 1269.924 654.828 C 1271.079 656.215 1273.461 657.595 1275.239 657.907 Z " id="Path" fill="transparent" vector-effect="non-scaling-stroke" stroke-width="2" stroke="rgb(60,60,60)" stroke-linejoin="miter" stroke-linecap="square" stroke-miterlimit="3"/></g><path d=" M 1289.202 667.288 L 1291.134 660 L 1295.394 687.874 L 1293.067 695.454 L 1289.202 667.288 Z " id="Path" fill="rgb(81,81,81)" vector-effect="non-scaling-stroke" stroke-width="1" stroke="rgb(60,60,60)" stroke-linejoin="miter" stroke-linecap="square" stroke-miterlimit="3"/><path d=" M 1297.49 661.834 L 1299.422 654.546 L 1303.682 682.42 L 1301.355 690 L 1297.49 661.834 Z " id="Path" fill="rgb(81,81,81)" vector-effect="non-scaling-stroke" stroke-width="1" stroke="rgb(60,60,60)" stroke-linejoin="miter" stroke-linecap="square" stroke-miterlimit="3"/><path d=" M 1305.49 653.364 L 1307.422 646.076 L 1311.682 673.95 L 1309.355 681.53 L 1305.49 653.364 Z " id="Path" fill="rgb(81,81,81)" vector-effect="non-scaling-stroke" stroke-width="1" stroke="rgb(60,60,60)" stroke-linejoin="miter" stroke-linecap="square" stroke-miterlimit="3"/></g></g><foreignObject requiredExtensions="http://ns.gravit.io/"><gravitDesigner:gravitElementRef xmlns:gravitDesigner="http://ns.gravit.io/" xlink:href="#FF8g3i62RpeGCjFiTDtfeaInFBikjr2u"/></foreignObject></switch><gravitDesigner:gravitGraphicSource xmlns:gravitDesigner="http://ns.gravit.io/" id="FF8g3i62RpeGCjFiTDtfeaInFBikjr2u" version="1"><![CDATA[eMKcw617Z8KPw6PDmMOVw6Z/KS/Dni9TLjPChwEMwrwUw4UsRjFJw67CgcOBTDHCi8KZMsO8w5/Cl8Kqw6pqwqlrRsOTM8OjXsK/w57DhcKqWcKCw7rCisOPwrnCh8Onwp7DsMOcwqB/PMO9w7fDk8KPT0lbD8ONw5PDs8OTw796w7rDsW/Dv3htacK8Pl0bwoLCosOuwqLDsMOpw4fCvh3CosOnwqfCpsOvw5Ybw77DtkRRdMKqTxRlMMOyX8OXwpvDvsK0w77DkRnCgsOZw5nCuCUYQcKjGU9kJsKGPMK0wpxMBTTDi3bDvMO4w7TDk8OzwooTw6jDrMKKU27CuMOEw55hPHHCpkTCvhY4UcK9dMOkw5jDqE1OVBLDg8Opw4wpfMODUcO0eMOFacOWF8Kcw6oSB8KoW8KCwprDqcO2O2jCk8KTw6DCsWwIwowawpVYNC5Bw7PCjsOrwq84w7HDlsOfMk4Cwp1uw6XChVIzw4hgwrxEw4nDuMKJSsK8LcK7wodpw5XCi8OfccOLFSfDp19ww6IEX3obw5bDmSZdwpJAwr8Yw5vDkRvCjcKcw7HCl8KcwqfCjibDscKOA8KvOMOhw5ZffmjCicORFcOaw71Uw6NIBsKxRsOHwrZ8GsK1YyhpQgfCnMOfw63CgnzDqG9kw71sCcOEw5TDisK2GSDCoTTCp8KCesK5w5VFw57ChnTCoMKLw5R3w5xfPjzCn8KPw5jCvcKuEUfCrcKFWyfDo8O3BMOnw5vClMOTwqvDgMORwqXCuMOewr18woXCk284w4glw4QxLBsXw6Zod8OCTcOAw65jZcOkMMKrH8KJw4TCl8OkNxzCs8Odwr7DtnfDkzNzw5pUw6PDlTwNwrbCqR/CuAADJ8KMMHHCscK2wr0MExlGwp/DrcKyw6XCr8K4w53CrcK/w6lsw6lbwqEvEXTCq1YVWsKJUhrDkWLClsKHLMK6RcKxwql9w4dJH8O6C0vDtsOCw7DClMK2wrfDo8OUw7HCssK9JWbCnsK6aQvCvwB6wpkXw7jDj8OPwrfDlT7DmHMDwqDDpT4Ew4c9wqzDrBHDjMKbwqzDgh4aw4zDmsOOF8Kdw5HCgC3DtW7Cl8OzFXfCuMOpacO4ByhAw50QwqHDgMKCIMODYzMowrbDl8Oiw7TCjnbDhVMJF08/w73DtMO8w5RGcT/Dt08/VkNRwrzDvsOPwqvCgsK0bsKvw4HCsn7Dm8K3w7HDugF4w4FgHENhEsKGSAglIQh9w74zw7ACIggAwq4tKAjCkgAMwqPDj8K/w5jDtDMkCMOAw4ALwoQQIMKAQzgOwqzDtz/CowTDsEISMMKIIwQEYRgCwq49w7/CvQvDl8KucWDDvVR4S3RVw6g9wrpPVcK/e2vCusKPw7rDuFQUw5rCl8Ovw5bCr8O+w57CrMKPw7VEw7/DqW8gAT4Tw6h6w73DtMO0w4/Dp8K3wpvDvcK6DcKjw7bDq8Obw73DqcOpR8OgDgY8wq/Dv1bDiMKqw4x/wq0tw4XDhcKuLSBwcsOOP1jCl33DrEocWMK4KcKuZMOEJcKrw5lywpXDvcO0w7cowo7ChTXDpTwdBMKKVn09woEOwqU6w5TDnQXCucOAwrV/wrDDrUllZj0pw5QvworDvDx7w707W8KiwqI4NV3DtHvCssOnw5bCunrDmcOpw6bCnRzCjWvCssKUEMKWcsKgw51IwqfDjMKpWzQAw7TDhhjCmMOswoHDnsK+e3Vzw4UFN1w8WsOjNG7DkcOIwp3DisOLdgvDrSsScFNaw5BwfCvDqgrDvsKOe8ONSgnDsAVnWsO6wpFuw6FBG8O3TE7Ct1w1I8OBwo4cKcOaBcKOw7MYe8OvOMOiQzQ0bBtKw4cUZ8OxwppmEsKNTRvCnz1vwrs5ccKRw5JlWcOgDSdTwpxBUVR8w4NlwqDCuh/Dm0PChcO7w44Fw53CuhLCiiVCcVnCgWlrwoJYOHzCjnZKwr/DosKOwrfDp8Orw6sFOgLCgh3Cu1ssNcO8wr1vJ8Onw7LDkkEqw6oNHHvCqj5nJcOqw7DCocK/wqPDhwU8wr0FaU8QD2ZxHMKYwqMHNk4FCWQOw4oRw7TDucO5wqjCo0HCgcKMfcODScK0wplXXMOkOMOLThrCm3onTMO7cMKzwrdiw4/DoVRsAsKNdz3Do8KPegJMw5DClmfCn8OfQMK7wq4PRsKrOWvDjMOeTAPCsT5Nw5s9w79uwpfDrsKKwrvCsyfDnBzDpRjDqsKGA8OUOmNrE8ORUcK3wqk0SEIZwotow4jDoMOew7XDjMKvwrjClhHCvmR5wqjDpcK5w43CkGXCtifDrgPClsKuwpgpBsOyMRxrw44uQWzDvCrDixPDuRccw4rCshXCtHDCk8Osw45MNRHCm3p0IsO9w6TDg8KIwoPDrsOdDsOifk82Q2EcRCACw73DvMO+w7waw6ovKAJjIArDgDhKw4LDpMKaMEgYf0Fww6DDi23DqDNCEi8owolACMKJQQjCgAEQcsOLVMOgw7fDiFQQw7bDvMO5w6/Clngad8KhKm5ewpY+wonDrXAfR3QjMcK8IErCsBJzw6ZCfsKVeGjDrcOYw7YkCMKTPA0fYsOyAFQ6wrzDiX0RwoZHwovCgMOWw5F8TzzDnwrDs1DCn2jCqsK4woUdwrAlwrbCpy7Dkmwjwp9SCcKVTsOKScOOc8KWw6PCu8KIYxbDin8PwrvDrjpsw77DjU3Dij1hF2rClRPCgMKOw6fCi8K4wrHCoMK+w7fDp8OOIyjCrsKYw73DpUvDkcO7w6HCiktvwrhZccKQAsKLNwVTwql7wp1lUcKWMlUBw5c4w4Icw5rCgQXDn8OdwpLCusK6w5ddf8OCAcOMHcKQwpQQbSLDisKWQMOhA24Pw6rDjMKHwrszKsKfw6DDrMKrMMK/w6tvWsOZH8KAwqBYb2keTMOKajjDtVxjU8Oqw4Y8wrFAPzPDr8Ohwqp8w6gPw55bw4pgGTZOXBzDi07Dj8OxwqXDlE9Iw5XClkrDqsKRwprClcK/wofCgcOxwqHCv8KOXMKwGcOFZ31PGxkbFAxzw55lwop0w57Dm1x9CEHDvR3Dp11xw5ENBxrClsOEwrnCucOMwrE5wqtvF3ZKw7zCqMOlFhTDj2NjG8O2w4h7wpjDpx/DtMOMMQMFw7nCgD/CkcOFw4bCgcKBY3HDkcOgUsKQw6vDiHbCjsOOwqnDtcOuw4LCnMKmwqo7w5JiwqkUVsKYwr11wpgkwqDClcONwrPCssKfw4MCw6rDhcKpZMKTwqNgw73Dq2HDt8KzZhJGXggUA8OeX8OIw7N6w4cLCgDDqMKXw7vCvjNBw7gqw6zDvjhFOFIHM15Iw4TDo8Onw6B4GXNPQ8KwUhTCjEgzQcKqXAnDrH3CpB4jwrY9Fh4Ow7A1wocHJz9hITEpdhnDlXDCi0UZw7bCq8OUw59iWBx8woFQw6TCi8O5QMOow5XCrhjDuQLCkXfChiXDl8KnI8OhFxxBw5/Cm2DDuBnDg8OAFxzDgG7CtsO/wr7DqWwVw7J6fcObwqjDqB0Kw4PCnsKxVTXDuMKnw6vCl8Ojw5p9w6wVXcO0bmPCpnDChUFXw7jCnsOmwrd9w4IKcMOUNyTDj8OrbRQSw7DCjMKlw682fsOXesO9GAXDvcOXGsKHbcOdw6xTL8KsJ8Omw7XDm8Orw5zDqsOpw4fClcKIXsKzw6LCmxLCqzfCvF5XJcOqJljCh8O9BX9XwoEgIWtzw5ZBHMK9wpwaVcOdWTTCjFPCnsOfwocnwr5Dw6rDk0rDrsOeH8O3w4bCr37Di0Aiw7gLTMKCEADCgSgGw4PDiMObOCLDmAtAYMK3w5EFfz7Cjh/ChxHDgcK+w68wYsKrN13Cr8KbwqPDv8OWQXh1w7RvwpvDq2fDlsO6w6NsNDZafsONw5zCslRCw6nDlkrCq8Ozwp4Uw6fDhMKbw48Zwo3CgMKIw5U8YsKjw47CmDHDu8OYI8K0bsOsBUnCgnMVw6U5QFvDp8O2wpvCmFk0w6cRG8KNLcO9NGXCncKaHHrCr8OfZcOnw7UracObdsKJwo0Hw6fCtMKgw4pHbMKUw5FjPybCm2PDqw9Iw6jDlsOMcQTClcKSKSRpwrrCkMKCwoPCuMKPw5hoAsOywqwzw7LDh8OFaRVrbMKBwq7DmsOXW8OSFk4EwqErw6rDkXnDhEbCuwvCqMKdw4pWw4zCi1Q9wonCg8KKcMKuD8OvQGYLBsOxHGnDiCM2wqrCg3IRNi3CscKIHU0twqbDj0tbw4NkwofCrMKCOlDDn8KQwo/DmSjDryk4woowCsKfwpJ4A1HDqnHDkcKsEcOdw4jCtmHCisKUNzxiwqPCqsK9NcKlTcOJwqUtwpvClgd2wodBZzMjwofCuMKFw7vCrGjCpMO8ERtNNkvChMKmwo1SUGN0w45AwoQYLBXCocOlcsKqGyAnwpfDoyM2asOtw47DggLCiWZow5QawovCl8O1w4J6QsOvWmbDkThWwoDCjMO9IzbCml/DhkjDrXbDh8OsDF1UCUPDo8O9CcOhMlrCnsOmKsOOVB/Duh1lEcOGcRTCgjEcX8Knw4okBMKjw6jDp8K6CMKvLA4Bw7DClW3CohhOwq7CuXzCnToTw7gLSSI4TMKgCMKCwqzChBTDhcOXwrk0BsKvdBQncBhFw4jDrxvDuSTDskxCw6vDtcKfRkbDt8OxwpJvwqHDkcKbwobCpDkYUcKZwp3DoUzCm1tHwoPChC3CiyfDtiMyejJlw6YEw6NHwph1Q8KAFMKTVMOYw7d0wrzDncKhYnLDik3CuHtERsOtw7MyDcOpw4bCssOZw7nCsjkAwqw8w5tONcK1YitLwoHCpMO1w4AjMsKaw7rDkwE9wp1SdMOhCUVoHBPCjScYwo82Xhgww5TDjMK7wo/DiGjClB4wwrLComDDt3DDrMOYw4Ycw7DCvcKBwplhWjvChcOMZMOHw7TDuMKIwozDqsOKVmLDqcOCw4vDlcKdwrnDmXBQwpLDocOqwoAMwqjCrsKkwrDDm8K4w6AjMioDEMOnOwDDkG0Swox1w5vCisKEw7VSMEAdEkPCn8Kdw5LDrhEZwq1bMyjDp8Ocw580AMK0EVPCqMOWw6I+ayNew47CscK9wpwuw4ojMkpJw7jCrMO0wrM+bsOFYMK7w47Dik/CgGbClSjCqMKZwoQEQMKCFj0iwqPCqnsww7Q6SMOoKsOIIl3CsRJiFnnDrsKYe8OzZVLCsMOlw7I9wqLDrsOrdsOoNcOqwrAXZMKtwqoITMOAw7DCtcOtGSXCoRccwoZQAkIBwozDvMKqw6B+Dz56XcKvwrpew78XwpJRBHxZwqfDkADCscOaDEJhGEPCsTcWA8K8ACsBAEgCIjHCkCTDsF9mwqPDiAvCgkEAAcKuwpYFSQDDvMOObBR4fsK9w77Cj8ORwpg/NMOVWcOzN8OxZcKmA8Kswq7ChUEvw5fDrMK+Pj4Ow4DDhE93GsOYccKnVBHDo8K2w70Wwpl8w5sCw5hTWCFBwpvCtnULworCkMOyw4c0woDDiBcMwrpNAcKIX8OTw6DCqEZGwqUVWDnCowd6w6hSw63CmGAjw6jCpMKHJsOCwpIJwp/DrjQAXzsEwp8xHH0BwoDDuycEMcOsBSXDsMKbEsOQfRd1wrzDr0xzH2DCkCXCqcKhwpnCt1XDh1LCgcOPwpbDhcKRLzXCucO8woUuQBDCh15WdcOfBWLDqyNga8Kdwrx7w53Dt0Aww4tiE8KGTnZgBsOkXQvChTDDrMKiSTbCnwtBM03DvTfDtQDCo8OQw6MeBMOKw6HDvcKWwrcGXMKywqdzWyA8MBQ7wqPCpMKlJsOQBsOAw7vChR7CrsODcMOfAcO4DCPDqMOjHg7CjcOndnHDmcOaw4gwKMKYfMOiZcK3w7I0EEzCmlLDnFTDrsOxwpcGYsKNwrfCr3vDuFUrwoXCnX88wqjClVEVw7tLwqDCsBdGDMO5wrbDicKbwqrCk8OVcgjCkF9Zw4EOw6rCssKpwocqw7xcw5XDv8O4w4Zcw6JLUx3DjsOYCMKMwqbChgAiPcK2I8K/wq3CncOYwpAVP8KDwr9sQH3DnMKYw6szwr/DrMOHNV7DqR4/DcKeZkDDjgIJwpPCvMOZwoFQw655w4IrDsOOwqRawp/Dq1nCu1sjOUpAMMOiF8OCwoYde28Ow5xIw4QwwpbDpXTCj1LDmCV6K8OXHcOvw5U6NHvDmxsdw7FdMB07GDl7GAgYwrnDowrDi0nDr8O1w6zCqMK3wrzCtDt0wo82AjsIQMKVcMKowpXCrjXCnMOxLMKCC8OcwrYSNsKow7Rgwpoew7Y2WVnDgMKlw5PDscKjw4DDnG0Ew5LCs8ONHTfDqMOGw6cPw7F0aF0acGzDkEwVwrTDhR1cRB9tBEbCvsKswrAiw54Kw51Jw5nCjlhrTns0ScKnw7DCosOVwrViw6rDtMKjwo1Aw7E4JVLDhMOjA0tWesObbMK8YcOACADDtDZDSzbCrMKyPMOaCBQgwphyQGcbL8KLwpTDgThCw6LDgW5fQMKWMFNAG8KOw4XCo8KNQB1ww5XDqGRIPlJowrV4wqRUw5zCmMKxZcK3w5vCocKwwo/DlcKCw78Vw65uI3BlB3TCrh7CucKRw6MRGcKowrHCgTUKd8Ouw7tDIFYwIMK4wo82AsOzw77CsMKLDjULwpknw5AkwoHCkcK4RMKXPcKYwo08ZsO0wpQNwr1vwqzDvmwjwrDCjXrChmrCk8OQIh3DqDJRcsKEIsKtTMKES8K3OXsXDMOSHm0EJmgewozCvMKPwrQ7B8KBw7gBUcKgPQhVJGvCsUAxw4PDtsO8aCNQw4PDnMOKw7BpwopjwpnDs8KWwpXDncKBYDBeNCfCgsOXBcK5w5XDn8Opw53DjzYCw49nwqVswpkiETkxTRwWXsOGKTXCgMOtw4p5w7NDw4rChMOYw7fDnQh8w53DtgMgwpLCgHEIRMOQdcOOQsOAK1HCum4Pw4IQCMKCw6gVDMOAw4AKX8K5FQrCvsKgw6QKQ8OgFQ4Sw6haMMKAFxIhwrDClQnCgDhIQsO4w7fDpVbDv8KRwpvCgT/CvcKuPMKlV1s/w73Do8OTw5N/f3rDusOxw5Nrw4vCp8Knw6dPwp/Ds8OlwqfDjwnDs8OTNWN+wrrCpsOMT08KwoEMwoYow6DDlcKawoteb8O9w5PDq8O7UiDDncOKw6DDm8Kcw4xEZcOcW8OLQcOXw6PCswTDjcOcw5DCtEfDo03DqsObw7vCsAsGwoPCtsK5NwnCq8O/fHpifQIzeC8qwq3Cr8KEXsKEw7RkwrLCvMK0wrIgwpFywqXDjcK2w5gcwqvCi8OWAsOnFAQueMO3ehPDv8O6XigWZsKowqrDuSbDoVUowqx0wpghHMKHD0Jrw4LCgxLDmsKPEXB2NMKHw6JkakwvwpPDpsO1w7p+woLDjsKSccKnaRQJwpjDgcKlP3xbwqjCrEtVwqQRPsKWw6PCh1xbw7QtJMORSMOcaSDCocODTsKCw67DrjTCtT0KM8OEKi7CmS9CMU1GDXEbFV/Dm8K0w6xjGsKPRsOJP0vCtsKew6N7NcOKDzPCrVLDicK+wqZCw4Jsw680PcKaw4nCqinDk31bwqjDp3jCssK9ZCLCksKewqM5OcKdLcK8YHTDtcKYUglZwoRVC8OcacOqwp0Jw5TDmMO9wqAXwrfCgcOKwqYANTjCqsO5IDTCjisLw7PDgcOmECcCw6sGw4fDnQE3wqbDlsOkS8OFYMOWdMOVw5xpwpoAFmoIw4Rfwr4twrQUw7vCsWNJSG4iU8OWwp0wVMKqMC/DgkPChMOqB1PCtMOEO01LIkfCjC1jw54Jwo3DqQQ2JMKpw78gVBLCiwY2PMKHKhPDtVDDsm7Ch8K2FsKSw40dw6FzWHTDmsKyd8KaEsKxABvCvMKhw54Jw6XCl2AydjBSw6ZfCWV9w7Aiw5bDmDjCnsO8CGQHGsKYCwpmHTAPwqfCsHHDtcO0TlNRBkbCg8KqwrPDsibClMK8EMKjIcKNYcO5wrXCpsOFWFdOfT5APMKdwonDtMOEJzk1DMO6McKJw5vCjRnCrUN3wqdpw45ZwqMhw74gflvDqFh1aTvCkEoFw6Buw5rDtVMZwrokw5jDhWZsSErChQfDpztNw53CtB7CjV0yVzfCl8KCe2Ywdh1YfcOtw7w4JcKcwpB0w45EVVQBwpvDp2Mxwqg6YcOPWw00EDsRwr/Dk8KUwo7DssOBUMK1w53Ct8KFw4Ibw4YZwrPDosOQYcKIBFTCkxnDuFLDjMKEPmLCqnkAw5HCqHTCp2nCh8OXa0pSw6PDqhbCpsKEZ8KtQinDsUPClsOKwpUxw4bDuDTDjCgsw5nDomJkwpTCjMKqw7fDgsO2fMOQEMKQwrzDsHfCmm7CvDVLMcOiXMOlw58SakdaI8KPWMKUwp0hE8OJcj3ChnbDm8KaPiDDpWHCq1xOwpl3wqdpK8KtEsOkbsO8wpzDun7CujbCvcOWw4BPwp/Ci8OgwqfCuyrDuMOpwrUMfsK6w5bDgU93wqQaw4XDiBcQw4IQAgYgwpDDhAHDvHktbi/DkFrDnsOIdQrCvFLDqsOrDsOxwqfDl8KqJcKEwq9ZHcKzwrElwo/CnAvDkGfCoH92wqYYaS/CuMKnVcKHwqYOFsK+w5vCv8Kqw7ZWOl7Dr8OfwpDDsmnCo8Ojw5XDqBUUGMOBw7vCjcOpwpvCmcKyGFoSY8Kmw5bDpcKfwp7DvsK5w5bCq8OfUzTDtsOHYDHDhEvDuSFrwpLDpsKRcsOmdlxcLzjDqnxgR8OwNjpjHUQNw6kAw4XDtsKdw6VOwqjCsBjCu8OqL3cJw65VwqjDghMfIsO8wphDwpvCgcKCw6IUNXLDi8OUwoHDgBPCgnwOw4QeSFvCpcOtwrQ7wqHDnMKOWQzDvsOUw5xFwrjDgsOmF8KDw4PCoMOiw6sIwofDqsKEOcOTFx91wohaA8Kbw5PCoMK6Eg/Co8OOXsOaw5PDohYvw6/Di8ObwpAsBsKDwrfDhcONccKiXsK+GMKaSHwQworCk8KAwpPCiDJhw7bDo2QYwppdw7odJ8OswpdDwozDgFvDtAJvw640JRkZMDbCrHAnw5TDkTrDgFgLw4MHwqHCg33CpMOZXhPDt3Ixw5PCtcKhWVzDhR43w67DqMOwQMK/wqE5w6ZOw5PClEgAYxsAw58WKh8tAcK5BDpkw4thV8KBQSUbUThPRMOCwrYxAsKFw7fCqVjDmiPCoMKxEcO7O8KhVh3CgGvChMO7b2N3wqvDrnJvZVNMCDJNazkjwofDhRlVw44pUsOOw6fDmGnCi3tNwpFyAg05w4HDrgYKRSnDkGA2w70HwqF1wrzDtMOTwonDksKrCAt0wqBJBkEWwqs5worCjkPDhmIzwrd8RsKPdg3DvcKCw68AIT4uTkjCmykcw6JYw4JcTisDw4nDsFFJw7fDikElw6PDj2hpw5tBBjPDux/DkHZJFlkvN8KYw4lPw57DmEpdIMKwwpd8wp3ClW0jw5I2w5LDk8KdwpXDmA0DGRvCj8K5wrPDksOiwq9Ww5rCkkPDsXXCjHghIQ9yw5rDkTgNwoNgIMKGw4nCpm9Gw6/DgMKLwrRaZsOFw7nDjkpKfwANw7pUFcOWwrfChFbCpFQuKXIBw7FscQ0aJUNCwqc2wobCjiTDvn5oA8O1wr4Mwog5aMKwAXgndMKXMsKgIcO4RcOxwrXDqcO7aMKlasOYOgkALcKUw5pIBy9OOm3CondywpDCn05LEsOeacOaW1cnw5HCkMKCw7nClsOQw5wyw5jCnWjCjsKuXMOUesOcw6xYw5bDkcOVw4sOw5YbA8ONOsOoPsKaw4/DihojWsK2wr8TworDtcOWw4XDmAXDmcKHw4dvAnjDnGLDsRTDlcKtTsKIeMOkw7LCnF/CqRbCqho1w64YZ8OsTsOTA3AADCUew67ChMOWYHcxwrZKw7hBw6jCjsKIGGlvR8OhwqnCvsKowqnCjwUXcSzDmz45T8K0wqnCgcOTcB8jQ8K3GMKbw73DvsOOwqbCmHVNZjnDsCHDsMKQwrLDlMOCwrDCg8OMw4VNw4vDncKQwpPClCvDg2cjL3fDhVYwMMOuTsOTw4ohw5YMw6kuw58WOlLDoMKxwqs3wq7CpcO7J8KvwpMpcEfDh8KUw60wwplucsOTSEx3wpoqe2rDjcO7IHTDp8KnP8O0wofDmcKQwo/DgAfDp8Ofwpllw5F0NDFVSCLDrnTDlsKEAxRTwrrDmcKXwpPCqC3DjXvCulLDvgDDjAbCm3B3w5HDvEDDqMOGw4VCXMKbXcKRFMKUYcKTMMKMUnLCoMONwp4IfsKPZErCo8OfacOqBMOUbGzDncOsTsOowrTCm2bCgyfDqg9swq1gw7bDpcORw4fCvGkuwpvDisKmwpjDkcKww6hYV8KmGWTCjsO7UFrDrjQFWms2FHtzNwF4IMKUVEjCiDkLXcOEQMOnwrTDn0gwdzzDqMK+cMOdw4tQOcOswpzDvsO7wqrDvU7DoTDCgh/CinNZZxQkXTDCoS0ZKz3DkMOOJnXDtW3Ds8Kxw5rCm8KawpzDjsKeOC3Du3jCp1LCm15eZMKkYiHDmmpzwqkPwojDpFrDrX96NDvDv11qfsKfwpk0wrjDjsOhf8OLVBrDusOVw6MEwpvCpcOAw7zCk8KjZzwfScKpw5IYwrtiw4IgbcK2UHIUw6k0w7jCg2c6w6bCpx/Dv8KMwr4ew61Aw69OdnzCnsOJfz7DlgHCvsOrw4DCiyXCvVPCrH3ClnfDjMORYgJ9w4cNw4Z8YcKPwq3CrcO1wrwow5wOdcO8w6oqw6bClsKlGUM0WMOJw5LCvxzDn0ZkLMKRRkjDksOJwpoywpwFLRhSOcONGMKNw4glwrZFw5/CtsOswq3Ck8ODGsOsw5nClcKYL8K4UcKdwoBLwpFbw6d2c0hgYcOjDcKTBsORwoTCsU4Qw7XCg8KIwr3CrcKewpVbwpUzNsO4X3Y3XCdkwrQ2w6Q4FQQHw5UVKCcjD0hswqPDrGbDl8KSXsO5wrZqOsO7w57CqifCpsOew6HDsMK6KyzDhsOzEEvDmmjDmcK5JcKOw71gAAkvwp01w5g6WcOJw69YJQJgFMKHIQIjwq97w5MISsKQw5fDhR8cwofCscOVJRHCjEBBFCHCiMOnP0MvIAjCoQgEwqMARAIkAV4XwokQCEVJFMOHMMKMADEQBsKfIcKMw4RfIAICIRDChnAUwoXCn0HClHgBwpHDq8KaEQYTJEjCkMOQw7/DhMO+w5tjf8KGw7h9w5VLw4jDpFbDg8OePsOPBMKCwoVueUjCjFFJDD88aF/CrQ41wrJyNsKPZWjCn8O3w4MiwpDDqTYhVMO6QBvCrsOpw6oAw6Nsf2EpH8OFwojCl8Orw5IYwoHDgwQIw6HDhGt8w4MYCsKhwqtBQALDgwDDpH4pX8KOwpjCtsKYwrIaw5Yaah5Lw6w0wrPCmsOLwpzDlcOMwq/Dt0fCq8OZw7/DilLDvsK/wrzChMOfM2HChgvChMKFwpwtw5zDjE7Ck8KXwozCnW5BKmDCoSfDoDgywo/ClsOwaysRWmPCsxx3woEIw45RHiU5cDBLwo04w69FwolGw7RHS8OqFcOhw5MJwpEZVTLDr8KVAcKQwoDCkkR7w5zCs8O5w7hgw5XCnsO7w7ZbwpcQwoUWHSczw6rDrsK3IMKyfsK0ZTFfwqfCtxwWwrbDlTxNDMKDFMKDw6PCg8KDwqFTb8K/w6XCiREHw5DCiTpXbsO9XWROw5kSwoZ6GAzDhRMDP8OSw4leDcKwZjfDkVljBW/Dj3dIIkIHwqB8c8OrD0EuwqVRwpPDh8KIciLCgMOme2bCnSnDucKucMOYw4vCsQfCnsKqw6rDkcKSw7plCcKnwrBwUAzCp8KdA0/Ct8OIwrTDmQnDk0DCjsK7wpPCjsKbw4HDm8Kpw6vCjRJvdVzCo8Kpwps9wrUTwogCwobDkEtxw6kkwpHCtDFQw58aYCTDmMKqw50yw7fCusO2aEkdQ07CsDUUwq7CqhTDrsKZw7bDgMKjF8OTw4fCnsOtfEBAdz3DvnbDkmLDqDVOwr9wJ8OuZsKXwp7CkhDDsgDCksKpNGtZw4DCjzVmwrjDqcO5XMKYwrXDicOgw7XDgj1aUjdlwqXCq8Kyw5osSGDDnnLCnsOmAljDgMOTBMOQSMK5UVDDgsO0aEnCncKpw48macK6S1wSVcKSRcKmAsKNesKsCcO9NsKnwqvDgDl9w7k1w4HDhyXDtcOdQMKeQMKgw6rCnVPDnx/Dky7CqT3Com3CoMOwwoTDrcKUwrFJw6PCt8KtFMOdwq1kwp3DoGXDs8KmZyDDuMOYfjnCn8OgwoozEcOTE0/CoGPCnijDlAtAdwddwoYvw6PDt3Epwp5tRXDDowslHMObAH8+ABbCuGk0AcOxVMKxw5cSXMOew7zDscKleMOkD8O/JgfCucO+Jgd9woEBHAXDkMO1DgxDwp4xwohYGyAERlccRCDDn8O7w4TDrX/DqCrDvMKDwrwmb8K0w6sJFsOhwrbDpcKHYCjCtwcXwoogGgLCsMO0LsKfVU7CuEg9wrjDmSnCs0nDpcOrLcO0w7UAUMKRGsK6cDxYFsO1w5fDjy7CsXk9fHPDp8K6SMKfwpDChzjDglvDlMKuw4s0AQ9+CcKow5kQOmdrXBrDpcO9wojDnWbDv3pUw67CpsOCQT0ewqt6J0cFw4Ruwp0wXz0rHHUzw40PwrxbZMOMw64dF33DgCHCjl5BXihEw5bDlGcdw4zDmcKjw5RGw5vCvWAIw4LDgsKIw6nDp0M7w7Imw77CoMOnw5E4ccKkJHnCtcKGCsONbsOfw5V9QcOPDMKaw4zDp8ONLMOqwqzDu8OeX8O6asKqG8Kuwpgrw5QtwqUoRMKRwqwmwrLDqQzDkkZ8LAnDrmTDsTHCpRUPTUVtTldRw5xNwpTCrWHCksKPVmIMchDCssK4w7taw5Jnwo3CvBDDnnlww7TDnGg+wovDmsK4w6dKwptswqzCuRB/fX8aw7VVw5TDjQonw7N0w4LDnMOowpLDt8Klw4NCwpR8YSLCtjvCicOuwrbCtcK3w4vDgMKBwr8ow6p3w4QmRiA4woHDowTCtsOSF8KUfMKLTRIjwonDqwtCcRB9wovDjcKfNcO9DMKJwoNrJMKuHxAYBzEEI8KfMRx/IWFkLcOyw6vCtcOiwr8zw7nDuX7CtD7ChcOiWlDDsHzCncOJOcKKwq87w7EyIzU7wpBDEsKMHsOfwo3Dvw5aw583wpJtwo1jJw7DpsK8LwDDiMK0w5zDrU5hHC/CqMKxIcKWw5jDn0jDq2XDlcKhDcO5MMOew5F6fsOjHcOUw6pEwqrCuyMiwoAgQMOsAcKMwrUqw7sgc8OQIsOXb8OhNwUDY8Kwwop9R8OrTX1SwppmZ1Abw5jCqDfDhVlKGFXCtsO2w7QBQ1sOw7vCvMOZwqweIcOOwqDCslgCwr7DoEjDncO3E0fDoMO5A8KQw7TCtsOIO07CrzQZEEAAw43CuMKHOnjDq8KPUxnCg8KBwqk7Wh/CtsKOGMK1woLCuDjCmBY1ckzDrMKcdcOoZzrCgcKPwr59PsO5wr/Dg8KrV8Oewr3DsnUcWCsCAMOjVwZ/wqXDusOrJHPCrQ84wo7CrGQUXlnDvsOrRi/CgcKgJAbDgFfCtyZgFHnChsKuwofCgMOwwpXDvQMoworDoBAEwq8sfiXDvS8keBV3FcK4wrrDvMOzwp8xFH1Zw6/CuMO+XsKBWGfCqsO/b8Ozw7o/w6h4wonCusOHMRwZwpEEw6UhC8Kww7EkEcO7cMOewo19wpvCjTvDhnzDpHgTwpdCBMOlwpzCsARJwrzChcOZFnnDhsORw6jDviR3BCrDlMOIw7TDiMOxFmFCBcO2w6zCkAVdwroQwqfCnMO7TMOfw6tALkQ1wodxwpHDucOIw7FyW2dgYsKTwrl8YnhcY28RJcKkOgNmwoMkXsOVQ8K+wrPDoxHCv8ONw6/CrsOnOWHDogVaUyfCiWErw6dZw6dQwqvDn2HDgAsKXMOPwoFiJMKyCsKFw7/Cv8Ojw73DnMOxWMOQNcOVw7jDggvCoMK+FMKRGgpdw6dAPhcrZQoTworDiT9ywrwLB8OrDXLDrsKLaXDCuCJswpU9Igp7w63DnB/Dp8KcwqDDucOswpHDo3nCvioSw4JGMErCjW3CssKxwo43OsOfJsKwLMOnw7xWPsONw4Ujw4fDm8OZw5HDiGokwqhtw5TCpMOBMHFDwrXCuXHCscOzKjBiMDkNw79zwo7Ch2DDt8KOwofDgFfDhyNeSMKcRGEEADDCnMOEwr/Ds2nCl8O/MMOHw7sNwocSw6E1OB8eSsOswpfClcObw4tzw4zCphoCJF3CpMKsVMOXFCNGVMOiI8Kbw5LCl3/CvcKHwqnCm8KZwpNgwrfCi8ONwpwHw4rCnHLCkSvDgMKww6Mzwqs4TsO1w6HDvMO0w4/Dvw3CjcK3w5fDiA==]]></gravitDesigner:gravitGraphicSource></svg>